<svg width="13" height="79" viewBox="0 0 13 79" fill="none" xmlns="http://www.w3.org/2000/svg">
<path d="M11.055 74.7227C11.055 75.2653 10.945 75.764 10.725 76.2187C10.4977 76.666 10.2007 77.051 9.834 77.3737C9.46 77.6963 9.03467 77.9457 8.558 78.1217C8.08133 78.2977 7.59367 78.3857 7.095 78.3857C6.57433 78.3857 6.07567 78.294 5.599 78.1107C5.12233 77.92 4.70067 77.6597 4.334 77.3297C3.96733 76.9997 3.67767 76.611 3.465 76.1637C3.245 75.7163 3.135 75.2323 3.135 74.7117C3.135 74.169 3.25233 73.674 3.487 73.2267C3.71433 72.772 4.015 72.387 4.389 72.0717C4.763 71.749 5.18833 71.4997 5.665 71.3237C6.13433 71.1477 6.61467 71.0597 7.106 71.0597C7.62667 71.0597 8.12533 71.155 8.602 71.3457C9.07867 71.529 9.50033 71.7857 9.867 72.1157C10.2263 72.4383 10.516 72.8233 10.736 73.2707C10.9487 73.718 11.055 74.202 11.055 74.7227ZM7.095 77.6157C7.52033 77.6157 7.931 77.546 8.327 77.4067C8.71567 77.2673 9.064 77.0693 9.372 76.8127C9.67267 76.556 9.91467 76.2517 10.098 75.8997C10.274 75.5477 10.362 75.1553 10.362 74.7227C10.362 74.2827 10.2667 73.883 10.076 73.5237C9.88533 73.1643 9.636 72.86 9.328 72.6107C9.02 72.3613 8.67167 72.1707 8.283 72.0387C7.89433 71.8993 7.49833 71.8297 7.095 71.8297C6.66967 71.8297 6.26267 71.903 5.874 72.0497C5.478 72.189 5.12967 72.387 4.829 72.6437C4.52833 72.9003 4.29 73.2047 4.114 73.5567C3.93067 73.9087 3.839 74.2973 3.839 74.7227C3.839 75.1627 3.93433 75.5623 4.125 75.9217C4.30833 76.281 4.554 76.5853 4.862 76.8347C5.17 77.084 5.51833 77.2783 5.907 77.4177C6.29567 77.5497 6.69167 77.6157 7.095 77.6157ZM11 69.6079L3.19 69.6079L3.19 66.3079C3.19 65.9706 3.26333 65.6626 3.41 65.3839C3.54933 65.0979 3.73633 64.8522 3.971 64.6469C4.19833 64.4416 4.45867 64.2839 4.752 64.1739C5.04533 64.0566 5.34233 63.9979 5.643 63.9979C5.929 63.9979 6.204 64.0419 6.468 64.1299C6.72467 64.2106 6.95933 64.3279 7.172 64.4819C7.37733 64.6286 7.55333 64.8082 7.7 65.0209C7.83933 65.2336 7.93467 65.4719 7.986 65.7359L11 63.8219L11 64.6909L8.118 66.5279L8.118 68.8379L11 68.8379L11 69.6079ZM7.436 68.8379L7.436 66.2859C7.436 66.0586 7.38833 65.8532 7.293 65.6699C7.19033 65.4792 7.05467 65.3179 6.886 65.1859C6.71733 65.0539 6.52667 64.9512 6.314 64.8779C6.10133 64.8046 5.87767 64.7679 5.643 64.7679C5.40833 64.7679 5.18467 64.8119 4.972 64.8999C4.752 64.9806 4.56133 65.0942 4.4 65.2409C4.23867 65.3802 4.11033 65.5489 4.015 65.7469C3.91967 65.9376 3.872 66.1392 3.872 66.3519L3.872 68.8379L7.436 68.8379ZM9.856 56.7784C10.6553 57.5044 11.055 58.3404 11.055 59.2864C11.055 59.8144 10.9413 60.3021 10.714 60.7494C10.4867 61.1894 10.186 61.5744 9.812 61.9044C9.438 62.2271 9.01633 62.4801 8.547 62.6634C8.07033 62.8467 7.58267 62.9384 7.084 62.9384C6.56333 62.9384 6.06467 62.8504 5.588 62.6744C5.11133 62.4911 4.69333 62.2381 4.334 61.9154C3.96733 61.5927 3.67767 61.2114 3.465 60.7714C3.245 60.3314 3.135 59.8511 3.135 59.3304C3.135 58.9491 3.179 58.6007 3.267 58.2854C3.34767 57.9701 3.465 57.6914 3.619 57.4494C3.76567 57.2001 3.94533 56.9874 4.158 56.8114C4.36333 56.6281 4.59067 56.4741 4.84 56.3494L5.236 56.9434C4.752 57.2001 4.39633 57.5337 4.169 57.9444C3.94167 58.3551 3.828 58.8207 3.828 59.3414C3.828 59.7741 3.91967 60.1664 4.103 60.5184C4.28633 60.8631 4.532 61.1601 4.84 61.4094C5.14067 61.6514 5.489 61.8384 5.885 61.9704C6.27367 62.1024 6.677 62.1684 7.095 62.1684C7.535 62.1684 7.953 62.0951 8.349 61.9484C8.745 61.7944 9.09333 61.5854 9.394 61.3214C9.68733 61.0574 9.922 60.7494 10.098 60.3974C10.274 60.0381 10.362 59.6494 10.362 59.2314C10.362 58.7841 10.2593 58.3587 10.054 57.9554C9.84133 57.5447 9.50767 57.1524 9.053 56.7784L7.755 56.7784L7.755 58.5164L7.161 58.5164L7.161 56.1294L11 56.1294L11 56.7784L9.856 56.7784ZM3.19 52.1274L3.19 51.4784L11 48.2334L11 49.0474L8.558 50.0594L8.558 53.5684L11 54.5694L11 55.3944L3.19 52.1274ZM7.953 50.2354L4.092 51.8084L7.953 53.4034L7.953 50.2354ZM4.62 46.3438L11 46.3438L11 47.1138L3.19 47.1138L3.19 46.5198L9.691 41.3498L3.201 41.3498L3.201 40.5798L11 40.5798L11 41.2508L4.62 46.3438ZM11 38.6167L3.19 38.6167L3.19 37.8467L11 37.8467L11 38.6167ZM10.395 36.5262L3.872 31.2132L3.872 36.4382L3.19 36.4382L3.19 30.3222L3.795 30.3222L10.318 35.5692L10.318 30.3332L11 30.3332L11 36.5262L10.395 36.5262ZM3.19 26.5502L3.19 25.9012L11 22.6562L11 23.4702L8.558 24.4822L8.558 27.9912L11 28.9922L11 29.8172L3.19 26.5502ZM7.953 24.6582L4.092 26.2312L7.953 27.8262L7.953 24.6582ZM12.386 19.5717C12.4373 19.469 12.4813 19.3297 12.518 19.1537C12.562 18.9777 12.584 18.7943 12.584 18.6037C12.584 18.1857 12.4557 17.9767 12.199 17.9767C12.0523 17.9767 11.9497 18.028 11.891 18.1307C11.8323 18.226 11.803 18.358 11.803 18.5267C11.803 18.6807 11.8177 18.842 11.847 19.0107C11.8837 19.1793 11.9203 19.3113 11.957 19.4067L11.055 18.9227C11.0257 19.4287 10.89 19.8943 10.648 20.3197C10.406 20.745 10.098 21.1117 9.724 21.4197C9.35 21.7203 8.932 21.955 8.47 22.1237C8.00066 22.2923 7.524 22.3767 7.04 22.3767C6.57066 22.3767 6.105 22.296 5.643 22.1347C5.17366 21.966 4.75566 21.724 4.389 21.4087C4.02233 21.0933 3.72533 20.7047 3.498 20.2427C3.26333 19.7807 3.146 19.2563 3.146 18.6697C3.146 17.973 3.30366 17.379 3.619 16.8877C3.93433 16.389 4.345 16.0223 4.851 15.7877L5.225 16.3927C4.96833 16.5173 4.752 16.6713 4.576 16.8547C4.4 17.0307 4.257 17.2213 4.147 17.4267C4.037 17.632 3.96 17.8447 3.916 18.0647C3.86466 18.2847 3.839 18.501 3.839 18.7137C3.839 19.183 3.93433 19.5973 4.125 19.9567C4.31566 20.316 4.565 20.6203 4.873 20.8697C5.181 21.1117 5.52933 21.295 5.918 21.4197C6.29933 21.5443 6.688 21.6067 7.084 21.6067C7.51666 21.6067 7.931 21.5333 8.327 21.3867C8.723 21.2327 9.075 21.0273 9.383 20.7707C9.68366 20.5067 9.92566 20.1987 10.109 19.8467C10.285 19.4873 10.373 19.0987 10.373 18.6807C10.373 18.4607 10.3473 18.237 10.296 18.0097C10.2373 17.775 10.1493 17.5513 10.032 17.3387C9.90733 17.1187 9.757 16.917 9.581 16.7337C9.39766 16.5503 9.17766 16.3963 8.921 16.2717L9.251 15.6337C9.52233 15.751 9.768 15.9123 9.988 16.1177C10.2007 16.323 10.384 16.554 10.538 16.8107C10.6847 17.0673 10.802 17.3423 10.89 17.6357C10.978 17.9217 11.033 18.2077 11.055 18.4937L11.561 18.8017C11.5317 18.7357 11.5133 18.666 11.506 18.5927C11.4987 18.512 11.495 18.4423 11.495 18.3837C11.495 18.127 11.55 17.9253 11.66 17.7787C11.7773 17.6247 11.946 17.5477 12.166 17.5477C12.4153 17.5477 12.606 17.643 12.738 17.8337C12.87 18.0243 12.936 18.303 12.936 18.6697C12.936 18.8823 12.914 19.0803 12.87 19.2637C12.8333 19.447 12.7857 19.612 12.727 19.7587L12.386 19.5717ZM3.19 12.0053L3.19 11.3563L11 8.1113L11 8.9253L8.558 9.9373L8.558 13.4463L11 14.4473L11 15.2723L3.19 12.0053ZM7.953 10.1133L4.092 11.6863L7.953 13.2813L7.953 10.1133ZM1.925 11.0043C1.925 11.173 1.903 11.3196 1.859 11.4443C1.815 11.5616 1.76733 11.6753 1.716 11.7853C1.65733 11.888 1.606 11.9906 1.562 12.0933C1.51066 12.1886 1.485 12.295 1.485 12.4123C1.485 12.537 1.51066 12.636 1.562 12.7093C1.61333 12.7753 1.672 12.8303 1.738 12.8743C1.79666 12.911 1.85533 12.9366 1.914 12.9513C1.96533 12.9586 1.99833 12.9623 2.013 12.9623L2.013 13.4243C1.97633 13.4243 1.903 13.4133 1.793 13.3913C1.67566 13.362 1.55833 13.3106 1.441 13.2373C1.32366 13.164 1.221 13.0613 1.133 12.9293C1.03766 12.7973 0.989997 12.6286 0.989997 12.4233C0.989997 12.2693 1.01566 12.1373 1.067 12.0273C1.111 11.91 1.16233 11.8 1.221 11.6973C1.27966 11.5946 1.33466 11.492 1.386 11.3893C1.43 11.2793 1.452 11.1546 1.452 11.0153C1.452 10.876 1.42633 10.766 1.375 10.6853C1.32366 10.5973 1.265 10.5313 1.199 10.4873C1.133 10.4433 1.07433 10.4176 1.023 10.4103C0.96433 10.3956 0.927663 10.3883 0.912996 10.3883L0.912996 9.9263C0.949663 9.9263 1.023 9.94096 1.133 9.9703C1.243 9.99963 1.35666 10.0546 1.474 10.1353C1.59133 10.2086 1.69766 10.3186 1.793 10.4653C1.881 10.6046 1.925 10.7843 1.925 11.0043ZM11.055 4.13574C11.055 4.67841 10.945 5.17707 10.725 5.63174C10.4977 6.07908 10.2007 6.46408 9.834 6.78674C9.46 7.10941 9.03466 7.35874 8.558 7.53474C8.08133 7.71074 7.59366 7.79874 7.095 7.79874C6.57433 7.79874 6.07566 7.70708 5.599 7.52374C5.12233 7.33308 4.70066 7.07274 4.334 6.74274C3.96733 6.41274 3.67766 6.02408 3.465 5.57674C3.245 5.12941 3.135 4.64541 3.135 4.12474C3.135 3.58208 3.25233 3.08708 3.487 2.63974C3.71433 2.18508 4.015 1.80008 4.389 1.48474C4.763 1.16207 5.18833 0.912742 5.665 0.736742C6.13433 0.560742 6.61466 0.472742 7.106 0.472742C7.62666 0.472742 8.12533 0.568075 8.602 0.758741C9.07866 0.942075 9.50033 1.19874 9.867 1.52874C10.2263 1.85141 10.516 2.23641 10.736 2.68374C10.9487 3.13107 11.055 3.61507 11.055 4.13574ZM7.095 7.02874C7.52033 7.02874 7.931 6.95908 8.327 6.81974C8.71566 6.68041 9.064 6.48241 9.372 6.22574C9.67266 5.96908 9.91466 5.66474 10.098 5.31274C10.274 4.96074 10.362 4.56841 10.362 4.13574C10.362 3.69574 10.2667 3.29607 10.076 2.93674C9.88533 2.57741 9.636 2.27307 9.328 2.02374C9.02 1.77441 8.67166 1.58374 8.283 1.45174C7.89433 1.31241 7.49833 1.24274 7.095 1.24274C6.66966 1.24274 6.26266 1.31608 5.874 1.46274C5.478 1.60207 5.12966 1.80008 4.829 2.05674C4.52833 2.31341 4.29 2.61774 4.114 2.96974C3.93066 3.32174 3.839 3.71041 3.839 4.13574C3.839 4.57574 3.93433 4.97541 4.125 5.33474C4.30833 5.69408 4.554 5.99841 4.862 6.24774C5.17 6.49708 5.51833 6.69141 5.907 6.83074C6.29566 6.96274 6.69166 7.02874 7.095 7.02874Z" fill="black"/>
</svg>
