<svg width="119" height="42" viewBox="0 0 119 42" fill="none" xmlns="http://www.w3.org/2000/svg">
<path d="M61.51 0H0V41.0147H61.51V0Z" fill="black"/>
<path d="M30.7638 4.55762L31.2702 6.14901H32.9098L31.5595 7.1135L32.09 8.68079L30.7638 7.7163L29.4136 8.68079L29.944 7.1135L28.5938 6.14901H30.2334L30.7638 4.55762Z" fill="white"/>
<path d="M23.9201 6.39014L24.4264 7.98153H26.0902L24.7399 8.94602L25.2704 10.5133L23.9201 9.54882L22.5698 10.5133L23.1003 8.94602L21.75 7.98153H23.4137L23.9201 6.39014Z" fill="white"/>
<path d="M18.9279 11.4053L19.4343 12.9726H21.0739L19.7236 13.937L20.2541 15.5284L18.9279 14.5398L17.5776 15.5284L18.1081 13.937L16.7578 12.9726H18.3974L18.9279 11.4053Z" fill="white"/>
<path d="M17.092 18.2285L17.5983 19.8199H19.2379L17.9118 20.7844L18.4181 22.3517L17.092 21.3631L15.7417 22.3517L16.2722 20.7844L14.9219 19.8199H16.5856L17.092 18.2285Z" fill="white"/>
<path d="M18.9279 25.0767L19.4343 26.6439H21.0739L19.7236 27.6084L20.2541 29.1998L18.9279 28.2112L17.5776 29.1998L18.1081 27.6084L16.7578 26.6439H18.4215L18.9279 25.0767Z" fill="white"/>
<path d="M23.9201 30.0679L24.4264 31.6593H26.0902L24.7399 32.6238L25.2704 34.191L23.9201 33.2024L22.5698 34.191L23.1003 32.6238L21.75 31.6593H23.4137L23.9201 30.0679Z" fill="white"/>
<path d="M30.7638 31.9004L31.2702 33.4918H32.9098L31.5595 34.4563L32.09 36.0236L30.7638 35.035L29.4136 36.0236L29.944 34.4563L28.5938 33.4918H30.2575L30.7638 31.9004Z" fill="white"/>
<path d="M37.5881 30.0679L38.0944 31.6593H39.7582L38.4079 32.6238L38.9383 34.191L37.5881 33.2024L36.2378 34.191L36.7682 32.6238L35.418 31.6593H37.0817L37.5881 30.0679Z" fill="white"/>
<path d="M42.6037 25.0771L43.11 26.6444H44.7497L43.3994 27.6089L43.9299 29.2003L42.6037 28.2117L41.2534 29.2003L41.7839 27.6089L40.4336 26.6444H42.0732L42.6037 25.0771Z" fill="white"/>
<path d="M44.4357 18.2285L44.918 19.8199H46.5817L45.2314 20.7844L45.7619 22.3517L44.4116 21.3631L43.0854 22.3517L43.5918 20.7844L42.2656 19.8199H43.9052L44.4357 18.2285Z" fill="white"/>
<path d="M42.6037 11.4048L43.11 12.9721H44.7497L43.3994 13.9366L43.9299 15.528L42.6037 14.5394L41.2534 15.528L41.7839 13.9366L40.4336 12.9721H42.0732L42.6037 11.4048Z" fill="white"/>
<path d="M37.5881 6.39014L38.0944 7.98153H39.7582L38.4079 8.94602L38.9142 10.5133L37.5881 9.54882L36.2378 10.5133L36.7682 8.94602L35.418 7.98153H37.0817L37.5881 6.39014Z" fill="white"/>
<path d="M76.8217 10.2721H70.0703V0.0244141H76.8217V1.23002H71.4206V4.05116H76.8217V5.25676H71.4206V9.06646H76.8217V10.2721Z" fill="black"/>
<path d="M84.7075 10.2718H83.4054V9.4279C82.9714 9.76547 82.5615 10.0307 82.1516 10.2236C81.7417 10.4165 81.3077 10.4888 80.8254 10.4888C80.0056 10.4888 79.3787 10.2477 78.9447 9.74137C78.4865 9.25913 78.2695 8.51165 78.2695 7.57128V2.58008H79.5716V6.96847C79.5716 7.35427 79.5957 7.69183 79.6198 7.98117C79.668 8.27052 79.7404 8.48753 79.8609 8.70453C79.9815 8.89743 80.1503 9.04212 80.3432 9.13856C80.5361 9.23501 80.8254 9.28323 81.2112 9.28323C81.5488 9.28323 81.9105 9.18679 82.3204 9.018C82.7062 8.84922 83.092 8.6322 83.4295 8.34285V2.60418H84.7316V10.2718H84.7075Z" fill="black"/>
<path d="M91.4591 3.97856H91.3868C91.1939 3.93034 91.001 3.90622 90.8322 3.88211C90.6393 3.858 90.4464 3.858 90.1812 3.858C89.7713 3.858 89.3855 3.95445 89.0238 4.12323C88.6621 4.29202 88.3005 4.53315 87.9388 4.79838V10.2718H86.6367V2.58008H87.9388V3.71334C88.4451 3.30343 88.9033 3.01409 89.2891 2.84531C89.6748 2.67652 90.0848 2.58008 90.4947 2.58008C90.7117 2.58008 90.8805 2.58007 90.9769 2.60418C91.0733 2.60418 91.218 2.62828 91.435 2.6765V3.97856H91.4591Z" fill="black"/>
<path d="M99.031 6.4141C99.031 7.66793 98.7176 8.65654 98.0666 9.3799C97.4155 10.1033 96.5716 10.465 95.4866 10.465C94.4015 10.465 93.5335 10.1033 92.8825 9.3799C92.2314 8.65654 91.918 7.66793 91.918 6.4141C91.918 5.16027 92.2314 4.17169 92.8825 3.44833C93.5335 2.72496 94.3774 2.36328 95.4866 2.36328C96.5716 2.36328 97.4155 2.72496 98.0666 3.44833C98.7176 4.17169 99.031 5.16027 99.031 6.4141ZM97.7049 6.4141C97.7049 5.4255 97.512 4.67804 97.1262 4.1958C96.7404 3.71355 96.1858 3.47243 95.5107 3.47243C94.8114 3.47243 94.2568 3.71355 93.871 4.1958C93.4853 4.67804 93.2923 5.4255 93.2923 6.4141C93.2923 7.37859 93.4853 8.10197 93.871 8.60833C94.2568 9.11468 94.8114 9.3558 95.5107 9.3558C96.2099 9.3558 96.7404 9.11468 97.1262 8.60833C97.512 8.12609 97.7049 7.4027 97.7049 6.4141Z" fill="black"/>
<path d="M107.349 6.31768C107.349 6.94459 107.253 7.52328 107.084 8.02963C106.915 8.53599 106.65 8.99412 106.336 9.33169C106.023 9.66926 105.685 9.93448 105.275 10.1274C104.865 10.3203 104.431 10.4167 103.973 10.4167C103.563 10.4167 103.202 10.3685 102.888 10.2962C102.575 10.1997 102.237 10.0791 101.9 9.88625V13.1173H100.598V2.5803H101.9V3.37598C102.237 3.08663 102.623 2.84551 103.057 2.65261C103.491 2.45972 103.949 2.36328 104.431 2.36328C105.348 2.36328 106.071 2.72497 106.602 3.42422C107.084 4.09936 107.349 5.08796 107.349 6.31768ZM106.023 6.36589C106.023 5.44963 105.854 4.75038 105.541 4.29225C105.227 3.83412 104.745 3.59299 104.07 3.59299C103.708 3.59299 103.322 3.66533 102.937 3.83412C102.551 4.0029 102.189 4.19579 101.851 4.46102V8.82531C102.213 8.9941 102.527 9.11467 102.792 9.16289C103.057 9.21111 103.346 9.25934 103.684 9.25934C104.407 9.25934 104.962 9.01822 105.372 8.53598C105.806 8.02962 106.023 7.30626 106.023 6.36589Z" fill="black"/>
<path d="M114.921 10.2722H113.643V9.45238C113.523 9.52472 113.378 9.64525 113.185 9.78993C112.992 9.9346 112.799 10.0311 112.606 10.1275C112.389 10.224 112.148 10.3204 111.859 10.3927C111.57 10.4651 111.256 10.4892 110.87 10.4892C110.171 10.4892 109.592 10.2481 109.11 9.78993C108.628 9.3318 108.387 8.75312 108.387 8.02976C108.387 7.45107 108.507 6.96882 108.773 6.60714C109.014 6.24546 109.375 5.95611 109.833 5.76321C110.292 5.5462 110.87 5.42565 111.521 5.35332C112.172 5.28098 112.872 5.23274 113.643 5.18452V4.99164C113.643 4.70229 113.595 4.46117 113.498 4.26827C113.402 4.07538 113.257 3.9307 113.064 3.81014C112.872 3.71369 112.655 3.64135 112.413 3.59312C112.148 3.5449 111.883 3.54491 111.618 3.54491C111.28 3.54491 110.894 3.59313 110.484 3.68958C110.075 3.78602 109.641 3.90658 109.182 4.07536H109.062V2.7492C109.303 2.67686 109.689 2.60452 110.147 2.53218C110.629 2.45985 111.087 2.41162 111.57 2.41162C112.1 2.41162 112.582 2.45984 112.992 2.55629C113.402 2.65274 113.74 2.79742 114.029 3.01442C114.318 3.23143 114.535 3.49667 114.68 3.83424C114.825 4.17181 114.897 4.58171 114.897 5.08806V10.2722H114.921ZM113.643 8.36733V6.22135C113.257 6.24546 112.775 6.26958 112.245 6.3178C111.714 6.36603 111.28 6.43835 110.967 6.51068C110.605 6.60713 110.292 6.77592 110.075 6.99293C109.833 7.20993 109.737 7.5234 109.737 7.9092C109.737 8.34322 109.882 8.68078 110.147 8.89779C110.412 9.1148 110.822 9.23537 111.377 9.23537C111.835 9.23537 112.245 9.13892 112.63 8.97014C112.968 8.82547 113.306 8.60846 113.643 8.36733Z" fill="black"/>
<path d="M77.9797 23.6301C77.7385 23.7506 77.4974 23.8471 77.3045 23.9435C77.1116 24.04 76.8223 24.1364 76.5088 24.257C76.2195 24.3534 75.9301 24.4258 75.5926 24.474C75.255 24.5463 74.8933 24.5705 74.5075 24.5705C73.76 24.5705 73.0849 24.474 72.4821 24.257C71.8793 24.04 71.3488 23.7265 70.8907 23.2684C70.4567 22.8344 70.095 22.2798 69.8539 21.6047C69.6127 20.9295 69.4922 20.1579 69.4922 19.2658C69.4922 18.4219 69.6127 17.6744 69.8539 16.9992C70.095 16.3241 70.4326 15.7695 70.8907 15.3114C71.3247 14.8774 71.8552 14.5157 72.4821 14.2987C73.109 14.0576 73.7841 13.937 74.5316 13.937C75.0862 13.937 75.6408 14.0093 76.1712 14.1299C76.7258 14.2746 77.3286 14.4916 78.0038 14.8291V16.4447H77.9073C77.3527 15.9624 76.774 15.6249 76.2195 15.4078C75.6649 15.1908 75.0621 15.0944 74.4352 15.0944C73.9047 15.0944 73.4466 15.1667 73.0367 15.3355C72.6268 15.5043 72.241 15.7695 71.9275 16.1071C71.6141 16.4447 71.3729 16.8787 71.18 17.4092C71.0113 17.9396 70.9148 18.5424 70.9148 19.2417C70.9148 19.965 71.0113 20.5919 71.2041 21.0983C71.397 21.6288 71.6623 22.0387 71.9516 22.3763C72.2651 22.7138 72.6509 22.9791 73.0849 23.1237C73.5189 23.2925 73.977 23.3648 74.4352 23.3648C75.0862 23.3648 75.7131 23.2443 76.2918 23.0273C76.8705 22.8103 77.401 22.4727 77.9073 22.0146H78.0038V23.6301H77.9797Z" fill="black"/>
<path d="M84.1506 18.084H84.0782C83.8853 18.0358 83.6924 18.0117 83.5236 17.9876C83.3307 17.9635 83.1378 17.9635 82.8726 17.9635C82.4627 17.9635 82.0769 18.0599 81.7152 18.2287C81.3535 18.3975 80.9919 18.6386 80.6302 18.9039V24.3773H79.3281V16.6855H80.6302V17.8188C81.1365 17.4089 81.5947 17.1196 81.9805 16.9508C82.3663 16.782 82.7762 16.6855 83.1861 16.6855C83.4031 16.6855 83.5719 16.6855 83.6683 16.7097C83.7648 16.7097 83.9094 16.7337 84.1264 16.782V18.084H84.1506Z" fill="black"/>
<path d="M86.5138 15.3835H85.043V14.0332H86.5138V15.3835ZM86.4415 24.3773H85.1394V16.6855H86.4415V24.3773Z" fill="black"/>
<path d="M94.3781 24.3776H93.1002V23.5578C92.9796 23.6302 92.835 23.7507 92.6421 23.8954C92.4492 24.0401 92.2563 24.1365 92.0634 24.233C91.8464 24.3294 91.6052 24.4259 91.3159 24.4982C91.0266 24.5705 90.7131 24.5947 90.3273 24.5947C89.628 24.5947 89.0494 24.3535 88.5671 23.8954C88.0849 23.4373 87.8438 22.8586 87.8438 22.1352C87.8438 21.5565 87.9643 21.0743 88.2295 20.7126C88.4707 20.3509 88.8323 20.0616 89.2905 19.8687C89.7486 19.6517 90.3273 19.5311 90.9783 19.4588C91.6294 19.3865 92.3286 19.3382 93.1002 19.29V19.0971C93.1002 18.8078 93.052 18.5666 92.9555 18.3737C92.8591 18.1808 92.7144 18.0362 92.5215 17.9156C92.3286 17.8192 92.1116 17.7468 91.8705 17.6986C91.6052 17.6504 91.34 17.6504 91.0748 17.6504C90.7372 17.6504 90.3514 17.6986 89.9415 17.795C89.5316 17.8915 89.0976 18.012 88.6394 18.1808H88.5671V16.8547C88.8082 16.7823 89.194 16.71 89.6522 16.6377C90.1344 16.5653 90.5925 16.5171 91.0748 16.5171C91.6052 16.5171 92.0875 16.5653 92.4974 16.6618C92.9073 16.7582 93.2449 16.9029 93.5342 17.1199C93.8236 17.3369 94.0406 17.6021 94.1852 17.9397C94.3299 18.2773 94.4023 18.6872 94.4023 19.1935V24.3776H94.3781ZM93.1002 22.4728V20.3268C92.7144 20.3509 92.2322 20.375 91.7017 20.4233C91.1712 20.4715 90.7372 20.5438 90.4238 20.6162C90.0621 20.7126 89.7486 20.8814 89.5316 21.0984C89.3146 21.3154 89.194 21.6289 89.194 22.0147C89.194 22.4487 89.3387 22.7862 89.6039 23.0033C89.8692 23.2203 90.2791 23.3408 90.8337 23.3408C91.2918 23.3408 91.7017 23.2444 92.0875 23.0756C92.425 22.9309 92.7867 22.7139 93.1002 22.4728Z" fill="black"/>
<path d="M100.307 24.3054C100.066 24.3777 99.8004 24.4259 99.5111 24.4741C99.2218 24.5223 98.9565 24.5465 98.7395 24.5465C97.9438 24.5465 97.3651 24.3295 96.9552 23.9196C96.5453 23.4855 96.3524 22.8104 96.3524 21.8941V17.7951H95.4844V16.71H96.3524V14.4917H97.6545V16.71H100.331V17.7951H97.6545V21.2913C97.6545 21.7012 97.6545 22.0147 97.6786 22.2317C97.7027 22.4487 97.7509 22.6657 97.8715 22.8586C97.9679 23.0515 98.1126 23.1721 98.2814 23.2685C98.4502 23.365 98.7395 23.3891 99.1012 23.3891C99.3182 23.3891 99.5352 23.365 99.7522 23.2926C99.9933 23.2203 100.138 23.1721 100.259 23.148H100.331V24.3054H100.307Z" fill="black"/>
<path d="M102.815 15.3835H101.344V14.0332H102.815V15.3835ZM102.742 24.3773H101.44V16.6855H102.742V24.3773Z" fill="black"/>
<path d="M111.448 16.6855L108.338 24.3773H107.036L103.949 16.6855H105.348L107.735 22.81L110.098 16.6855H111.448Z" fill="black"/>
<path d="M118.562 24.3776H117.284V23.5578C117.163 23.6302 117.019 23.7507 116.826 23.8954C116.633 24.0401 116.44 24.1365 116.247 24.233C116.03 24.3294 115.789 24.4259 115.499 24.4982C115.21 24.5705 114.897 24.5947 114.511 24.5947C113.812 24.5947 113.233 24.3535 112.751 23.8954C112.268 23.4373 112.027 22.8586 112.027 22.1352C112.027 21.5565 112.148 21.0743 112.413 20.7126C112.654 20.3509 113.016 20.0616 113.474 19.8687C113.932 19.6517 114.511 19.5311 115.162 19.4588C115.813 19.3865 116.512 19.3382 117.284 19.29V19.0971C117.284 18.8078 117.236 18.5666 117.139 18.3737C117.043 18.1808 116.898 18.0362 116.705 17.9156C116.512 17.8192 116.295 17.7468 116.054 17.6986C115.789 17.6504 115.524 17.6504 115.258 17.6504C114.921 17.6504 114.535 17.6986 114.125 17.795C113.715 17.8915 113.281 18.012 112.823 18.1808H112.751V16.8547C112.992 16.7823 113.378 16.71 113.836 16.6377C114.318 16.5653 114.776 16.5171 115.258 16.5171C115.789 16.5171 116.271 16.5653 116.681 16.6618C117.091 16.7582 117.428 16.9029 117.718 17.1199C118.007 17.3369 118.224 17.6021 118.369 17.9397C118.514 18.2773 118.586 18.6872 118.586 19.1935V24.3776H118.562ZM117.284 22.4728V20.3268C116.898 20.3509 116.416 20.375 115.885 20.4233C115.355 20.4715 114.921 20.5438 114.607 20.6162C114.246 20.7126 113.932 20.8814 113.715 21.0984C113.474 21.3154 113.378 21.6289 113.378 22.0147C113.378 22.4487 113.522 22.7862 113.788 23.0033C114.053 23.2203 114.463 23.3408 115.017 23.3408C115.475 23.3408 115.885 23.2444 116.271 23.0756C116.609 22.9309 116.97 22.7139 117.284 22.4728Z" fill="black"/>
<path d="M102.766 34.6252H104.768L104.503 33.9983H103.032L103.152 33.7089H104.382L104.117 33.082H103.393H102.525L102.26 33.7089H103.152L103.032 33.9983H102.164L101.898 34.6252H102.766Z" fill="white"/>
<path d="M102.766 34.6252H104.768L104.503 33.9983H103.032L103.152 33.7089H104.382L104.117 33.082H103.393H102.525L102.26 33.7089H103.152L103.032 33.9983H102.164L101.898 34.6252H102.766Z" fill="black" stroke="white" stroke-width="0.0468257"/>
<path d="M103.513 32.8169H103.995L103.705 32.1177H102.934L102.645 32.8169H103.513Z" fill="white"/>
<path d="M103.513 32.8169H103.995L103.705 32.1177H102.934L102.645 32.8169H103.513Z" fill="black" stroke="white" stroke-width="0.0468257"/>
<path d="M104.046 37.3738H104.914H105.902L105.637 36.7468H104.648L104.528 36.4575H105.516L105.251 35.8306H104.263L104.19 35.6377L104.118 35.8306L104.19 35.6377L104.263 35.8306H104.118H103.395L103.66 36.4575H103.853H104.528L104.648 36.7468H103.78L104.046 37.3738Z" fill="white"/>
<path d="M104.046 37.3738H104.914H105.902L105.637 36.7468H104.648L104.528 36.4575H105.516L105.251 35.8306H104.263L104.19 35.6377L104.118 35.8306L104.19 35.6377L104.263 35.8306H104.118H103.395L103.66 36.4575H103.853H104.528L104.648 36.7468H103.78L104.046 37.3738Z" fill="black" stroke="white" stroke-width="0.0468257"/>
<path d="M103.754 36.6986L103.85 36.4575L103.754 36.6986Z" fill="white"/>
<path d="M103.754 36.6986L103.85 36.4575L103.754 36.6986Z" fill="black" stroke="white" stroke-width="0.0468257"/>
<path d="M104.236 35.5415H105.129L104.863 34.9146H102.645H101.777L101.512 35.5415H102.38H104.14H104.236Z" fill="white"/>
<path d="M104.236 35.5415H105.129L104.863 34.9146H102.645H101.777L101.512 35.5415H102.38H104.14H104.236Z" fill="black" stroke="white" stroke-width="0.0468257"/>
<path d="M106.262 38.2903L105.997 37.6392H105.008H104.14L104.213 37.7839H102.453L102.501 37.6392H101.512L101.633 37.374H102.621L102.887 36.7471H101.898L102.019 36.4578H102.983L103.248 35.8308H102.284L102.38 35.5415L102.284 35.8308H101.392L101.126 36.4578H102.019L101.898 36.7471H101.03L100.765 37.374H101.633L101.512 37.6392H100.644L100.379 38.2903H101.247H106.262Z" fill="white"/>
<path d="M106.262 38.2903L105.997 37.6392H105.008H104.14L104.213 37.7839H102.453L102.501 37.6392H101.512L101.633 37.374H102.621L102.887 36.7471H101.898L102.019 36.4578H102.983L103.248 35.8308H102.284L102.38 35.5415L102.284 35.8308H101.392L101.126 36.4578H102.019L101.898 36.7471H101.03L100.765 37.374H101.633L101.512 37.6392H100.644L100.379 38.2903H101.247H106.262Z" fill="black" stroke="white" stroke-width="0.0468257"/>
<path d="M106.165 40.3882H105.297L105.562 41.0151H107.395L107.129 40.3882H106.165Z" fill="white"/>
<path d="M106.165 40.3882H105.297L105.562 41.0151H107.395L107.129 40.3882H106.165Z" fill="black" stroke="white" stroke-width="0.0468257"/>
<path d="M107.034 40.1227L106.768 39.4717H100.764H99.8964L99.2695 41.0148H101.102L101.367 40.3879H100.379H99.6553V40.1227H100.499H101.464L101.681 39.5922H104.96L105.177 40.1227H106.045H107.034Z" fill="white"/>
<path d="M107.034 40.1227L106.768 39.4717H100.764H99.8964L99.2695 41.0148H101.102L101.367 40.3879H100.379H99.6553V40.1227H100.499H101.464L101.681 39.5922H104.96L105.177 40.1227H106.045H107.034Z" fill="black" stroke="white" stroke-width="0.0468257"/>
<path d="M106.651 39.2067L106.386 38.5557H101.129H100.261L99.9961 39.2067H100.864H106.651Z" fill="white"/>
<path d="M106.651 39.2067L106.386 38.5557H101.129H100.261L99.9961 39.2067H100.864H106.651Z" fill="black" stroke="white" stroke-width="0.0468257"/>
<path d="M103.609 31.828L103.32 31.1528L103.055 31.828H103.609Z" fill="white"/>
<path d="M103.609 31.828L103.32 31.1528L103.055 31.828H103.609Z" fill="black" stroke="white" stroke-width="0.0468257"/>
<path d="M86.4174 36.4816V35.8306H81.8843H80.9922V36.4816H81.8843H86.4174Z" fill="white"/>
<path d="M86.4174 36.4816V35.8306H81.8843H80.9922V36.4816H81.8843H86.4174Z" fill="black" stroke="white" stroke-width="0.0468257"/>
<path d="M82.7524 35.5656V34.9146H81.8843H80.9922V35.5656H81.8843H82.7524Z" fill="white"/>
<path d="M82.7524 35.5656V34.9146H81.8843H80.9922V35.5656H81.8843H82.7524Z" fill="black" stroke="white" stroke-width="0.0468257"/>
<path d="M82.7524 34.6254V33.9985H81.8843H80.9922V34.6254H81.8843H82.7524Z" fill="white"/>
<path d="M82.7524 34.6254V33.9985H81.8843H80.9922V34.6254H81.8843H82.7524Z" fill="black" stroke="white" stroke-width="0.0468257"/>
<path d="M82.7524 33.7089H86.4174V33.082H81.8843H80.9922V33.7089H81.8843H82.7524Z" fill="white"/>
<path d="M82.7524 33.7089H86.4174V33.082H81.8843H80.9922V33.7089H81.8843H82.7524Z" fill="black" stroke="white" stroke-width="0.0468257"/>
<path d="M86.4174 32.8169V32.1177H80.9922V32.8169H81.8843H86.4174Z" fill="white"/>
<path d="M86.4174 32.8169V32.1177H80.9922V32.8169H81.8843H86.4174Z" fill="black" stroke="white" stroke-width="0.0468257"/>
<path d="M86.4174 40.1227V39.4717H81.8843H80.9922V40.1227H81.8843H86.4174Z" fill="white"/>
<path d="M86.4174 40.1227V39.4717H81.8843H80.9922V40.1227H81.8843H86.4174Z" fill="black" stroke="white" stroke-width="0.0468257"/>
<path d="M81.8843 40.3882H80.9922V41.0151H86.4174V40.3882H81.8843Z" fill="white"/>
<path d="M81.8843 40.3882H80.9922V41.0151H86.4174V40.3882H81.8843Z" fill="black" stroke="white" stroke-width="0.0468257"/>
<path d="M82.7524 39.2067V38.5557H81.8843H80.9922V39.2067H81.8843H82.7524Z" fill="white"/>
<path d="M82.7524 39.2067V38.5557H81.8843H80.9922V39.2067H81.8843H82.7524Z" fill="black" stroke="white" stroke-width="0.0468257"/>
<path d="M82.7524 38.2902V37.6392H81.8843H80.9922V38.2902H81.8843H82.7524Z" fill="white"/>
<path d="M82.7524 38.2902V37.6392H81.8843H80.9922V38.2902H81.8843H82.7524Z" fill="black" stroke="white" stroke-width="0.0468257"/>
<path d="M82.7524 37.374H86.4174V36.7471H81.8843H80.9922V37.374H81.8843H82.7524Z" fill="white"/>
<path d="M82.7524 37.374H86.4174V36.7471H81.8843H80.9922V37.374H81.8843H82.7524Z" fill="black" stroke="white" stroke-width="0.0468257"/>
<path d="M95.6048 35.8306H94.592C94.592 35.8065 94.5679 35.7824 94.5679 35.7583C94.5679 35.8065 94.592 35.8306 94.592 35.8306H93.6999C93.6999 35.8306 93.6999 35.8065 93.6758 35.7824C93.7481 35.9994 93.7722 36.2164 93.7722 36.4576H94.6644H95.6289C95.6289 36.4093 95.6289 36.3852 95.6289 36.337C95.6289 36.1682 95.6289 35.9994 95.6048 35.8306Z" fill="white"/>
<path d="M95.6048 35.8306H94.592C94.592 35.8065 94.5679 35.7824 94.5679 35.7583C94.5679 35.8065 94.592 35.8306 94.592 35.8306H93.6999C93.6999 35.8306 93.6999 35.8065 93.6758 35.7824C93.7481 35.9994 93.7722 36.2164 93.7722 36.4576H94.6644H95.6289C95.6289 36.4093 95.6289 36.3852 95.6289 36.337C95.6289 36.1682 95.6289 35.9994 95.6048 35.8306Z" fill="black"/>
<path d="M94.592 35.8306H95.6048C95.6289 35.9994 95.6289 36.1682 95.6289 36.337C95.6289 36.3852 95.6289 36.4093 95.6289 36.4576H94.6644H93.7722C93.7722 36.2164 93.7481 35.9994 93.6758 35.7824C93.6999 35.8065 93.6999 35.8306 93.6999 35.8306H94.592ZM94.592 35.8306C94.592 35.8065 94.5679 35.7824 94.5679 35.7583C94.5679 35.8065 94.592 35.8306 94.592 35.8306Z" stroke="white" stroke-width="0.0468257"/>
<path d="M94.4506 37.4946C94.4265 37.5429 94.4023 37.5911 94.4023 37.6152" stroke="white" stroke-width="0.0468257"/>
<path d="M93.8941 32.8169C93.3636 32.3829 92.8332 32.1177 92.4715 32.1177C90.8078 32.1177 88.3242 32.1177 88.3242 32.1177V32.8169H89.2164H93.8941Z" fill="white"/>
<path d="M93.8941 32.8169C93.3636 32.3829 92.8332 32.1177 92.4715 32.1177C90.8078 32.1177 88.3242 32.1177 88.3242 32.1177V32.8169H89.2164H93.8941Z" fill="black" stroke="white" stroke-width="0.0468257"/>
<path d="M94.738 33.7087C94.5693 33.4675 94.3764 33.2505 94.2076 33.0576H89.2164H88.3242V33.7087H89.2164H94.738Z" fill="white"/>
<path d="M94.738 33.7087C94.5693 33.4675 94.3764 33.2505 94.2076 33.0576H89.2164H88.3242V33.7087H89.2164H94.738Z" fill="black" stroke="white" stroke-width="0.0468257"/>
<path d="M94.6664 36.7471H93.7742C93.7501 36.9641 93.7019 37.1811 93.6055 37.3981H94.4976H95.5344C95.5827 37.1811 95.6068 36.9641 95.6309 36.7471H94.6664Z" fill="white"/>
<path d="M94.6664 36.7471H93.7742C93.7501 36.9641 93.7019 37.1811 93.6055 37.3981H94.4976H95.5344C95.5827 37.1811 95.6068 36.9641 95.6309 36.7471H94.6664Z" fill="black" stroke="white" stroke-width="0.0468257"/>
<path d="M95.3647 34.9146H94.1109H93.2188C93.3634 35.1074 93.484 35.3244 93.5804 35.5656H94.4726H95.5335C95.5094 35.3244 95.4371 35.1074 95.3647 34.9146Z" fill="white"/>
<path d="M95.3647 34.9146H94.1109H93.2188C93.3634 35.1074 93.484 35.3244 93.5804 35.5656H94.4726H95.5335C95.5094 35.3244 95.4371 35.1074 95.3647 34.9146Z" fill="black" stroke="white" stroke-width="0.0468257"/>
<path d="M95.4613 37.6392H94.3763H93.4841C93.3636 37.8562 93.243 38.0732 93.0742 38.2902H93.9664H95.2202C95.3166 38.0732 95.389 37.8562 95.4613 37.6392Z" fill="white"/>
<path d="M95.4613 37.6392H94.3763H93.4841C93.3636 37.8562 93.243 38.0732 93.0742 38.2902H93.9664H95.2202C95.3166 38.0732 95.389 37.8562 95.4613 37.6392Z" fill="black" stroke="white" stroke-width="0.0468257"/>
<path d="M91.6992 33.9985C92.1332 34.0468 92.6155 34.2638 92.9772 34.6496H93.8693C93.9658 34.746 94.0381 34.8183 94.0863 34.8666C94.0381 34.8183 93.9658 34.7219 93.8934 34.6496H95.2678C95.1714 34.4326 95.0508 34.2155 94.9302 33.9985H91.6992Z" fill="white"/>
<path d="M91.6992 33.9985C92.1332 34.0468 92.6155 34.2638 92.9772 34.6496H93.8693C93.9658 34.746 94.0381 34.8183 94.0863 34.8666C94.0381 34.8183 93.9658 34.7219 93.8934 34.6496H95.2678C95.1714 34.4326 95.0508 34.2155 94.9302 33.9985H91.6992Z" fill="black" stroke="white" stroke-width="0.0468257"/>
<path d="M93.9188 38.3384C93.8465 38.4107 93.7982 38.4831 93.75 38.5072C93.8223 38.459 93.8706 38.4107 93.9188 38.3384Z" fill="white"/>
<path d="M93.9188 38.3384C93.8465 38.4107 93.7982 38.4831 93.75 38.5072C93.8223 38.459 93.8706 38.4107 93.9188 38.3384Z" fill="black" stroke="white" stroke-width="0.0468257"/>
<path d="M93.87 40.1227C94.1111 39.9298 94.3281 39.7128 94.521 39.4717H89.2164H88.3242V40.1227H89.2164H93.87Z" fill="white"/>
<path d="M93.87 40.1227C94.1111 39.9298 94.3281 39.7128 94.521 39.4717H89.2164H88.3242V40.1227H89.2164H93.87Z" fill="black" stroke="white" stroke-width="0.0468257"/>
<path d="M94.7139 39.2067C94.8586 38.9897 94.9792 38.7727 95.0997 38.5557H93.7253H92.8332C92.4233 38.9415 91.9651 39.2067 91.5311 39.2067H90.1326V38.5557H89.2164H88.3242V39.2067H89.2164H94.7139Z" fill="white"/>
<path d="M94.7139 39.2067C94.8586 38.9897 94.9792 38.7727 95.0997 38.5557H93.7253H92.8332C92.4233 38.9415 91.9651 39.2067 91.5311 39.2067H90.1326V38.5557H89.2164H88.3242V39.2067H89.2164H94.7139Z" fill="black" stroke="white" stroke-width="0.0468257"/>
<path d="M89.2164 40.3882H88.3242V41.0151H91.4347C92.2063 41.0151 92.9055 40.774 93.5083 40.3882H89.2164Z" fill="white"/>
<path d="M89.2164 40.3882H88.3242V41.0151H91.4347C92.2063 41.0151 92.9055 40.774 93.5083 40.3882H89.2164Z" fill="black" stroke="white" stroke-width="0.0468257"/>
<path d="M90.1085 36.4575V35.8306H89.2164H88.3242V36.4575H89.2164H90.1085Z" fill="white"/>
<path d="M90.1085 36.4575V35.8306H89.2164H88.3242V36.4575H89.2164H90.1085Z" fill="black" stroke="white" stroke-width="0.0468257"/>
<path d="M90.1085 35.5415V34.9146H89.2164H88.3242V35.5415H89.2164H90.1085Z" fill="white"/>
<path d="M90.1085 35.5415V34.9146H89.2164H88.3242V35.5415H89.2164H90.1085Z" fill="black" stroke="white" stroke-width="0.0468257"/>
<path d="M90.1085 34.6254V33.9985H89.2164H88.3242V34.6254H89.2164H90.1085Z" fill="white"/>
<path d="M90.1085 34.6254V33.9985H89.2164H88.3242V34.6254H89.2164H90.1085Z" fill="black" stroke="white" stroke-width="0.0468257"/>
<path d="M90.1085 38.2902V37.6392H89.2164H88.3242V38.2902H89.2164H90.1085Z" fill="white"/>
<path d="M90.1085 38.2902V37.6392H89.2164H88.3242V38.2902H89.2164H90.1085Z" fill="black" stroke="white" stroke-width="0.0468257"/>
<path d="M90.1085 37.374V36.7471H89.2164H88.3242V37.374H89.2164H90.1085Z" fill="white"/>
<path d="M90.1085 37.374V36.7471H89.2164H88.3242V37.374H89.2164H90.1085Z" fill="black" stroke="white" stroke-width="0.0468257"/>
<path d="M79.1124 31.9003V31.4663L78.7266 31.9003H79.1124Z" fill="white"/>
<path d="M79.1124 31.9003V31.4663L78.7266 31.9003H79.1124Z" fill="black" stroke="white" stroke-width="0.0468257"/>
<path d="M70.0469 31.563V31.9006H70.3603L70.0469 31.563Z" fill="white"/>
<path d="M70.0469 31.563V31.9006H70.3603L70.0469 31.563Z" fill="black" stroke="white" stroke-width="0.0468257"/>
<path d="M72.9162 34.6254L72.3134 33.9985H70.939H70.0469V34.6254H70.939H72.9162Z" fill="white"/>
<path d="M72.9162 34.6254L72.3134 33.9985H70.939H70.0469V34.6254H70.939H72.9162Z" fill="black" stroke="white" stroke-width="0.0468257"/>
<path d="M73.7601 35.5415L73.1573 34.9146H70.939H70.0469V35.5415H70.939H73.7601Z" fill="white"/>
<path d="M73.7601 35.5415L73.1573 34.9146H70.939H70.0469V35.5415H70.939H73.7601Z" fill="black" stroke="white" stroke-width="0.0468257"/>
<path d="M71.8553 37.3737V36.7227H70.939H70.0469V37.3737H70.939H71.8553Z" fill="white"/>
<path d="M71.8553 37.3737V36.7227H70.939H70.0469V37.3737H70.939H71.8553Z" fill="black" stroke="white" stroke-width="0.0468257"/>
<path d="M71.8553 38.2902V37.6392H70.939H70.0469V38.2902H70.939H71.8553Z" fill="white"/>
<path d="M71.8553 38.2902V37.6392H70.939H70.0469V38.2902H70.939H71.8553Z" fill="black" stroke="white" stroke-width="0.0468257"/>
<path d="M72.0482 33.7089L71.4454 33.082H70.939H70.0469V33.7089H70.939H72.0482Z" fill="white"/>
<path d="M72.0482 33.7089L71.4454 33.082H70.939H70.0469V33.7089H70.939H72.0482Z" fill="black" stroke="white" stroke-width="0.0468257"/>
<path d="M71.2043 32.8169L70.5532 32.1177H70.0469V32.8169H70.939H71.2043Z" fill="white"/>
<path d="M71.2043 32.8169L70.5532 32.1177H70.0469V32.8169H70.939H71.2043Z" fill="black" stroke="white" stroke-width="0.0468257"/>
<path d="M78.7502 32.8169H79.1119V32.1177H78.5332L77.9062 32.8169H78.7502Z" fill="white"/>
<path d="M78.7502 32.8169H79.1119V32.1177H78.5332L77.9062 32.8169H78.7502Z" fill="black" stroke="white" stroke-width="0.0468257"/>
<path d="M71.8553 39.2067V38.5557H70.939H70.0469V39.2067H70.939H71.8553Z" fill="white"/>
<path d="M71.8553 39.2067V38.5557H70.939H70.0469V39.2067H70.939H71.8553Z" fill="black" stroke="white" stroke-width="0.0468257"/>
<path d="M79.1115 33.9985H77.6648H76.8209L76.2422 34.6254H77.0861H79.1115V33.9985Z" fill="white"/>
<path d="M79.1115 33.9985H77.6648H76.8209L76.2422 34.6254H77.0861H79.1115V33.9985Z" fill="black" stroke="white" stroke-width="0.0468257"/>
<path d="M76.2665 35.5413H79.1117V34.9144H76.8452L77.0863 34.625L76.8452 34.9144H76.0012L75.3984 35.5413H76.2665Z" fill="white"/>
<path d="M76.2665 35.5413H79.1117V34.9144H76.8452L77.0863 34.625L76.8452 34.9144H76.0012L75.3984 35.5413H76.2665Z" fill="black" stroke="white" stroke-width="0.0468257"/>
<path d="M79.112 33.7089V33.082H78.5092H77.6412L77.0625 33.7089H77.9305H79.112Z" fill="white"/>
<path d="M79.112 33.7089V33.082H78.5092H77.6412L77.0625 33.7089H77.9305H79.112Z" fill="black" stroke="white" stroke-width="0.0468257"/>
<path d="M71.8553 40.1227V39.4717H70.939H70.0469V40.1227H70.939H71.8553Z" fill="white"/>
<path d="M71.8553 40.1227V39.4717H70.939H70.0469V40.1227H70.939H71.8553Z" fill="black" stroke="white" stroke-width="0.0468257"/>
<path d="M79.1124 40.1227V39.4717H78.1962H77.3281V40.1227H78.1962H79.1124Z" fill="white"/>
<path d="M79.1124 40.1227V39.4717H78.1962H77.3281V40.1227H78.1962H79.1124Z" fill="black" stroke="white" stroke-width="0.0468257"/>
<path d="M78.1962 38.5557H77.3281V39.2067H78.1962H79.1124V38.5557H78.1962Z" fill="white"/>
<path d="M78.1962 38.5557H77.3281V39.2067H78.1962H79.1124V38.5557H78.1962Z" fill="black" stroke="white" stroke-width="0.0468257"/>
<path d="M78.1962 40.3882H77.3281V41.0151H79.1124V40.3882H78.1962Z" fill="white"/>
<path d="M78.1962 40.3882H77.3281V41.0151H79.1124V40.3882H78.1962Z" fill="black" stroke="white" stroke-width="0.0468257"/>
<path d="M78.1962 36.7227H77.5692H77.3281V37.3737H78.1962H79.1124V36.7227H78.1962Z" fill="white"/>
<path d="M78.1962 36.7227H77.5692H77.3281V37.3737H78.1962H79.1124V36.7227H78.1962Z" fill="black" stroke="white" stroke-width="0.0468257"/>
<path d="M78.1962 37.6392H77.3281V38.2902H78.1962H79.1124V37.6392H78.1962Z" fill="white"/>
<path d="M78.1962 37.6392H77.3281V38.2902H78.1962H79.1124V37.6392H78.1962Z" fill="black" stroke="white" stroke-width="0.0468257"/>
<path d="M74.8928 38.5557H73.9766L74.6035 39.279L75.2063 38.5557H74.8928Z" fill="white"/>
<path d="M74.8928 38.5557H73.9766L74.6035 39.279L75.2063 38.5557H74.8928Z" fill="black" stroke="white" stroke-width="0.0468257"/>
<path d="M76.1955 37.3739L76.7259 36.7229H73.302L73.085 36.4577H76.9429L77.3287 36.0237V36.4577H77.7869L77.6904 36.6024L77.811 36.4577H78.1968H79.113V35.8066H76.0267H75.1586L74.6041 36.4336L74.0254 35.8066H70.939H70.0469V36.4577H70.939H71.8553V36.1201L72.1446 36.4577H72.7474H73.085L73.302 36.7229H72.7474H72.3857L72.9403 37.3739H73.8807L74.0977 37.6392L73.8807 37.3739H76.1955Z" fill="white"/>
<path d="M76.1955 37.3739L76.7259 36.7229H73.302L73.085 36.4577H76.9429L77.3287 36.0237V36.4577H77.7869L77.6904 36.6024L77.811 36.4577H78.1968H79.113V35.8066H76.0267H75.1586L74.6041 36.4336L74.0254 35.8066H70.939H70.0469V36.4577H70.939H71.8553V36.1201L72.1446 36.4577H72.7474H73.085L73.302 36.7229H72.7474H72.3857L72.9403 37.3739H73.8807L74.0977 37.6392L73.8807 37.3739H76.1955Z" fill="black" stroke="white" stroke-width="0.0468257"/>
<path d="M70.939 40.3882H70.0469V41.0151H71.8553V40.3882H70.939Z" fill="white"/>
<path d="M70.939 40.3882H70.0469V41.0151H71.8553V40.3882H70.939Z" fill="black" stroke="white" stroke-width="0.0468257"/>
<path d="M75.4221 38.2902L75.9526 37.6392H74.0959H73.1797L73.7343 38.2902H74.6505L74.8916 38.5554L74.6505 38.2902H75.4221Z" fill="white"/>
<path d="M75.4221 38.2902L75.9526 37.6392H74.0959H73.1797L73.7343 38.2902H74.6505L74.8916 38.5554L74.6505 38.2902H75.4221Z" fill="black" stroke="white" stroke-width="0.0468257"/>
<path d="M98.7896 36.4575V35.8306H97.8251H96.957V36.4575H97.8251H98.7896Z" fill="white"/>
<path d="M98.7896 36.4575V35.8306H97.8251H96.957V36.4575H97.8251H98.7896Z" fill="black" stroke="white" stroke-width="0.0468257"/>
<path d="M98.7896 34.6254V33.9985H97.8251H96.957V34.6254H97.8251H98.7896Z" fill="white"/>
<path d="M98.7896 34.6254V33.9985H97.8251H96.957V34.6254H97.8251H98.7896Z" fill="black" stroke="white" stroke-width="0.0468257"/>
<path d="M98.7896 32.8169V32.1177H97.8251H96.957V32.8169H97.8251H98.7896Z" fill="white"/>
<path d="M98.7896 32.8169V32.1177H97.8251H96.957V32.8169H97.8251H98.7896Z" fill="black" stroke="white" stroke-width="0.0468257"/>
<path d="M98.7896 33.7089V33.082H97.8251H96.957V33.7089H97.8251H98.7896Z" fill="white"/>
<path d="M98.7896 33.7089V33.082H97.8251H96.957V33.7089H97.8251H98.7896Z" fill="black" stroke="white" stroke-width="0.0468257"/>
<path d="M98.7896 35.5415V34.9146H97.8251H96.957V35.5415H97.8251H98.7896Z" fill="white"/>
<path d="M98.7896 35.5415V34.9146H97.8251H96.957V35.5415H97.8251H98.7896Z" fill="black" stroke="white" stroke-width="0.0468257"/>
<path d="M98.7896 40.1227V39.4717H97.8251H96.957V40.1227H97.8251H98.7896Z" fill="white"/>
<path d="M98.7896 40.1227V39.4717H97.8251H96.957V40.1227H97.8251H98.7896Z" fill="black" stroke="white" stroke-width="0.0468257"/>
<path d="M97.8251 40.3882H96.957V41.0151H98.7896V40.3882H97.8251Z" fill="white"/>
<path d="M97.8251 40.3882H96.957V41.0151H98.7896V40.3882H97.8251Z" fill="black" stroke="white" stroke-width="0.0468257"/>
<path d="M98.7896 38.2902V37.6392H97.8251H96.957V38.2902H97.8251H98.7896Z" fill="white"/>
<path d="M98.7896 38.2902V37.6392H97.8251H96.957V38.2902H97.8251H98.7896Z" fill="black" stroke="white" stroke-width="0.0468257"/>
<path d="M98.7896 37.374V36.7471H97.8251H96.957V37.374H97.8251H98.7896Z" fill="white"/>
<path d="M98.7896 37.374V36.7471H97.8251H96.957V37.374H97.8251H98.7896Z" fill="black" stroke="white" stroke-width="0.0468257"/>
<path d="M98.7896 39.2067V38.5557H97.8251H96.957V39.2067H97.8251H98.7896Z" fill="white"/>
<path d="M98.7896 39.2067V38.5557H97.8251H96.957V39.2067H97.8251H98.7896Z" fill="black" stroke="white" stroke-width="0.0468257"/>
<path d="M78.1953 40.3878V40.1226H80.0037V40.3878H78.1953Z" fill="black"/>
<path d="M78.1953 39.4718V39.2065H80.0037V39.4718H78.1953Z" fill="black"/>
<path d="M78.1953 38.5553V38.29H80.0037V38.5553H78.1953Z" fill="black"/>
<path d="M78.1953 37.6393V37.374H80.0037V37.6393H78.1953Z" fill="black"/>
<path d="M78.1953 36.7227V36.4575H80.0037V36.7227H78.1953Z" fill="black"/>
<path d="M76.0273 35.8067L76.2685 35.5415H80.0058V35.8067H76.0273Z" fill="black"/>
<path d="M76.8438 34.9144L77.0849 34.625H80.0024V34.9144H76.8438Z" fill="black"/>
<path d="M77.6641 33.9978L77.9293 33.7085H80.0029V33.9978H77.6641Z" fill="black"/>
<path d="M78.5078 33.0822L78.7489 32.8169H80.0028V33.0822H78.5078Z" fill="black"/>
<path d="M79.375 32.1174L79.5679 31.9004H80.0019V32.1174H79.375Z" fill="black"/>
<path d="M73.299 36.7227L73.082 36.4575H77.7839L77.5669 36.7227H73.299Z" fill="black"/>
<path d="M74.0959 37.6393L73.8789 37.374H77.0376L76.8206 37.6393H74.0959Z" fill="black"/>
<path d="M74.8896 38.5553L74.6484 38.29H76.264L76.0469 38.5553H74.8896Z" fill="black"/>
<path d="M72.7459 40.3878V40.1226H70.9375V40.3878H72.7459Z" fill="black"/>
<path d="M72.7459 39.4718V39.2065H70.9375V39.4718H72.7459Z" fill="black"/>
<path d="M72.7459 38.5553V38.29H70.9375V38.5553H72.7459Z" fill="black"/>
<path d="M72.7459 37.6393V37.374H70.9375V37.6393H72.7459Z" fill="black"/>
<path d="M72.7459 36.7227V36.4575H70.9375V36.7227H72.7459Z" fill="black"/>
<path d="M74.9401 35.8067L74.6749 35.5415H70.9375V35.8067H74.9401Z" fill="black"/>
<path d="M74.0962 34.9144L73.8551 34.625H70.9375V34.9144H74.0962Z" fill="black"/>
<path d="M73.2764 33.9978L73.0353 33.7085H70.9375V33.9978H73.2764Z" fill="black"/>
<path d="M72.4325 33.0822L72.1913 32.8169H70.9375V33.0822H72.4325Z" fill="black"/>
<path d="M71.5644 32.1174L71.3715 31.9004H70.9375V32.1174H71.5644Z" fill="black"/>
<path d="M81.8828 32.1174V31.9004H87.3322V32.1174H81.8828Z" fill="black"/>
<path d="M81.8828 33.0822V32.8169H87.3322V33.0822H81.8828Z" fill="black"/>
<path d="M81.8828 33.9978V33.7085H83.6671V33.9978H81.8828Z" fill="black"/>
<path d="M81.8828 34.9144V34.625H83.6671V34.9144H81.8828Z" fill="black"/>
<path d="M81.8828 35.8307V35.5654H87.3322V35.8307H81.8828Z" fill="black"/>
<path d="M81.8828 36.7472V36.4819H87.3322V36.7472H81.8828Z" fill="black"/>
<path d="M81.8828 37.6393V37.374H83.6671V37.6393H81.8828Z" fill="black"/>
<path d="M81.8828 38.5553V38.29H83.6671V38.5553H81.8828Z" fill="black"/>
<path d="M81.8828 39.4718V39.2065H87.3322V39.4718H81.8828Z" fill="black"/>
<path d="M81.8828 40.3878V40.1226H87.3322V40.3878H81.8828Z" fill="black"/>
<path d="M94.7854 32.8169H89.1914V33.0822H95.0748C94.9783 32.9616 94.8819 32.8892 94.7854 32.8169Z" fill="black"/>
<path d="M95.6293 33.7085H89.1914V33.9737H95.8222C95.7499 33.8773 95.6293 33.7085 95.6293 33.7085Z" fill="black"/>
<path d="M89.2148 34.9144V34.625H90.9991V34.9144H89.2148Z" fill="black"/>
<path d="M89.2148 35.8308V35.5415H90.9991V35.8308H89.2148Z" fill="black"/>
<path d="M89.2148 36.7469V36.4575H90.9991V36.7469H89.2148Z" fill="black"/>
<path d="M89.2148 37.6393V37.374H90.9991V37.6393H89.2148Z" fill="black"/>
<path d="M89.2148 38.5553V38.29H90.9991V38.5553H89.2148Z" fill="black"/>
<path d="M95.4117 39.4718H89.2148V39.2065H95.6046C95.5081 39.3512 95.4117 39.4718 95.4117 39.4718Z" fill="black"/>
<path d="M94.7372 40.1226H89.1914V40.3878H94.3755C94.5684 40.2913 94.7372 40.1226 94.7372 40.1226Z" fill="black"/>
<path d="M96.2543 34.9146H94.1083C94.1083 34.9146 94.0119 34.77 93.8672 34.6494H96.1337C96.2061 34.7459 96.2543 34.9146 96.2543 34.9146Z" fill="black"/>
<path d="M96.4974 35.8307H94.5925C94.5684 35.7583 94.5443 35.686 94.4961 35.5654H96.4492C96.4733 35.6619 96.4974 35.8307 96.4974 35.8307Z" fill="black"/>
<path d="M94.6641 36.7469V36.4575H96.5207V36.7469H94.6641Z" fill="black"/>
<path d="M96.3522 37.6393H94.375C94.3991 37.6151 94.4473 37.4705 94.4956 37.374H96.4245C96.4004 37.4705 96.3522 37.6393 96.3522 37.6393Z" fill="black"/>
<path d="M93.7227 38.5553H96.0133C96.0374 38.507 96.0856 38.3865 96.1339 38.29H93.9879C93.8673 38.4106 93.8191 38.4588 93.7227 38.5553Z" fill="black"/>
<path d="M93.4351 32.1174H89.1914V31.9004H92.3742C92.9047 31.9004 93.4351 32.1174 93.4351 32.1174Z" fill="black"/>
<path d="M97.8242 34.9144V34.625H99.6567V34.9144H97.8242Z" fill="black"/>
<path d="M97.8242 35.8308V35.5415H99.6567V35.8308H97.8242Z" fill="black"/>
<path d="M97.8242 36.7469V36.4575H99.6567V36.7469H97.8242Z" fill="black"/>
<path d="M97.8242 37.6393V37.374H99.6567V37.6393H97.8242Z" fill="black"/>
<path d="M97.8242 38.5553V38.29H99.6567V38.5553H97.8242Z" fill="black"/>
<path d="M97.8242 39.4718V39.2065H99.6567V39.4718H97.8242Z" fill="black"/>
<path d="M97.8242 40.3878V40.1226H99.6567V40.3878H97.8242Z" fill="black"/>
<path d="M97.8242 33.9978V33.7085H99.6567V33.9978H97.8242Z" fill="black"/>
<path d="M97.8242 33.0822V32.8169H99.6567V33.0822H97.8242Z" fill="black"/>
<path d="M97.8242 32.1175V31.8281H99.6567V32.1175H97.8242Z" fill="black"/>
<path d="M106.167 40.3878L106.047 40.1226H107.879L108 40.3878H106.167Z" fill="black"/>
<path d="M100.766 39.4718L100.862 39.2065H107.517L107.638 39.4718H100.766Z" fill="black"/>
<path d="M101.125 38.5553L101.246 38.29H107.129L107.249 38.5553H101.125Z" fill="black"/>
<path d="M105.007 37.6393L104.91 37.374H106.743L106.863 37.6393H105.007Z" fill="black"/>
<path d="M104.644 36.7469L104.523 36.4575H106.356L106.477 36.7469H104.644Z" fill="black"/>
<path d="M104.261 35.8308L104.141 35.5415H105.997L106.118 35.8308H104.261Z" fill="black"/>
<path d="M102.645 34.9144L102.765 34.625H105.634L105.731 34.9144H102.645Z" fill="black"/>
<path d="M103.368 37.6393L103.465 37.374H101.632L101.512 37.6393H103.368Z" fill="black"/>
<path d="M103.731 36.7469L103.852 36.4575H102.019L101.898 36.7469H103.731Z" fill="black"/>
<path d="M104.118 35.8308L104.238 35.5415H102.382L102.285 35.8308H104.118Z" fill="black"/>
<path d="M100.379 40.3878L100.499 40.1226H102.332L102.236 40.3878H100.379Z" fill="black"/>
<path d="M103.031 33.9978L103.152 33.7085H105.25L105.37 33.9978H103.031Z" fill="black"/>
<path d="M103.395 33.0822L103.515 32.8169H104.865L104.986 33.0822H103.395Z" fill="black"/>
<path d="M103.801 32.1175L103.921 31.8281H104.476L104.596 32.1175H103.801Z" fill="black"/>
</svg>
