<svg width="112" height="31" viewBox="0 0 112 31" fill="none" xmlns="http://www.w3.org/2000/svg">
<path fill-rule="evenodd" clip-rule="evenodd" d="M82.9227 3.01403H84.1766V17.2884C83.7184 17.2884 83.2362 17.2884 82.7781 17.2884C82.7298 17.2884 82.6575 17.2161 82.6093 17.1437C82.3199 16.7338 82.0547 16.2998 81.7895 15.8899C81.5242 15.4559 81.259 15.0219 80.9696 14.612C80.7044 14.2262 80.4392 13.8404 80.1981 13.4546C79.7399 12.7553 79.2818 12.0802 78.8478 11.3809C78.462 10.7781 78.0762 10.1994 77.6663 9.59664C77.2564 8.96972 76.8224 8.31869 76.4125 7.66767C76.0267 7.06486 75.6168 6.46206 75.2068 5.85926C75.0863 5.69047 74.9898 5.49757 74.8934 5.30468C74.8452 5.23234 74.7728 5.16001 74.6764 5.03945V17.2643H73.3984V2.98992C73.8566 2.98992 74.3147 2.9658 74.7728 3.01403C74.9175 3.03814 75.0381 3.27926 75.1586 3.42393C75.448 3.88207 75.7373 4.3643 76.0508 4.82244C76.5089 5.52169 76.967 6.19683 77.4252 6.89608C77.811 7.49888 78.2209 8.10169 78.6067 8.70449C79.0166 9.3314 79.4265 9.95832 79.8364 10.5611C80.2463 11.188 80.6562 11.815 81.0661 12.4419C81.476 13.0688 81.8859 13.6957 82.2958 14.3226C82.4887 14.612 82.7057 14.9013 82.9227 15.2148V3.01403Z" fill="#010202"/>
<path fill-rule="evenodd" clip-rule="evenodd" d="M98.8356 9.86194C98.8838 8.46343 99.125 7.08904 99.8242 5.78699C100.21 5.08773 100.765 4.53316 101.343 3.95447C101.85 3.44811 102.477 3.20699 103.128 3.01409C103.538 2.89353 103.972 2.79708 104.381 2.72475C104.912 2.67652 105.442 2.6283 105.973 2.65241C106.431 2.67652 106.889 2.79708 107.323 2.91764C107.757 3.03821 108.191 3.15877 108.601 3.35166C108.939 3.52045 109.228 3.78568 109.541 4.0268C110.048 4.46082 110.506 4.94306 110.843 5.52175C111.398 6.48624 111.76 7.54717 111.88 8.65633C112.025 9.93427 112.025 11.2122 111.736 12.466C111.567 13.2859 111.277 14.0816 110.819 14.8049C110.506 15.3113 110.144 15.7935 109.686 16.2034C109.493 16.3963 109.228 16.4928 109.011 16.6857C108.577 17.0715 108.046 17.2644 107.516 17.4573C106.986 17.626 106.455 17.6984 105.9 17.6984C105.274 17.6743 104.647 17.6984 104.044 17.6502C103.658 17.6019 103.272 17.4573 102.886 17.3126C102.645 17.2403 102.428 17.1197 102.187 16.9991C102.043 16.9268 101.922 16.8062 101.801 16.7339C101.15 16.3481 100.596 15.8417 100.186 15.2148C99.7278 14.4915 99.342 13.744 99.1491 12.9001C98.908 11.8874 98.8115 10.8988 98.8356 9.86194ZM106.069 3.80979V3.76157H104.719V3.80979C104.791 3.80979 104.84 3.83391 104.912 3.83391C104.912 3.80979 104.888 3.78568 104.888 3.78568C104.406 3.90624 103.875 3.97858 103.417 4.17147C102.549 4.55727 101.777 5.08774 101.295 5.95577C101.03 6.46213 100.716 6.94437 100.572 7.49895C100.21 8.65633 100.138 9.86194 100.234 11.0675C100.306 11.9597 100.523 12.8518 100.861 13.6958C101.054 14.178 101.392 14.5638 101.705 14.9737C102.235 15.673 102.935 16.1552 103.755 16.3481C104.574 16.5651 105.442 16.6133 106.286 16.4687C106.648 16.3963 107.01 16.3722 107.347 16.2516C108.071 15.9382 108.722 15.5283 109.18 14.8531C109.349 14.612 109.59 14.395 109.71 14.1298C109.951 13.6234 110.192 13.093 110.337 12.5384C110.482 11.9597 110.554 11.3569 110.602 10.7541C110.675 9.40381 110.554 8.07764 109.975 6.82381C109.686 6.19689 109.373 5.59409 108.818 5.11185C107.974 4.36437 106.986 3.90624 105.828 3.85802C105.925 3.8339 105.997 3.80979 106.069 3.80979Z" fill="#010202"/>
<path fill-rule="evenodd" clip-rule="evenodd" d="M46.8755 12.9484H48.1293C48.1775 13.3342 48.2016 13.72 48.2981 14.0817C48.5633 15.0221 49.1179 15.7696 50.0824 16.1554C50.854 16.4688 51.6497 16.517 52.4454 16.4929C52.9276 16.4688 53.4099 16.4688 53.8439 16.3241C54.6396 16.0589 55.2906 15.6008 55.58 14.7569C55.8934 13.7924 55.8934 12.8761 55.2424 12.0322C54.9771 11.6946 54.5914 11.5258 54.2297 11.3088C53.6992 10.9954 53.0964 10.8266 52.4936 10.7301C52.0596 10.6578 51.6497 10.489 51.2398 10.3926C50.9745 10.3202 50.6852 10.272 50.42 10.1997C49.8413 10.0068 49.2143 9.83798 48.7321 9.45219C48.3704 9.18695 47.9846 8.94583 47.7194 8.56004C47.2613 7.83667 47.1648 7.04098 47.1889 6.19705C47.213 5.28079 47.623 4.55742 48.2258 3.88229C48.5633 3.5206 48.9732 3.30359 49.4072 3.13481C49.8895 2.9178 50.3717 2.77313 50.9022 2.74902C51.4568 2.7249 52.0114 2.65257 52.5659 2.70079C53.2893 2.77313 53.9885 2.99014 54.6637 3.3036C55.4353 3.66528 55.8452 4.29219 56.231 4.96733C56.5927 5.59425 56.665 6.31761 56.665 7.04098H55.3629C55.3388 6.79985 55.3147 6.55873 55.2665 6.31761C55.0977 5.28079 54.4949 4.58154 53.5304 4.17163C52.7588 3.83406 51.939 3.88229 51.1433 3.9064C50.5164 3.93051 49.9377 4.14752 49.4314 4.5092C48.6598 5.08789 48.4428 5.88359 48.5151 6.77574C48.5874 7.692 49.0456 8.27069 49.8895 8.65649C50.4923 8.92172 51.1192 8.96994 51.722 9.16284C51.9631 9.23518 52.2284 9.25929 52.4695 9.35574C53.4581 9.71742 54.519 9.93443 55.4112 10.5131C55.6764 10.6819 55.9899 10.8507 56.1828 11.0918C56.6891 11.6464 56.9784 12.3215 57.0508 13.069C57.1231 13.7683 57.0749 14.4434 56.8338 15.0944C56.665 15.6249 56.3757 16.1071 55.9175 16.4929C55.4353 16.8787 54.9771 17.2645 54.3502 17.4815C53.8198 17.6503 53.3134 17.7709 52.7588 17.7709C52.0596 17.7709 51.3844 17.795 50.6852 17.7226C50.01 17.6503 49.3349 17.4574 48.8044 17.0716C48.1534 16.6135 47.5265 16.1312 47.213 15.3355C46.996 14.5157 46.8272 13.7683 46.8755 12.9484ZM52.3248 3.80995V3.76172H51.3121V3.80995H52.3248Z" fill="#010202"/>
<path fill-rule="evenodd" clip-rule="evenodd" d="M5.35156 7.86056H5.6168C6.17138 7.86056 6.75007 7.86056 7.32876 7.86056C8.43792 7.83645 9.57119 7.81234 10.7045 7.76412C11.3073 7.74 11.9101 7.69178 12.537 7.64355C12.6093 8.22225 12.6817 8.75271 12.754 9.28318C12.8987 10.32 13.0433 11.3568 13.2121 12.3695C13.2603 12.7553 13.3327 13.117 13.405 13.5028C13.4291 13.6716 13.3086 13.6957 13.188 13.7439C12.7299 13.8645 12.2717 13.985 11.8136 14.1056C11.5243 14.1779 11.2349 14.2262 10.9697 14.2985C10.174 14.5155 9.37829 14.7084 8.58259 14.9495C8.14857 15.0701 7.71455 15.263 7.28053 15.4077C7.13586 15.4559 7.03941 15.4318 6.99119 15.263C6.65362 13.985 6.29194 12.7071 6.00259 11.405C5.71325 10.2477 5.56857 9.06617 5.35156 7.86056Z" fill="#010202"/>
<path fill-rule="evenodd" clip-rule="evenodd" d="M97.2195 17.3125H95.9175V10.3923H87.7435V17.3125H86.4414V3.03809H87.7193V9.16256H95.9175V3.03809H97.2195V17.3125Z" fill="#010202"/>
<path fill-rule="evenodd" clip-rule="evenodd" d="M36.4805 3.01416H45.8601C45.8601 3.35173 45.8601 3.6893 45.8601 4.02687C45.8601 4.24388 45.7154 4.21977 45.5948 4.21977H38.096H37.8066V9.35565H41.4717H45.1126V9.40387H37.9031V9.4521H45.1608V10.5854H37.8066V16.1794H46.1012V17.3127H36.4805V3.01416Z" fill="#010202"/>
<path fill-rule="evenodd" clip-rule="evenodd" d="M25.8715 29.3685C25.3411 29.5131 24.8347 29.6337 24.3284 29.8025C23.9185 29.9231 23.5327 30.0918 23.1228 30.2124C22.9781 30.2606 22.8093 30.2606 22.6405 30.2606C21.3626 30.2606 20.1087 30.2606 18.8549 30.2606C18.6861 30.2606 18.6379 30.2124 18.6138 30.0677C18.3003 28.8139 17.9628 27.536 17.6734 26.2821C17.5529 25.7999 17.4564 25.2935 17.36 24.7872C17.3359 24.6425 17.36 24.5943 17.4805 24.5461C17.6975 24.4737 17.9387 24.4255 18.1557 24.3531C18.7102 24.2085 19.2407 24.0638 19.7953 23.9432C20.1811 23.8709 20.5669 23.8468 20.9527 23.7745C21.2179 23.7262 21.4831 23.6539 21.7243 23.6057C21.9413 23.5574 22.1342 23.5333 22.3512 23.5092C22.6887 23.461 23.0263 23.4369 23.388 23.3887C23.6291 23.3646 23.8461 23.3404 24.0872 23.2922C24.2319 23.2681 24.2801 23.3404 24.3284 23.461C24.473 24.0879 24.6418 24.7389 24.8106 25.3659C25.1723 26.6438 25.534 27.8976 25.8957 29.1756C25.8474 29.272 25.8474 29.3203 25.8715 29.3685Z" fill="#010202"/>
<path fill-rule="evenodd" clip-rule="evenodd" d="M5.25554 6.9923C5.13498 5.01511 5.03853 3.06203 4.91797 1.10895C5.52077 0.964273 6.05124 0.843713 6.5817 0.69904C7.23273 0.530255 7.90787 0.385581 8.53479 0.120347C8.84825 -0.0243256 9.13759 0.0239001 9.45105 0.0239001C10.3673 -0.000212032 11.2595 0.0239001 12.2239 0.0239001V0.289135C12.2481 1.71175 12.2722 3.13437 12.3204 4.55698C12.3204 4.91866 12.3686 5.28034 12.4168 5.64203C12.441 5.83492 12.3686 5.90726 12.1757 5.93137C11.8381 5.9796 11.4765 6.10016 11.1389 6.17249C10.9701 6.22072 10.8013 6.24483 10.6325 6.29305C10.2226 6.36539 9.78862 6.43773 9.37871 6.48595C8.89647 6.5824 8.41423 6.65473 7.93198 6.75118C7.69086 6.79941 7.47385 6.82352 7.23273 6.84763C6.55759 6.87174 5.95479 6.91997 5.25554 6.9923Z" fill="#010202"/>
<path fill-rule="evenodd" clip-rule="evenodd" d="M16.9491 22.1111C16.5874 19.9169 16.4428 17.7227 16.3945 15.5285C16.6115 15.5044 16.8527 15.4562 17.0697 15.432C17.3831 15.4079 17.6725 15.432 17.9859 15.4079C19.071 15.3838 20.156 15.3597 21.2411 15.3115C21.6992 15.2874 22.1814 15.2391 22.6396 15.1909C23.0977 17.4333 23.5317 19.6275 23.9899 21.8218C23.9175 21.8218 23.8452 21.8218 23.7728 21.8218C23.2183 21.8218 22.6396 21.8218 22.0609 21.8459C20.6624 21.8941 19.2639 21.9664 17.8654 22.0147C17.576 22.0388 17.2867 22.087 16.9491 22.1111Z" fill="#010202"/>
<path fill-rule="evenodd" clip-rule="evenodd" d="M59.9427 11.0915V17.3124H58.6406V3.03806C58.713 3.03806 58.7853 3.03806 58.8817 3.03806C60.5455 3.03806 62.2092 3.01395 63.873 3.03806C64.4275 3.03806 64.9821 3.13451 65.5367 3.23096C65.9225 3.30329 66.3324 3.42385 66.6459 3.64086C67.5621 4.21955 68.1408 5.06348 68.2855 6.17264C68.3819 7.04067 68.406 7.93282 68.0685 8.75263C67.7068 9.59656 67.1281 10.2476 66.2601 10.5852C65.5367 10.8745 64.7651 10.9951 63.9935 11.0192C62.7638 11.0915 61.5341 11.0674 60.2803 11.0915H59.9427ZM59.9427 9.91002H60.2079H62.9085C63.5595 9.91002 64.2105 9.88591 64.8616 9.74123C65.392 9.62067 65.8019 9.37955 66.1877 9.04198C66.3565 8.87319 66.5494 8.6803 66.6459 8.46329C67.0075 7.71581 67.0075 6.94422 66.8387 6.14852C66.7664 5.83507 66.67 5.47339 66.4771 5.23227C65.9225 4.53301 65.1268 4.24367 64.2829 4.21955C62.9085 4.17133 61.5341 4.19544 60.1356 4.19544C60.0632 4.19544 59.9909 4.19544 59.9186 4.19544V9.91002H59.9427Z" fill="#010202"/>
<path fill-rule="evenodd" clip-rule="evenodd" d="M7.35547 16.3965C7.57248 16.3482 7.76537 16.3 7.95827 16.2759C8.4164 16.2036 8.87453 16.1554 9.33266 16.083C9.88724 15.9866 10.4418 15.9142 10.9964 15.8178H11.0446C11.5751 15.7937 12.1056 15.7454 12.636 15.6972C12.9977 15.6731 13.3835 15.6249 13.7452 15.5767C14.2756 17.8191 14.8061 20.0374 15.3125 22.2557C14.8061 22.3039 14.2515 22.3763 13.6728 22.4245C13.7452 22.4486 13.7693 22.4727 13.8175 22.4727C13.3835 22.521 12.9495 22.5451 12.5155 22.5933C11.9609 22.6656 11.4304 22.7621 10.8758 22.8585C10.4418 22.9067 10.0078 22.955 9.57378 23.0032C8.82631 20.809 8.10294 18.6148 7.35547 16.3965Z" fill="#010202"/>
<path fill-rule="evenodd" clip-rule="evenodd" d="M0 17.6017V7.78809C1.27794 7.8122 2.53178 7.86042 3.83383 7.90865C3.83383 7.93276 3.85794 7.95687 3.85794 8.0051C3.90616 9.30715 3.93028 10.6333 4.00261 11.9354C4.07495 13.2133 4.21962 14.4913 4.31607 15.7933C4.34019 15.9621 4.41252 16.1309 4.12318 16.2032C3.49626 16.372 2.89346 16.5649 2.29065 16.7819C1.63962 17.023 1.01271 17.3124 0.385796 17.5535C0.265235 17.5776 0.144673 17.5776 0 17.6017Z" fill="#010202"/>
<path fill-rule="evenodd" clip-rule="evenodd" d="M30.2609 14.3228V21.8457H25.5108C25.1974 19.5792 25.0527 17.3368 25.0768 15.0461C25.1491 15.022 25.2215 15.022 25.2938 14.9979C25.2456 14.9738 25.2215 14.9738 25.1732 14.9497C26.8611 14.7568 28.5489 14.5398 30.2609 14.3228Z" fill="#010202"/>
<path fill-rule="evenodd" clip-rule="evenodd" d="M1.13327 24.7874C0.940372 24.2087 0.77159 23.6783 0.578693 23.1478C0.43402 22.6897 0.265233 22.2557 0.120561 21.7975C0.0482243 21.5805 0 21.3394 0 21.0983C0 20.2302 0 19.3622 0 18.4942V18.2289C1.49495 17.7949 2.94168 17.385 4.41252 16.9751C4.48486 17.5779 4.55719 18.1566 4.65364 18.7112C4.82243 19.8686 4.99121 21.0259 5.18411 22.1833C5.25644 22.6414 5.35289 23.0996 5.44934 23.5577C5.47345 23.7024 5.44934 23.7747 5.25644 23.8229C4.50897 23.9676 3.73738 24.1123 3.01402 24.2811C2.58 24.3775 2.14598 24.5222 1.71196 24.6669C1.51907 24.691 1.32617 24.7392 1.13327 24.7874Z" fill="#010202"/>
<path fill-rule="evenodd" clip-rule="evenodd" d="M16.4188 12.9965C16.3706 11.1157 16.2982 9.21086 16.25 7.306C16.7805 7.25778 17.3109 7.18544 17.8414 7.1131C18.2995 7.06488 18.7577 7.06488 19.2399 6.99254C19.7463 6.9202 20.2526 6.82376 20.759 6.75142C21.0483 6.7032 21.3377 6.67908 21.627 6.63086C21.8199 8.43927 22.0128 10.2236 22.1816 12.032C20.2526 12.3695 18.3236 12.683 16.4188 12.9965Z" fill="#010202"/>
<path fill-rule="evenodd" clip-rule="evenodd" d="M17.603 30.2605H11.2374C11.1168 29.6818 10.9963 29.1031 10.8516 28.5245C10.731 27.9699 10.5863 27.3912 10.4417 26.8366C10.3693 26.499 10.3693 26.499 10.6828 26.4026C11.1409 26.2579 11.5749 26.0891 12.0331 25.9445C12.3948 25.8239 12.7806 25.7757 13.1663 25.6551C13.528 25.5587 13.8656 25.414 14.2273 25.3175C14.589 25.2211 14.9265 25.1246 15.2882 25.0282C15.4329 24.98 15.6017 24.98 15.7222 24.9076C15.9151 24.7871 15.9392 24.8835 15.9875 25.0282C16.2286 25.8239 16.4697 26.6437 16.7108 27.4394C17.0002 28.3557 17.2895 29.2478 17.603 30.14C17.5789 30.1641 17.5789 30.2123 17.603 30.2605Z" fill="#010202"/>
<path fill-rule="evenodd" clip-rule="evenodd" d="M29.8731 11.5016C29.5596 11.5016 29.2461 11.4775 28.9568 11.5016C28.2334 11.5257 27.5101 11.5498 26.7867 11.598C26.2562 11.6222 25.7499 11.6945 25.1953 11.7427C25.1953 11.4293 25.1953 11.1399 25.1953 10.8747C25.2194 9.37973 25.2194 7.88478 25.2435 6.36572C25.2435 6.00404 25.2435 6.02815 25.5811 5.95581C25.9187 5.88348 26.2562 5.78703 26.5938 5.69058C27.4377 5.47357 28.2575 5.25656 29.1015 5.03955C29.3908 7.25787 29.6319 9.35562 29.8731 11.5016Z" fill="#010202"/>
<path fill-rule="evenodd" clip-rule="evenodd" d="M21.4818 3.44804C21.1684 3.54448 20.9031 3.59271 20.6138 3.68916C20.0592 3.85794 19.5287 4.05084 18.9742 4.21962C18.4919 4.3643 18.0097 4.46074 17.5274 4.60542C17.1658 4.70187 16.8282 4.84654 16.4906 4.94299C16.346 4.99121 16.2013 4.99121 16.0566 5.01532C15.8396 3.32747 15.6467 1.66374 15.4297 0H21.4577V3.44804H21.4818Z" fill="#010202"/>
<path fill-rule="evenodd" clip-rule="evenodd" d="M30.235 22.9307C30.4038 24.8837 30.1144 26.7645 29.7528 28.6452C28.8124 28.8623 27.8479 29.1034 26.8352 29.3204C26.3529 27.295 25.9189 25.2936 25.6055 23.2441C25.8707 23.22 26.1118 23.1718 26.3529 23.1477C27.1245 23.0994 27.8961 23.0753 28.6677 23.0271C29.1982 23.003 29.7045 22.9548 30.235 22.9307Z" fill="#010202"/>
<path fill-rule="evenodd" clip-rule="evenodd" d="M3.93028 1.133C3.88205 3.11019 3.85794 5.06328 3.80972 7.04047C2.55589 7.0887 1.27794 7.13692 0 7.18514C0 7.06458 0 6.99225 0 6.91991C0 5.32851 0 3.76122 0 2.16982C0 1.9287 0.048225 1.83225 0.313458 1.80814C1.08505 1.68758 1.83252 1.56702 2.60411 1.39823C3.03813 1.3259 3.47215 1.20534 3.88205 1.10889C3.88205 1.133 3.90617 1.133 3.93028 1.133Z" fill="#010202"/>
<path d="M71.084 3.03809H69.7578V17.3125H71.084V3.03809Z" fill="#010202"/>
<path fill-rule="evenodd" clip-rule="evenodd" d="M62.7398 24.3294C62.788 24.3776 62.8603 24.4258 62.9568 24.474C63.2703 24.691 63.3667 25.0045 63.4149 25.3421C63.4873 25.8243 63.5114 26.3066 63.5596 26.7888C63.5837 26.9576 63.6319 27.1264 63.6561 27.2952H63.7284C64.5241 25.2215 65.2957 23.172 66.0914 21.0983C66.1155 21.0983 66.1396 21.0742 66.1637 21.0742C66.8147 21.0742 66.8147 21.0742 67.0318 21.677C67.3452 22.4727 67.6587 23.2684 67.9721 24.0882C68.382 25.1733 68.7919 26.2824 69.2018 27.4157C69.0089 27.4157 68.8402 27.4157 68.6714 27.4157C68.6232 27.4157 68.5749 27.3193 68.5508 27.2469C68.4061 26.8611 68.2615 26.4512 68.1168 26.0654C68.0445 25.8725 67.948 25.6796 67.8757 25.4867C66.9594 25.4867 66.0673 25.4867 65.151 25.4867C65.1028 25.4867 65.0304 25.5591 65.0063 25.6073C64.7893 26.1378 64.5964 26.6441 64.4035 27.1987C64.3312 27.3916 64.2589 27.4639 64.0418 27.4398C63.7766 27.4157 63.5355 27.4398 63.2703 27.4398C63.1256 27.4398 63.0533 27.3916 63.0291 27.2469C62.9809 26.8611 62.9568 26.4512 62.9086 26.0654C62.8604 25.752 62.8121 25.4385 62.7398 25.1251C62.6675 24.8116 62.4022 24.6428 62.137 24.6428C61.3413 24.6187 60.5456 24.6187 59.7499 24.6187V27.3916H59.1953V21.1224C59.2435 21.1224 59.2676 21.0983 59.3159 21.0983C60.2321 21.0983 61.1243 21.0742 62.0405 21.1224C62.5228 21.1466 62.9568 21.2912 63.3185 21.6529C63.8007 22.1834 63.8972 23.172 63.4873 23.7266C63.2703 23.9677 62.9809 24.1365 62.7398 24.3294ZM59.7499 23.9918C60.5215 23.9918 61.2931 24.0159 62.0405 23.9918C62.354 23.9677 62.7157 23.9194 62.9086 23.606C63.1738 23.1479 63.1979 22.6656 62.9809 22.2075C62.8121 21.8699 62.4746 21.7011 62.1129 21.677C61.3895 21.6529 60.6662 21.677 59.9187 21.6529C59.8705 21.6529 59.8222 21.6529 59.774 21.677V23.9918H59.7499ZM66.4531 21.7735H66.4048C66.019 22.8344 65.6091 23.9195 65.1992 25.0045H67.6828C67.2729 23.9195 66.863 22.8344 66.4531 21.7735Z" fill="#010202"/>
<path fill-rule="evenodd" clip-rule="evenodd" d="M77.1339 27.4154H76.5793V22.0143C76.5552 22.0143 76.5311 22.0143 76.507 21.9902C76.4346 22.2313 76.3382 22.4724 76.2659 22.7135C75.9283 23.6057 75.6148 24.5219 75.2773 25.4141C75.0602 26.0169 74.8191 26.6197 74.6262 27.2225C74.578 27.3431 74.5298 27.4395 74.361 27.4154C74.2163 27.3913 73.9993 27.5118 73.927 27.2466C73.7823 26.7885 73.6135 26.3304 73.4447 25.8722C73.0348 24.8113 72.6249 23.7504 72.2391 22.6894C72.1427 22.4483 72.0703 22.2072 71.9498 21.9902V27.3913H71.3711V21.0739C71.6122 21.0739 71.8774 21.0739 72.1186 21.0739C72.1668 21.0739 72.2391 21.2186 72.2632 21.2909C72.5285 22.0143 72.7937 22.7135 73.0589 23.4369C73.3724 24.2567 73.6859 25.1006 74.0234 25.9446C74.0958 26.1616 74.1681 26.3786 74.2645 26.6438C74.3128 26.4991 74.361 26.4268 74.3851 26.3304C74.8432 25.0765 75.3014 23.8468 75.7595 22.593C75.9283 22.1348 76.0971 21.6767 76.2659 21.2186C76.3141 21.0739 76.3623 21.0498 76.507 21.0498C76.6999 21.0498 76.9169 21.0498 77.1339 21.0498V27.4154Z" fill="#010202"/>
<path fill-rule="evenodd" clip-rule="evenodd" d="M50.2763 26.6922C50.9755 24.7873 51.6507 22.9307 52.3258 21.0981H53.1456V27.4155H52.6151V22.0144C52.591 22.0144 52.5669 22.0144 52.5669 21.9903C52.4946 22.2073 52.4222 22.4243 52.3499 22.6413C51.9882 23.6299 51.6265 24.5944 51.2649 25.583C51.0479 26.1617 50.8308 26.7163 50.6379 27.295C50.5897 27.4637 50.4692 27.4638 50.3486 27.4396C50.2039 27.4155 50.0351 27.512 49.9628 27.295C49.6252 26.3305 49.2394 25.366 48.8778 24.4015C48.5884 23.6058 48.2991 22.8101 47.9615 22.0385V27.4396H47.3828V21.1223C47.6239 21.1223 47.8409 21.1223 48.0821 21.1223C48.1303 21.1223 48.2026 21.1946 48.2267 21.2669C48.5402 22.0867 48.8536 22.8824 49.143 23.7023C49.4323 24.4738 49.7217 25.2213 50.011 25.9929C50.1075 26.1858 50.1798 26.4269 50.2763 26.6922Z" fill="#010202"/>
<path fill-rule="evenodd" clip-rule="evenodd" d="M83.8398 21.0981C84.0327 21.0981 84.2256 21.0981 84.4185 21.0981C84.4668 21.0981 84.515 21.1705 84.5632 21.2187C85.0937 22.0144 85.6241 22.8342 86.1787 23.654C86.5886 24.2809 86.9985 24.9079 87.4084 25.5348C87.6013 25.8482 87.8183 26.1376 88.0595 26.4752V21.1223H88.614V27.4396C88.4211 27.4396 88.2524 27.4396 88.0836 27.4396C88.0112 27.4396 87.9389 27.3673 87.8907 27.295C87.6254 26.8851 87.3602 26.451 87.095 26.017C86.7815 25.5589 86.4681 25.1008 86.1546 24.6426C85.6965 23.9434 85.2383 23.2682 84.7802 22.569C84.6596 22.4002 84.5873 22.2073 84.4185 22.0385V27.4155H83.8398V21.0981Z" fill="#010202"/>
<path fill-rule="evenodd" clip-rule="evenodd" d="M6.99189 30.2608C6.91955 30.2608 6.84721 30.2849 6.79899 30.2849C5.4246 30.2849 4.07432 30.2849 2.69993 30.2849C2.55525 30.2849 2.48292 30.2608 2.4347 30.092C2.31413 29.4892 2.14535 28.9105 1.97656 28.2836C2.09712 28.2595 2.2418 28.2112 2.36236 28.1871C2.57937 28.163 2.77226 28.163 2.96516 28.0907C3.80909 27.8013 4.70123 27.6566 5.59338 27.5361C5.76217 27.512 5.95506 27.4638 6.14796 27.4155C6.46142 28.38 6.72665 29.3204 6.99189 30.2608Z" fill="#010202"/>
<path fill-rule="evenodd" clip-rule="evenodd" d="M24.9297 0H28.9805V2.04953C28.5224 2.12187 28.0402 2.17009 27.582 2.26654C27.0516 2.36299 26.5211 2.50766 25.9906 2.60411C25.7254 2.65233 25.4602 2.70056 25.1708 2.72467C25.0744 1.83252 25.002 0.940373 24.9297 0Z" fill="#010202"/>
<path fill-rule="evenodd" clip-rule="evenodd" d="M99.2232 24.7632V27.4155H98.6445V21.1222C98.6928 21.1222 98.741 21.0981 98.7892 21.0981C99.5849 21.0981 100.405 21.074 101.2 21.0981C101.61 21.1222 102.02 21.2428 102.382 21.508C102.84 21.8697 102.936 22.3519 102.936 22.9065C102.961 23.5817 102.647 24.0639 102.093 24.3774C101.876 24.522 101.586 24.5944 101.321 24.6185C100.67 24.6908 99.9707 24.7149 99.2232 24.7632ZM99.2473 24.088C99.2956 24.088 99.3438 24.1121 99.3679 24.1121C99.8742 24.1121 100.405 24.1362 100.911 24.088C101.225 24.0639 101.538 23.9675 101.827 23.871C102.165 23.7987 102.237 23.5093 102.334 23.2441C102.358 23.1476 102.358 23.0512 102.358 22.9548C102.382 22.1108 102.093 21.725 101.2 21.6527C100.622 21.6045 99.9948 21.6286 99.4161 21.6286C99.3679 21.6286 99.3197 21.6286 99.2473 21.6527V24.088Z" fill="#010202"/>
<path fill-rule="evenodd" clip-rule="evenodd" d="M102.164 27.4396C102.453 26.6681 102.743 25.9447 103.008 25.2213C103.394 24.2086 103.755 23.1959 104.141 22.1832C104.262 21.8697 104.406 21.5563 104.503 21.2428C104.551 21.1223 104.599 21.0981 104.72 21.0981C105.275 21.0981 105.25 21.0981 105.443 21.6045C105.733 22.4002 106.07 23.1718 106.36 23.9434C106.528 24.4015 106.697 24.8596 106.866 25.3178C107.107 25.9688 107.372 26.6439 107.613 27.295C107.638 27.3191 107.638 27.3673 107.662 27.4396C107.469 27.4396 107.3 27.4396 107.131 27.4396C107.083 27.4396 107.035 27.3673 107.011 27.295C106.842 26.8368 106.673 26.3787 106.504 25.9206C106.36 25.4866 106.36 25.4866 105.901 25.4866C105.154 25.4866 104.406 25.4866 103.659 25.4866C103.514 25.4866 103.442 25.5348 103.418 25.6553C103.249 26.1617 103.032 26.668 102.863 27.1744C102.791 27.3914 102.695 27.512 102.453 27.4637C102.381 27.4155 102.285 27.4396 102.164 27.4396ZM104.913 21.7009C104.479 22.8342 104.093 23.9193 103.683 25.0043H106.167C105.733 23.8952 105.347 22.8342 104.913 21.7009Z" fill="#010202"/>
<path fill-rule="evenodd" clip-rule="evenodd" d="M58.9045 27.4395C58.7116 27.4395 58.5428 27.4636 58.374 27.4153C58.3017 27.4153 58.2535 27.2948 58.2052 27.2224C58.0123 26.692 57.8194 26.1615 57.6265 25.631C57.5783 25.5105 57.506 25.4864 57.3854 25.4864C56.5656 25.4864 55.7458 25.4864 54.926 25.4864C54.8054 25.4864 54.7331 25.4864 54.6849 25.631C54.492 26.1374 54.2991 26.6438 54.1062 27.1742C54.0338 27.3912 53.9374 27.4877 53.6963 27.4636C53.5998 27.4395 53.5034 27.4636 53.3828 27.4636C53.4793 27.1983 53.5757 26.9572 53.648 26.7402C53.9615 25.8481 54.2991 24.98 54.6366 24.112C54.9983 23.1716 55.36 22.2071 55.7458 21.2909C55.7699 21.2185 55.8664 21.1462 55.9387 21.1462C56.4692 21.1221 56.4692 21.1221 56.6621 21.6043C56.9273 22.3036 57.1925 23.0028 57.4578 23.7021C57.7471 24.4254 58.0123 25.1247 58.3017 25.8481C58.5187 26.3303 58.6875 26.8849 58.9045 27.4395ZM57.3854 25.0041C56.9755 23.9191 56.5656 22.8582 56.1798 21.7731C56.1557 21.7731 56.1316 21.7731 56.1316 21.7731C55.7217 22.834 55.3359 23.9191 54.926 24.98H57.3854V25.0041Z" fill="#010202"/>
<path fill-rule="evenodd" clip-rule="evenodd" d="M95.751 25.3899H96.3055C96.2091 26.0892 96.0162 26.7161 95.4134 27.1501C95.124 27.3671 94.8106 27.5359 94.4489 27.5359C93.9184 27.5359 93.388 27.6083 92.8816 27.4877C92.3029 27.3671 91.8448 26.9572 91.5313 26.4509C91.0491 25.6311 90.9044 24.7389 91.0009 23.8227C91.0491 23.3404 91.1697 22.8582 91.3384 22.4C91.6037 21.7731 92.11 21.3391 92.7369 21.1221C93.0986 21.0015 93.4844 20.9292 93.8461 20.9292C94.7141 20.9292 95.4616 21.2427 95.968 22.0142C96.1368 22.2795 96.1609 22.617 96.2573 22.9546H95.6545C95.6063 22.8099 95.5822 22.6894 95.5581 22.5447C95.4134 21.966 94.9794 21.7249 94.473 21.5802C94.1596 21.5079 93.8461 21.4597 93.5326 21.4838C92.8334 21.5561 92.2547 21.8455 91.9412 22.5447C91.5072 23.5333 91.4831 24.5219 91.7725 25.5346C91.9412 26.1133 92.2547 26.6679 92.8575 26.909C93.2674 27.0778 93.7014 27.1742 94.1837 27.0778C94.6659 26.9813 95.0758 26.7884 95.341 26.4026C95.5098 26.1615 95.5822 25.8481 95.6786 25.5828C95.7268 25.5346 95.7268 25.4623 95.751 25.3899Z" fill="#010202"/>
<path fill-rule="evenodd" clip-rule="evenodd" d="M78.0742 21.0981H78.6529V21.3875C78.6529 22.5931 78.6529 23.7987 78.6529 25.0043C78.6529 25.5348 78.7011 26.0652 79.0146 26.5234C79.2557 26.8609 79.5933 27.0297 79.9791 27.0538C80.2925 27.078 80.606 27.0538 80.8953 27.0538C81.4981 27.0538 82.0527 26.5957 82.1492 26.0894C82.2215 25.7518 82.2938 25.4142 82.2938 25.0525C82.318 23.7264 82.2938 22.4243 82.2938 21.0981H82.8725C82.8725 21.1464 82.8966 21.1705 82.8966 21.2187C82.8966 22.6654 82.8966 24.1363 82.8725 25.583C82.8484 26.2823 82.5832 26.9092 81.9563 27.295C81.6669 27.4637 81.3776 27.5602 81.0641 27.5602C80.606 27.5602 80.172 27.5843 79.7138 27.512C78.9181 27.4155 78.3636 26.8127 78.2189 26.1617C78.1466 25.7759 78.0983 25.3901 78.0983 25.0043C78.0742 23.7023 78.0742 22.4243 78.0742 21.0981Z" fill="#010202"/>
<path fill-rule="evenodd" clip-rule="evenodd" d="M47.09 27.4155C47.0659 27.4155 47.0659 27.4396 47.0417 27.4396C46.5113 27.4879 46.5113 27.4879 46.3425 26.9815C46.1737 26.5234 46.0049 26.0652 45.8361 25.6312C45.812 25.5589 45.6915 25.4866 45.6191 25.4866C44.7752 25.4624 43.9313 25.4866 43.1115 25.4866C43.0391 25.4866 42.9427 25.5589 42.9186 25.6071C42.7016 26.1376 42.5087 26.6681 42.3158 27.1985C42.2434 27.3914 42.147 27.4396 41.9782 27.4396C41.8817 27.4396 41.7853 27.4396 41.6406 27.4396C41.7371 27.1985 41.8094 26.9815 41.9059 26.7645C42.2193 25.8965 42.5328 25.0525 42.8462 24.1845C43.0391 23.6299 43.2803 23.0995 43.4731 22.5449C43.6419 22.1109 43.8107 21.6768 43.9795 21.2428C44.0277 21.1223 44.1001 21.0981 44.1965 21.0981C44.727 21.0981 44.727 21.0981 44.9199 21.5804C45.2333 22.3761 45.5468 23.1477 45.8361 23.9434C46.2702 25.0766 46.6801 26.2099 47.1141 27.3432C47.09 27.3432 47.09 27.3914 47.09 27.4155ZM45.595 25.0043C45.1851 23.9193 44.7752 22.8342 44.3653 21.7009C43.9313 22.8342 43.5455 23.9193 43.1356 25.0043H45.595Z" fill="#010202"/>
<path fill-rule="evenodd" clip-rule="evenodd" d="M41.1583 25.3899H41.6406C41.6164 26.3785 41.0619 27.126 40.2421 27.4394C39.6875 27.6323 39.0847 27.6082 38.5301 27.5359C37.6379 27.4394 37.0593 26.8607 36.7217 26.065C36.2635 25.0282 36.2877 23.9914 36.5529 22.9063C36.7699 22.0383 37.3004 21.4596 38.072 21.122C38.5542 20.9291 39.0847 20.8327 39.6634 20.9774C40.1215 21.0738 40.5314 21.1944 40.869 21.4837C41.3271 21.8695 41.6164 22.3277 41.5923 22.9546H41.0619C41.0378 22.9063 41.0377 22.8822 41.0377 22.834C40.9654 22.2071 40.5796 21.8213 40.025 21.6043C39.5669 21.4355 39.0606 21.4355 38.5542 21.5561C38.2166 21.6284 37.9514 21.7972 37.7103 22.0142C37.4933 22.2071 37.3486 22.4964 37.228 22.7617C36.8664 23.6779 36.8664 24.6424 37.1557 25.5828C37.3245 26.1615 37.6379 26.692 38.2407 26.9572C38.6748 27.126 39.1088 27.2224 39.591 27.126C40.1215 27.0295 40.5314 26.8125 40.7966 26.3544C40.9654 26.0409 41.0377 25.7275 41.1583 25.3899Z" fill="#010202"/>
<path fill-rule="evenodd" clip-rule="evenodd" d="M111.76 26.9572V27.4153H107.926V21.1221H108.529V21.3632C108.529 23.1234 108.529 24.9077 108.529 26.6679C108.529 26.909 108.577 26.9813 108.818 26.9572C109.71 26.9331 110.602 26.9572 111.494 26.9572H111.76Z" fill="#010202"/>
<path d="M97.6054 21.1221H97.0508V27.4395H97.6054V21.1221Z" fill="#010202"/>
<path d="M90.2506 21.0981H89.6719V27.4155H90.2506V21.0981Z" fill="#010202"/>
<path fill-rule="evenodd" clip-rule="evenodd" d="M43.3047 20.3746C43.5699 19.9165 43.8352 19.4584 44.1004 19.0244C44.1245 18.9761 44.1968 18.9761 44.2451 18.952C44.6309 18.8797 44.872 19.0002 45.0408 19.386C45.1854 19.7236 45.4266 20.0371 45.6195 20.3505C45.2337 20.5193 45.1131 20.1817 44.9443 19.9888C44.7755 19.7718 44.6309 19.5548 44.4621 19.3137C44.2451 19.603 44.0039 19.8683 43.811 20.1576C43.6905 20.3987 43.5458 20.4229 43.3047 20.3746Z" fill="#010202"/>
</svg>
