<svg width="152" height="44" viewBox="0 0 152 44" fill="none" xmlns="http://www.w3.org/2000/svg">
<path d="M21.6592 0C9.72365 0 0.0546875 9.66896 0.0546875 21.6045C0.0546875 33.54 9.72365 43.2089 21.6592 43.2089C33.5947 43.2089 43.2636 33.54 43.2636 21.6045C43.2636 9.66896 33.5947 0 21.6592 0ZM21.6592 42.0757C10.3747 42.0757 1.21207 32.9131 1.21207 21.6045C1.21207 10.2959 10.3747 1.13327 21.6592 1.13327C32.9677 1.13327 42.1304 10.2959 42.1304 21.6045C42.1304 32.9131 32.9677 42.0757 21.6592 42.0757Z" fill="black"/>
<path d="M21.6607 1.83252C10.7138 1.83252 1.81641 10.7299 1.81641 21.7009C1.81641 32.6719 10.7138 41.5452 21.6607 41.5452C32.6317 41.5452 41.5291 32.6478 41.5291 21.7009C41.5291 10.7058 32.6317 1.83252 21.6607 1.83252ZM21.6607 40.9665C11.0272 40.9665 2.3951 32.3344 2.3951 21.6768C2.3951 11.0192 11.0272 2.3871 21.6607 2.3871C32.3182 2.3871 40.9504 11.0192 40.9504 21.6768C40.9504 32.3344 32.3182 40.9665 21.6607 40.9665Z" fill="black"/>
<path d="M3.23828 21.6767C3.23828 28.2594 6.71043 34.0463 11.9186 37.3255L17.9949 21.6044L6.73454 10.8745C4.51622 13.9126 3.23828 17.65 3.23828 21.6767Z" fill="black"/>
<path d="M32.7733 36.2406L38.2227 17.1679L37.7887 17.0474L32.2188 36.6746C32.3875 36.53 32.5804 36.3853 32.7733 36.2406Z" fill="black"/>
<path d="M31.496 37.1567L37.1864 17.3125L36.7524 17.1919L30.9414 37.4702C31.1343 37.3737 31.3272 37.2532 31.496 37.1567Z" fill="black"/>
<path d="M39.3321 16.6371C39.2115 16.6371 36.9691 17.1194 35.3053 17.4328C31.9538 12.8515 26.5285 9.88574 20.4282 9.88574C16.5702 9.88574 12.9775 11.0672 10.0117 13.1168L10.3975 13.5026C13.2427 11.5736 16.6908 10.4403 20.404 10.4403C26.2633 10.4403 31.4474 13.2373 34.7266 17.5534C34.2203 17.6498 33.8345 17.7222 33.6416 17.7704C30.507 13.8884 25.7328 11.4048 20.3799 11.4048C16.9319 11.4048 13.7491 12.4175 11.0727 14.1777L18.4992 21.3149L32.2913 18.5179L33.9792 18.1803L38.8498 17.1917L33.5934 35.5169C37.5237 32.1412 40.0072 27.15 40.0072 21.5801C40.0072 19.8682 39.7661 18.2044 39.3321 16.6371Z" fill="black"/>
<path d="M64.4094 10.8506L70.4856 20.5919H70.5338V10.8506H73.5237V25.3902H70.341L64.2647 15.6489H64.2406V25.3902H61.2266V10.8506H64.4094Z" fill="black"/>
<path d="M76.4181 16.3963C76.7316 15.9623 77.0933 15.6006 77.5514 15.3354C78.0337 15.0701 78.54 14.8772 79.1187 14.7567C79.6974 14.6361 80.2761 14.5879 80.8548 14.5879C81.3852 14.5879 81.9157 14.6361 82.4703 14.7085C83.0249 14.7808 83.5071 14.9255 83.9652 15.1425C84.3993 15.3595 84.7851 15.6488 85.0503 16.0587C85.3396 16.4445 85.4843 16.975 85.4843 17.6019V23.0995C85.4843 23.5817 85.5084 24.0398 85.5808 24.4739C85.629 24.9079 85.7254 25.2455 85.8701 25.4383H82.9284C82.8802 25.2696 82.832 25.1249 82.7838 24.932C82.7596 24.7632 82.7355 24.5944 82.7114 24.4256C82.2533 24.9079 81.6987 25.2455 81.0718 25.4142C80.4449 25.6071 79.7938 25.7036 79.1669 25.7036C78.6606 25.7036 78.2024 25.6312 77.7684 25.5107C77.3344 25.3901 76.9486 25.1972 76.6352 24.932C76.2976 24.6668 76.0565 24.3533 75.8636 23.9675C75.6707 23.5576 75.5742 23.0995 75.5742 22.5449C75.5742 21.9421 75.6948 21.4598 75.8877 21.0741C76.1047 20.6883 76.3699 20.3748 76.7075 20.1337C77.0209 19.8926 77.4067 19.7238 77.8408 19.6032C78.2748 19.4827 78.7088 19.4103 79.1428 19.338C79.5768 19.2656 80.0109 19.2174 80.4208 19.1692C80.8548 19.121 81.2406 19.0727 81.554 19.0004C81.8916 18.9281 82.1327 18.7834 82.3256 18.6387C82.4944 18.4941 82.5908 18.2529 82.5908 17.9395C82.5908 17.626 82.5426 17.3849 82.4462 17.192C82.3256 17.0232 82.2051 16.8785 82.0363 16.758C81.8675 16.6615 81.6746 16.5892 81.4335 16.5651C81.2165 16.541 80.9753 16.5169 80.7101 16.5169C80.1314 16.5169 79.6974 16.6374 79.3839 16.8785C79.0464 17.1197 78.8535 17.5296 78.8052 18.1083H75.9118C75.96 17.409 76.1288 16.8544 76.4181 16.3963ZM82.1327 20.4954C81.9639 20.5436 81.7469 20.5918 81.5299 20.64C81.3129 20.6883 81.0959 20.7365 80.8789 20.7606C80.6378 20.7847 80.4208 20.8088 80.1796 20.857C79.9626 20.9053 79.7456 20.9535 79.5286 21.0258C79.3357 21.0982 79.1428 21.1946 78.974 21.3152C78.8294 21.4357 78.6847 21.5804 78.5882 21.7492C78.4918 21.918 78.4436 22.1591 78.4436 22.4243C78.4436 22.6896 78.4918 22.9066 78.5882 23.0754C78.6847 23.2441 78.8052 23.3888 78.974 23.4853C79.1428 23.5817 79.3357 23.6541 79.5527 23.7023C79.7697 23.7264 79.9867 23.7505 80.2279 23.7505C80.8066 23.7505 81.2406 23.6541 81.554 23.4853C81.8675 23.2683 82.1086 23.0512 82.2292 22.8101C82.398 22.5449 82.4703 22.2797 82.5185 21.9903C82.5426 21.7251 82.5667 21.5081 82.5667 21.3393V20.2542C82.4944 20.3507 82.3256 20.423 82.1327 20.4954Z" fill="black"/>
<path d="M90.1637 22.7858C90.3083 23.0028 90.453 23.1716 90.67 23.3163C90.8629 23.461 91.104 23.5815 91.3693 23.6298C91.6345 23.7021 91.9238 23.7262 92.2132 23.7262C92.4061 23.7262 92.6231 23.7021 92.8642 23.678C93.0812 23.6297 93.2982 23.5574 93.467 23.4369C93.6599 23.3404 93.8046 23.2198 93.9493 23.0511C94.0698 22.8823 94.118 22.6653 94.118 22.4C94.118 21.966 93.8287 21.6284 93.25 21.4355C92.6713 21.2185 91.8756 21.0015 90.8388 20.7845C90.4048 20.6881 89.9949 20.5675 89.6091 20.447C89.1992 20.3023 88.8375 20.1576 88.5481 19.9406C88.2347 19.7236 87.9695 19.4584 87.7766 19.1449C87.5837 18.8314 87.4872 18.4456 87.4872 17.9875C87.4872 17.3124 87.6078 16.7578 87.873 16.3238C88.1382 15.8898 88.4999 15.5522 88.9339 15.3111C89.368 15.0458 89.8502 14.877 90.4048 14.7806C90.9352 14.6842 91.4898 14.6118 92.0685 14.6118C92.6472 14.6118 93.2018 14.66 93.7323 14.7806C94.2627 14.877 94.745 15.0699 95.1549 15.3352C95.5889 15.6004 95.9265 15.938 96.2158 16.372C96.5051 16.806 96.6498 17.3365 96.7222 17.9875H93.9493C93.9251 17.4329 93.7081 17.0471 93.3223 16.8784C92.9366 16.6855 92.5025 16.589 91.9721 16.589C91.8274 16.589 91.6345 16.589 91.4416 16.6131C91.2487 16.6372 91.0558 16.6855 90.9111 16.7337C90.7665 16.806 90.6218 16.9025 90.5253 17.023C90.4048 17.1436 90.3566 17.3365 90.3566 17.5535C90.3566 17.8187 90.453 18.0116 90.6459 18.1804C90.8388 18.3492 91.0799 18.4698 91.3934 18.5662C91.7068 18.6627 92.0444 18.7591 92.4302 18.8314C92.816 18.9038 93.2259 19.0002 93.6358 19.0967C94.0457 19.1931 94.4797 19.3137 94.8655 19.4584C95.2513 19.603 95.613 19.7718 95.9506 19.9888C96.264 20.2058 96.5051 20.4952 96.698 20.8327C96.8909 21.1703 96.9874 21.5802 96.9874 22.0866C96.9874 22.7617 96.8427 23.3645 96.5775 23.8226C96.2881 24.2808 95.9265 24.6666 95.4924 24.9559C95.0343 25.2453 94.528 25.4382 93.9493 25.5587C93.3706 25.6793 92.7678 25.7275 92.1891 25.7275C91.5863 25.7275 90.9835 25.6552 90.4048 25.5346C89.802 25.4141 89.2956 25.2212 88.8375 24.9318C88.4035 24.6425 88.0177 24.2808 87.7283 23.7985C87.439 23.3404 87.2702 22.7376 87.2461 22.0384H89.9949C89.9708 22.2795 90.0431 22.5447 90.1637 22.7858Z" fill="black"/>
<path d="M103.712 16.758C103.254 16.758 102.868 16.8785 102.555 17.0714C102.241 17.2884 101.976 17.5537 101.783 17.8913C101.59 18.2288 101.446 18.5905 101.373 18.9763C101.301 19.3862 101.253 19.772 101.253 20.1819C101.253 20.5436 101.301 20.9535 101.373 21.3393C101.47 21.7251 101.59 22.0868 101.759 22.4243C101.952 22.7378 102.193 23.003 102.507 23.22C102.82 23.437 103.182 23.5335 103.64 23.5335C104.339 23.5335 104.87 23.3165 105.255 22.9548C105.641 22.569 105.882 22.0626 105.955 21.3875H108.752C108.559 22.786 108.028 23.8469 107.136 24.5944C106.244 25.3178 105.087 25.7036 103.688 25.7036C102.892 25.7036 102.169 25.5589 101.518 25.2937C100.843 25.0284 100.288 24.6668 99.8302 24.1845C99.3721 23.7264 99.0104 23.1477 98.7452 22.4967C98.4799 21.8215 98.3594 21.0982 98.3594 20.3025C98.3594 19.4827 98.4799 18.7352 98.7211 18.0359C98.9622 17.3367 99.2998 16.7098 99.782 16.2275C100.24 15.7212 100.819 15.3113 101.47 15.0219C102.121 14.7326 102.892 14.5879 103.76 14.5879C104.387 14.5879 104.99 14.6843 105.569 14.829C106.148 14.9978 106.678 15.263 107.112 15.5765C107.57 15.9141 107.932 16.324 108.221 16.8303C108.486 17.3126 108.655 17.9154 108.703 18.5905H105.882C105.665 17.3608 104.942 16.758 103.712 16.758Z" fill="black"/>
<path d="M113.48 22.8584C113.914 23.2924 114.541 23.5094 115.361 23.5094C115.94 23.5094 116.446 23.3407 116.88 23.0754C117.29 22.7861 117.555 22.4726 117.651 22.1351H120.207C119.797 23.3889 119.171 24.3051 118.327 24.8356C117.483 25.3661 116.47 25.6554 115.264 25.6554C114.42 25.6554 113.673 25.5108 113.022 25.2455C112.347 24.9803 111.792 24.6186 111.334 24.1123C110.852 23.63 110.514 23.0513 110.249 22.3521C109.984 21.6769 109.863 20.9295 109.863 20.1096C109.863 19.3139 110.008 18.5906 110.249 17.8913C110.514 17.2162 110.876 16.6375 111.358 16.1311C111.816 15.6489 112.419 15.2631 113.046 14.9496C113.721 14.6603 114.42 14.5156 115.24 14.5156C116.132 14.5156 116.904 14.6844 117.579 15.0461C118.254 15.3837 118.785 15.8659 119.219 16.4446C119.653 17.0233 119.966 17.6984 120.159 18.4459C120.328 19.1934 120.4 19.965 120.352 20.7848H112.757C112.805 21.7734 113.046 22.4485 113.48 22.8584ZM116.759 17.3367C116.422 16.9509 115.891 16.7581 115.168 16.7581C114.71 16.7581 114.324 16.8304 114.011 16.9992C113.697 17.1438 113.456 17.3609 113.287 17.5779C113.094 17.819 112.974 18.0601 112.877 18.3253C112.805 18.5665 112.757 18.8076 112.757 19.0005H117.459C117.338 18.253 117.097 17.6984 116.759 17.3367Z" fill="black"/>
<path d="M124.835 14.8533V16.3242H124.884C125.269 15.7213 125.728 15.2632 126.306 14.9739C126.885 14.6845 127.488 14.564 128.091 14.564C128.862 14.564 129.513 14.6845 129.995 14.8774C130.502 15.0944 130.888 15.3838 131.177 15.7696C131.466 16.1554 131.659 16.5894 131.78 17.144C131.9 17.6744 131.948 18.2531 131.948 18.9041V25.3903H129.055V19.4587C129.055 18.5907 128.91 17.9397 128.645 17.5056C128.38 17.0716 127.898 16.8546 127.198 16.8546C126.403 16.8546 125.848 17.0957 125.486 17.5539C125.125 18.012 124.956 18.8077 124.956 19.8686V25.3903H122.062V14.8533H124.835Z" fill="black"/>
<path d="M139.955 14.853V16.782H137.833V22.0143C137.833 22.4966 137.906 22.8341 138.074 22.9788C138.243 23.1476 138.581 23.2199 139.063 23.2199C139.232 23.2199 139.376 23.2199 139.545 23.1958C139.69 23.1958 139.835 23.1476 139.955 23.1235V25.3659C139.714 25.4141 139.425 25.4382 139.135 25.4624C138.822 25.4865 138.533 25.4865 138.267 25.4865C137.833 25.4865 137.399 25.4624 136.989 25.39C136.604 25.3418 136.242 25.2212 135.928 25.0283C135.639 24.8354 135.374 24.6184 135.205 24.2809C135.036 23.9433 134.94 23.5334 134.94 23.0029V16.782H133.18V14.853H134.94V11.6943H137.833V14.853H139.955Z" fill="black"/>
<path d="M144.437 22.8584C144.871 23.2924 145.498 23.5094 146.318 23.5094C146.897 23.5094 147.403 23.3407 147.837 23.0754C148.247 22.7861 148.512 22.4726 148.609 22.1351H151.14C150.73 23.3889 150.128 24.3051 149.26 24.8356C148.416 25.3661 147.403 25.6554 146.221 25.6554C145.377 25.6554 144.63 25.5108 143.979 25.2455C143.304 24.9803 142.749 24.6186 142.291 24.1123C141.833 23.63 141.471 23.0513 141.206 22.3521C140.965 21.6769 140.82 20.9295 140.82 20.1096C140.82 19.3139 140.965 18.5906 141.206 17.8913C141.471 17.2162 141.833 16.6375 142.315 16.1311C142.797 15.6489 143.376 15.2631 144.003 14.9496C144.678 14.6603 145.402 14.5156 146.221 14.5156C147.114 14.5156 147.885 14.6844 148.56 15.0461C149.235 15.3837 149.766 15.8659 150.2 16.4446C150.634 17.0233 150.947 17.6984 151.14 18.4459C151.333 19.1934 151.406 19.965 151.333 20.7848H143.738C143.762 21.7734 144.003 22.4485 144.437 22.8584ZM147.716 17.3367C147.379 16.9509 146.848 16.7581 146.149 16.7581C145.691 16.7581 145.305 16.8304 144.992 16.9992C144.678 17.1438 144.437 17.3609 144.268 17.5779C144.075 17.819 143.955 18.0601 143.883 18.3253C143.81 18.5665 143.762 18.8076 143.738 19.0005H148.44C148.295 18.253 148.054 17.6984 147.716 17.3367Z" fill="black"/>
<path d="M64.074 32.3344C63.857 32.1656 63.5435 32.0692 63.23 32.0692C62.9407 32.0692 62.7237 32.1415 62.5067 32.2379C62.2897 32.3344 62.145 32.4791 62.0244 32.6478C61.8798 32.8166 61.8074 33.0336 61.7351 33.2507C61.6627 33.4918 61.6386 33.7329 61.6386 33.974C61.6386 34.2393 61.6627 34.5045 61.7351 34.7456C61.8074 34.9626 61.8798 35.1796 62.0244 35.3484C62.145 35.5413 62.3138 35.6619 62.5067 35.7824C62.6996 35.8789 62.9407 35.9271 63.23 35.9271C63.4229 35.9271 63.6158 35.903 63.7605 35.8306C63.9293 35.7824 64.0498 35.686 64.1704 35.5654C64.291 35.4449 64.3633 35.3002 64.4356 35.1314C64.508 34.9626 64.5562 34.7697 64.5562 34.6009H65.1831C65.1349 35.1796 64.9179 35.6378 64.5803 35.9753C64.2427 36.3129 63.7605 36.4817 63.1577 36.4817C62.796 36.4817 62.4826 36.4093 62.2173 36.2888C61.9521 36.1682 61.711 35.9753 61.5422 35.7824C61.3734 35.5654 61.2287 35.3002 61.1323 35.0108C61.0358 34.7215 61.0117 34.3839 61.0117 34.0464C61.0117 33.7088 61.0599 33.3953 61.1564 33.0819C61.2528 32.7925 61.3975 32.5273 61.5904 32.3103C61.7592 32.0933 62.0003 31.9245 62.2656 31.7798C62.5549 31.6351 62.8684 31.5869 63.23 31.5869C63.4712 31.5869 63.6882 31.6351 63.9293 31.6834C64.1463 31.7316 64.3392 31.8521 64.508 31.9727C64.6768 32.0933 64.8214 32.2379 64.9179 32.455C65.0384 32.6478 65.1108 32.8649 65.1349 33.106H64.5321C64.4598 32.7443 64.3151 32.5032 64.074 32.3344Z" fill="black"/>
<path d="M65.9519 33.9498C66.0243 33.7328 66.1207 33.564 66.2654 33.3952C66.4101 33.2505 66.5788 33.1059 66.7958 33.0094C66.9887 32.913 67.2299 32.8647 67.4951 32.8647C67.7603 32.8647 68.0015 32.913 68.1943 33.0094C68.4114 33.1059 68.5801 33.2264 68.7007 33.3952C68.8454 33.564 68.9418 33.7328 69.0142 33.9498C69.0865 34.1668 69.1347 34.4079 69.1347 34.649C69.1347 34.8902 69.1106 35.1313 69.0142 35.3483C68.9418 35.5653 68.8454 35.7582 68.7007 35.9029C68.5801 36.0717 68.3872 36.1922 68.1943 36.2646C68.0015 36.361 67.7603 36.4092 67.4951 36.4092C67.2299 36.4092 66.9887 36.3851 66.7958 36.2646C66.5788 36.1681 66.4101 36.0475 66.2654 35.9029C66.1207 35.7582 66.0243 35.5653 65.9519 35.3483C65.8796 35.1313 65.8555 34.9143 65.8555 34.649C65.8555 34.4079 65.8796 34.1668 65.9519 33.9498ZM66.5306 35.1795C66.5788 35.3483 66.6512 35.4689 66.7476 35.5653C66.8441 35.6618 66.9405 35.7582 67.0852 35.8305C67.2057 35.8788 67.3504 35.9029 67.4951 35.9029C67.6398 35.9029 67.7844 35.8788 67.8809 35.8305C68.0256 35.7582 68.122 35.6859 68.2185 35.5653C68.3149 35.4447 68.3872 35.3242 68.4355 35.1795C68.4837 35.0107 68.5319 34.8178 68.5319 34.649C68.5319 34.432 68.4837 34.2633 68.4355 34.0945C68.3872 33.9498 68.3149 33.8051 68.2185 33.7087C68.122 33.5881 68.0256 33.5158 67.8809 33.4675C67.7603 33.3952 67.6157 33.3952 67.4951 33.3952C67.3504 33.3952 67.2057 33.4193 67.0852 33.4675C66.9405 33.5158 66.8441 33.6122 66.7476 33.7087C66.6512 33.8292 66.5788 33.9498 66.5306 34.0945C66.4824 34.2633 66.4583 34.432 66.4583 34.649C66.4342 34.8419 66.4583 35.0348 66.5306 35.1795Z" fill="black"/>
<path d="M69.8582 33.9498C69.9305 33.7328 70.0269 33.564 70.1716 33.3952C70.2922 33.2505 70.4851 33.1059 70.678 33.0094C70.8709 32.913 71.112 32.8647 71.3772 32.8647C71.6425 32.8647 71.8836 32.913 72.1006 33.0094C72.2935 33.1059 72.4864 33.2264 72.6069 33.3952C72.7516 33.564 72.8481 33.7328 72.9204 33.9498C72.9927 34.1668 73.0169 34.4079 73.0169 34.649C73.0169 34.8902 72.9686 35.1313 72.9204 35.3483C72.8481 35.5653 72.7516 35.7582 72.6069 35.9029C72.4864 36.0717 72.2935 36.1922 72.1006 36.2646C71.9077 36.361 71.6666 36.4092 71.3772 36.4092C71.112 36.4092 70.8709 36.3851 70.678 36.2646C70.461 36.1681 70.2922 36.0475 70.1716 35.9029C70.0269 35.7582 69.9305 35.5653 69.8582 35.3483C69.7858 35.1313 69.7617 34.9143 69.7617 34.649C69.7617 34.4079 69.7858 34.1668 69.8582 33.9498ZM70.4127 35.1795C70.461 35.3483 70.5333 35.4689 70.6297 35.5653C70.7262 35.6618 70.8468 35.7582 70.9673 35.8305C71.0879 35.8788 71.2326 35.9029 71.3772 35.9029C71.5219 35.9029 71.6666 35.8788 71.7871 35.8305C71.9318 35.7582 72.0283 35.6859 72.1247 35.5653C72.2212 35.4447 72.2935 35.3242 72.3417 35.1795C72.3899 35.0107 72.4141 34.8178 72.4141 34.649C72.4141 34.432 72.3658 34.2633 72.3417 34.0945C72.2935 33.9498 72.197 33.8051 72.1247 33.7087C72.0283 33.5881 71.9077 33.5158 71.7871 33.4675C71.6666 33.3952 71.5219 33.3952 71.3772 33.3952C71.2326 33.3952 71.0879 33.4193 70.9673 33.4675C70.8227 33.5158 70.7262 33.6122 70.6297 33.7087C70.5333 33.8292 70.461 33.9498 70.4127 34.0945C70.3645 34.2633 70.3404 34.432 70.3404 34.649C70.3645 34.8419 70.3645 35.0348 70.4127 35.1795Z" fill="black"/>
<path d="M74.4179 32.9612V33.3952H74.442C74.5384 33.2264 74.6831 33.0818 74.8519 33.0094C75.0689 32.9371 75.2859 32.8647 75.5029 32.8647C75.744 32.8647 75.9851 32.913 76.178 33.0094C76.3709 33.1059 76.5397 33.2264 76.6603 33.3952C76.7808 33.564 76.8773 33.7569 76.9496 33.9739C76.9979 34.1909 77.0461 34.4079 77.0461 34.649C77.0461 34.8902 76.9979 35.1072 76.9496 35.3242C76.8773 35.5412 76.7808 35.71 76.6603 35.8788C76.5397 36.0475 76.3709 36.1681 76.178 36.2646C75.9851 36.361 75.7681 36.4092 75.5029 36.4092C75.4306 36.4092 75.3341 36.4092 75.2377 36.3851C75.1412 36.361 75.0448 36.3369 74.9242 36.2887C74.8278 36.2646 74.7313 36.1922 74.6349 36.144C74.5625 36.0717 74.4661 35.9993 74.4179 35.9029V37.6389H73.8633V32.9612H74.4179ZM76.4192 34.1427C76.3709 33.998 76.3227 33.8533 76.2263 33.7569C76.1298 33.6363 76.0334 33.5399 75.8887 33.4675C75.744 33.3952 75.5994 33.3711 75.4306 33.3711C75.2377 33.3711 75.0689 33.3952 74.9483 33.4675C74.8037 33.5399 74.7072 33.6363 74.6108 33.7569C74.5384 33.8775 74.4661 34.0221 74.442 34.1668C74.3937 34.3115 74.3696 34.4803 74.3696 34.649C74.3696 34.8178 74.3937 34.9625 74.442 35.1313C74.4661 35.276 74.5384 35.4206 74.6349 35.5412C74.7072 35.6618 74.8278 35.7582 74.9483 35.8305C75.093 35.9029 75.2618 35.927 75.4306 35.927C75.6235 35.927 75.7923 35.8788 75.9128 35.8305C76.0334 35.7582 76.1539 35.6618 76.2263 35.5412C76.3227 35.4206 76.3709 35.276 76.3951 35.1313C76.4192 34.9866 76.4433 34.8178 76.4433 34.649C76.4674 34.4561 76.4674 34.3115 76.4192 34.1427Z" fill="black"/>
<path d="M80.2746 36.1202C80.0335 36.3131 79.7201 36.3854 79.3343 36.3854C79.069 36.3854 78.8279 36.3613 78.635 36.2649C78.4421 36.1925 78.2733 36.072 78.1287 35.9032C78.0081 35.7585 77.8875 35.5656 77.8393 35.3486C77.767 35.1316 77.7188 34.8905 77.7188 34.6493C77.7188 34.4082 77.767 34.1671 77.8393 33.9501C77.9116 33.7331 78.0322 33.5643 78.1769 33.3955C78.3216 33.2508 78.4903 33.1062 78.6832 33.0338C78.8761 32.9374 79.0931 32.8892 79.3343 32.8892C79.6236 32.8892 79.8647 32.9615 80.0817 33.0821C80.2746 33.2026 80.4434 33.3473 80.564 33.5643C80.6845 33.7572 80.781 33.9501 80.8292 34.1912C80.8774 34.4082 80.9015 34.6252 80.8774 34.8422H78.2733C78.2733 34.9869 78.2974 35.1316 78.3216 35.2763C78.3457 35.3968 78.4421 35.5174 78.5144 35.6138C78.6109 35.7103 78.7073 35.8067 78.852 35.8549C78.9967 35.9032 79.1414 35.9514 79.3343 35.9514C79.5513 35.9514 79.7442 35.9032 79.9129 35.7826C80.0576 35.6862 80.1541 35.4933 80.2023 35.3004H80.7569C80.6845 35.6379 80.5158 35.9273 80.2746 36.1202ZM80.13 33.9501C80.0817 33.8295 80.0094 33.7331 79.9371 33.6366C79.8647 33.5643 79.7683 33.492 79.6477 33.4437C79.5272 33.3955 79.4066 33.3714 79.2619 33.3714C79.1173 33.3714 78.9967 33.3955 78.8761 33.4437C78.7797 33.492 78.6591 33.5643 78.5868 33.6366C78.4903 33.7331 78.418 33.8295 78.3939 33.9501C78.3457 34.0707 78.3216 34.1912 78.2974 34.3118H80.2505C80.2023 34.1912 80.1782 34.0707 80.13 33.9501Z" fill="black"/>
<path d="M82.0578 32.9612V33.6604C82.2025 33.3952 82.3713 33.1782 82.5642 33.0576C82.7571 32.9371 82.9982 32.8647 83.3116 32.8647V33.4675C83.0946 33.4675 82.9017 33.4917 82.733 33.5399C82.5883 33.6122 82.4436 33.6846 82.3472 33.8051C82.2748 33.9257 82.1784 34.0704 82.1301 34.2391C82.0819 34.4079 82.0819 34.6008 82.0819 34.8178V36.3128H81.5273V32.9371H82.0578V32.9612Z" fill="black"/>
<path d="M86.4714 36.3851C86.3268 36.3851 86.2303 36.361 86.1339 36.2646C86.0374 36.1681 85.9892 36.0475 85.9892 35.8788C85.8445 36.0717 85.6757 36.1922 85.4587 36.2646C85.2658 36.3369 85.0488 36.3851 84.8077 36.3851C84.663 36.3851 84.5184 36.361 84.3978 36.3369C84.2772 36.3128 84.1326 36.2646 84.0361 36.1681C83.9156 36.0958 83.8673 35.9993 83.795 35.8788C83.7227 35.7582 83.7227 35.6135 83.7227 35.4447C83.7227 35.2518 83.7468 35.1072 83.8191 34.9625C83.8673 34.8419 83.9638 34.7455 84.0843 34.6732C84.1808 34.6008 84.3013 34.5526 84.446 34.5044C84.5907 34.4561 84.7112 34.432 84.8559 34.4079C85.0006 34.3838 85.1453 34.3597 85.2899 34.3356C85.4346 34.3356 85.5552 34.3115 85.6516 34.2874C85.7481 34.2632 85.8445 34.215 85.8927 34.1668C85.941 34.1186 85.9892 34.0221 85.9892 33.9257C85.9892 33.8051 85.9651 33.7087 85.9169 33.6363C85.8686 33.564 85.8204 33.4917 85.7481 33.4675C85.6757 33.4193 85.6034 33.3952 85.507 33.3711C85.4346 33.3711 85.3382 33.3711 85.2417 33.3711C85.0006 33.3711 84.8077 33.3952 84.6389 33.4917C84.4942 33.5881 84.3978 33.7328 84.3978 33.998H83.8432C83.8432 33.781 83.8914 33.6122 83.9638 33.4675C84.0361 33.3229 84.1326 33.2023 84.2772 33.13C84.3978 33.0576 84.5666 32.9612 84.7113 32.9371C84.88 32.913 85.0729 32.8647 85.2658 32.8647C85.4105 32.8647 85.5552 32.8889 85.724 32.913C85.8686 32.9371 86.0133 32.9612 86.1339 33.0576C86.2544 33.13 86.3509 33.2264 86.4473 33.347C86.5197 33.4675 86.5679 33.6122 86.5679 33.8051V35.5412C86.5679 35.6618 86.5679 35.7823 86.592 35.8305C86.6161 35.8788 86.6643 35.927 86.7367 35.927C86.7849 35.927 86.8572 35.9029 86.9055 35.9029V36.3369C86.7849 36.3851 86.6402 36.3851 86.4714 36.3851ZM85.6757 34.6973C85.5552 34.7214 85.4587 34.7214 85.3141 34.7455C85.1935 34.7696 85.0729 34.7937 84.9524 34.7937C84.8318 34.8178 84.7112 34.8419 84.6148 34.8661C84.5184 34.9143 84.446 34.9866 84.3737 35.059C84.3255 35.1554 84.2772 35.2518 84.2772 35.3965C84.2772 35.493 84.3013 35.5653 84.3255 35.6135C84.3737 35.6859 84.4219 35.7341 84.4942 35.7823C84.5425 35.8305 84.6148 35.8546 84.6871 35.8788C84.7836 35.8788 84.8559 35.9029 84.9524 35.9029C85.1212 35.9029 85.2899 35.8788 85.4105 35.8305C85.5311 35.7823 85.6516 35.71 85.724 35.6376C85.8204 35.5653 85.8686 35.493 85.9169 35.3965C85.9651 35.3242 85.9892 35.2277 85.9892 35.1554V34.5767C85.8927 34.649 85.8204 34.6732 85.6757 34.6973Z" fill="black"/>
<path d="M89.0037 32.9613V33.4676H88.3286V35.5654C88.3286 35.6377 88.3286 35.6859 88.3286 35.7341C88.3527 35.7583 88.3527 35.8065 88.4009 35.8306C88.425 35.8547 88.4733 35.8547 88.5215 35.8788C88.5697 35.8788 88.642 35.8788 88.7385 35.8788H88.9796V36.3611H88.5456C88.4009 36.3611 88.2804 36.3611 88.1839 36.3369C88.0634 36.3128 87.991 36.2887 87.9187 36.2164C87.8705 36.1682 87.7981 36.0958 87.7981 35.9994C87.774 35.9029 87.7499 35.7824 87.7499 35.6136V33.4917H87.1953V32.9854H87.774V31.9727H88.3286V32.9854H89.0037V32.9613Z" fill="black"/>
<path d="M89.8008 31.6836H90.3554V32.3587H89.8008V31.6836ZM90.3554 36.3131H89.8008V32.9374H90.3554V36.3131Z" fill="black"/>
<path d="M92.3085 36.313L91.0547 32.9614H91.6575L92.622 35.7825H92.6461L93.5382 32.9614H94.141L92.8872 36.313H92.3085Z" fill="black"/>
<path d="M97.394 36.3851C97.2493 36.3851 97.1529 36.361 97.0564 36.2646C96.96 36.1681 96.9359 36.0475 96.9359 35.8788C96.7671 36.0717 96.5983 36.1922 96.4054 36.2646C96.2125 36.3369 95.9955 36.3851 95.7544 36.3851C95.6097 36.3851 95.465 36.361 95.3204 36.3369C95.1757 36.3128 95.0551 36.2646 94.9587 36.1681C94.8381 36.0958 94.7658 35.9993 94.7175 35.8788C94.6452 35.7582 94.6211 35.6135 94.6211 35.4447C94.6211 35.2518 94.6452 35.1072 94.7175 34.9625C94.7658 34.8419 94.8622 34.7455 94.9828 34.6732C95.0792 34.6008 95.1998 34.5526 95.3445 34.5044C95.4891 34.4561 95.6097 34.432 95.7785 34.4079C95.9232 34.3838 96.0678 34.3597 96.2125 34.3356C96.3572 34.3356 96.4777 34.3115 96.5742 34.2874C96.6706 34.2632 96.743 34.215 96.8153 34.1668C96.8635 34.1186 96.8876 34.0221 96.8876 33.9257C96.8876 33.8051 96.8635 33.7087 96.8153 33.6363C96.7671 33.564 96.7189 33.4917 96.6465 33.4675C96.5742 33.4193 96.5018 33.3952 96.4054 33.3711C96.3089 33.3711 96.2125 33.3711 96.1402 33.3711C95.899 33.3711 95.7061 33.3952 95.5615 33.4917C95.3927 33.5881 95.3203 33.7328 95.2962 33.998H94.7417C94.7417 33.781 94.7899 33.6122 94.8622 33.4675C94.9587 33.3229 95.0551 33.2023 95.1757 33.13C95.2962 33.0576 95.465 32.9612 95.6338 32.9371C95.8026 32.913 95.9714 32.8647 96.1643 32.8647C96.3089 32.8647 96.4536 32.8889 96.6224 32.913C96.7912 32.9371 96.9117 32.9612 97.0323 33.0576C97.1529 33.13 97.2493 33.2264 97.3217 33.347C97.394 33.4675 97.4422 33.6122 97.4422 33.8051V35.5412C97.4422 35.6618 97.4663 35.7823 97.4663 35.8305C97.4904 35.8788 97.5387 35.927 97.611 35.927C97.6592 35.927 97.7316 35.9029 97.7798 35.9029V36.3369C97.6833 36.3851 97.5628 36.3851 97.394 36.3851ZM96.6224 34.6973C96.5018 34.7214 96.3813 34.7214 96.2607 34.7455C96.1402 34.7696 96.0196 34.7937 95.899 34.7937C95.7785 34.8178 95.6579 34.8419 95.5615 34.8661C95.465 34.9143 95.3686 34.9866 95.3204 35.059C95.248 35.1554 95.2239 35.2518 95.2239 35.3965C95.2239 35.493 95.248 35.5653 95.2962 35.6135C95.3203 35.6859 95.3686 35.7341 95.4409 35.7823C95.4891 35.8305 95.5615 35.8546 95.6338 35.8788C95.7303 35.8788 95.8026 35.9029 95.899 35.9029C96.0919 35.9029 96.2366 35.8788 96.3572 35.8305C96.5018 35.7823 96.5983 35.71 96.6706 35.6376C96.7671 35.5653 96.8153 35.493 96.8394 35.3965C96.8876 35.3242 96.9117 35.2277 96.9117 35.1554V34.5767C96.8153 34.649 96.743 34.6732 96.6224 34.6973Z" fill="black"/>
<path d="M102.891 36.3129V35.8548H102.867C102.77 36.0477 102.625 36.1683 102.432 36.2647C102.24 36.3371 102.023 36.3853 101.806 36.3853C101.54 36.3853 101.323 36.337 101.106 36.2406C100.913 36.1442 100.769 36.0236 100.624 35.8548C100.504 35.7101 100.407 35.5172 100.335 35.3002C100.262 35.0832 100.238 34.8662 100.238 34.6251C100.238 34.384 100.262 34.167 100.335 33.9499C100.383 33.7329 100.479 33.54 100.624 33.3954C100.745 33.2266 100.913 33.106 101.106 33.0337C101.299 32.9372 101.516 32.889 101.781 32.889C101.854 32.889 101.95 32.889 102.071 32.9372C102.167 32.9614 102.264 32.9855 102.36 33.0337C102.457 33.0819 102.553 33.1301 102.649 33.2025C102.746 33.2507 102.818 33.3471 102.891 33.4436H102.915V31.7075H103.469V36.3612H102.891V36.3129ZM100.913 35.1314C100.962 35.2761 101.01 35.4208 101.106 35.5414C101.179 35.6619 101.299 35.7584 101.42 35.8307C101.54 35.903 101.709 35.9271 101.878 35.9271C102.071 35.9271 102.24 35.8789 102.36 35.8307C102.505 35.7584 102.601 35.6619 102.674 35.5414C102.746 35.3967 102.818 35.2761 102.842 35.1314C102.891 34.9627 102.891 34.818 102.891 34.6733C102.891 34.5045 102.867 34.3357 102.842 34.1911C102.818 34.0464 102.746 33.9017 102.649 33.7812C102.553 33.6606 102.457 33.5883 102.312 33.4918C102.167 33.4195 101.998 33.3954 101.83 33.3954C101.637 33.3954 101.492 33.4195 101.347 33.4918C101.227 33.5642 101.13 33.6606 101.034 33.7812C100.962 33.9017 100.889 34.0464 100.865 34.1911C100.841 34.3599 100.817 34.5045 100.817 34.6733C100.841 34.818 100.865 34.9868 100.913 35.1314Z" fill="black"/>
<path d="M106.873 36.1202C106.608 36.3131 106.294 36.3854 105.908 36.3854C105.643 36.3854 105.402 36.3613 105.209 36.2649C105.016 36.1925 104.848 36.072 104.703 35.9032C104.582 35.7585 104.462 35.5656 104.389 35.3486C104.341 35.1316 104.293 34.8905 104.293 34.6493C104.293 34.4082 104.341 34.1671 104.414 33.9501C104.51 33.7331 104.606 33.5643 104.751 33.3955C104.896 33.2508 105.065 33.1062 105.257 33.0338C105.45 32.9374 105.667 32.8892 105.908 32.8892C106.198 32.8892 106.463 32.9615 106.656 33.0821C106.849 33.2026 107.018 33.3473 107.138 33.5643C107.259 33.7572 107.331 33.9501 107.379 34.1912C107.403 34.4082 107.452 34.6252 107.428 34.8422H104.92C104.92 34.9869 104.92 35.1316 104.968 35.2763C105.016 35.3968 105.089 35.5174 105.161 35.6138C105.233 35.7103 105.354 35.8067 105.474 35.8549C105.619 35.9032 105.764 35.9514 105.957 35.9514C106.198 35.9514 106.391 35.9032 106.535 35.7826C106.68 35.6862 106.777 35.4933 106.825 35.3004H107.379C107.283 35.6379 107.114 35.9273 106.873 36.1202ZM106.728 33.9501C106.68 33.8295 106.608 33.7331 106.535 33.6366C106.439 33.5643 106.342 33.492 106.246 33.4437C106.125 33.3955 106.005 33.3714 105.86 33.3714C105.716 33.3714 105.595 33.3955 105.474 33.4437C105.354 33.492 105.257 33.5643 105.185 33.6366C105.113 33.7331 105.04 33.8295 104.992 33.9501C104.944 34.0707 104.92 34.1912 104.92 34.3118H106.849C106.801 34.1912 106.777 34.0707 106.728 33.9501Z" fill="black"/>
<path d="M112.151 31.6836L113.983 36.3372H113.308L112.802 34.9387H110.825L110.318 36.3372H109.691L111.5 31.6836H112.151ZM112.585 34.4083L111.789 32.2382L110.993 34.4083H112.585Z" fill="black"/>
<path d="M116.517 33.5398C116.372 33.4192 116.204 33.3469 115.962 33.3469C115.745 33.3469 115.601 33.371 115.456 33.4433C115.311 33.5157 115.215 33.6121 115.143 33.7327C115.07 33.8532 114.998 33.9979 114.974 34.1667C114.95 34.3114 114.926 34.4801 114.926 34.6489C114.926 34.8177 114.95 34.9624 114.974 35.1071C115.022 35.2517 115.07 35.3964 115.143 35.4929C115.239 35.6134 115.336 35.6857 115.456 35.7581C115.601 35.8304 115.721 35.8545 115.914 35.8545C116.179 35.8545 116.397 35.7822 116.565 35.6375C116.71 35.4929 116.806 35.3 116.855 35.0347H117.409C117.361 35.4446 117.216 35.734 116.975 35.9751C116.734 36.1921 116.421 36.3127 116.035 36.3368L115.818 36.602V36.6261C115.866 36.602 115.938 36.5779 116.035 36.5779C116.179 36.5779 116.3 36.6261 116.421 36.6985C116.517 36.7708 116.589 36.8914 116.589 37.0601C116.589 37.1566 116.565 37.253 116.517 37.3254C116.469 37.3977 116.397 37.47 116.324 37.4942C116.252 37.5424 116.155 37.5906 116.083 37.5906C115.987 37.6147 115.89 37.6388 115.794 37.6388C115.697 37.6388 115.577 37.6147 115.48 37.5906C115.384 37.5665 115.287 37.5424 115.191 37.5183L115.311 37.2289C115.36 37.253 115.432 37.2771 115.504 37.3013C115.577 37.3013 115.649 37.3254 115.697 37.3254C115.745 37.3254 115.794 37.3254 115.818 37.3013C115.89 37.3013 115.914 37.2771 115.962 37.2771C116.011 37.253 116.059 37.2289 116.059 37.2048C116.083 37.1807 116.083 37.1566 116.083 37.1084C116.083 37.0601 116.059 37.0119 116.011 36.9637C115.938 36.9396 115.866 36.9155 115.77 36.9155C115.721 36.9155 115.673 36.9155 115.649 36.9396C115.601 36.9396 115.553 36.9637 115.504 36.9637L115.408 36.7708L115.745 36.3368C115.528 36.3368 115.311 36.2644 115.143 36.168C114.974 36.0957 114.829 35.951 114.709 35.8063C114.588 35.6616 114.516 35.4929 114.443 35.2758C114.395 35.0829 114.371 34.8659 114.371 34.6007C114.371 34.3596 114.395 34.1185 114.468 33.9015C114.516 33.6844 114.612 33.4915 114.757 33.3228C114.902 33.1781 115.07 33.0334 115.263 32.9611C115.456 32.8646 115.697 32.8164 115.962 32.8164C116.155 32.8164 116.324 32.8646 116.493 32.8887C116.662 32.937 116.806 33.0093 116.951 33.1058C117.072 33.1781 117.168 33.3228 117.265 33.4674C117.361 33.6121 117.385 33.7809 117.433 33.9979H116.855C116.758 33.8291 116.662 33.6603 116.517 33.5398Z" fill="black"/>
<path d="M120.761 36.3853C120.617 36.3853 120.496 36.3612 120.424 36.2647C120.327 36.1683 120.303 36.0477 120.303 35.8789C120.158 36.0718 119.965 36.1924 119.773 36.2647C119.58 36.3371 119.339 36.3853 119.122 36.3853C118.977 36.3853 118.832 36.3612 118.688 36.337C118.543 36.3129 118.422 36.2647 118.326 36.1683C118.229 36.0959 118.157 35.9995 118.085 35.8789C118.036 35.7584 117.988 35.6137 117.988 35.4449C117.988 35.252 118.012 35.1073 118.085 34.9627C118.133 34.8421 118.229 34.7456 118.35 34.6733C118.446 34.601 118.567 34.5528 118.712 34.5045C118.856 34.4563 118.977 34.4322 119.122 34.4081C119.266 34.384 119.411 34.3599 119.556 34.3357C119.7 34.3357 119.821 34.3116 119.917 34.2875C120.014 34.2634 120.11 34.2152 120.158 34.167C120.231 34.1187 120.255 34.0223 120.255 33.9258C120.255 33.8053 120.231 33.7088 120.182 33.6365C120.134 33.5642 120.062 33.4918 120.014 33.4677C119.941 33.4195 119.845 33.3954 119.773 33.3713C119.676 33.3713 119.58 33.3713 119.507 33.3713C119.266 33.3713 119.073 33.3954 118.929 33.4918C118.76 33.5883 118.688 33.7329 118.663 33.9982H118.109C118.133 33.7812 118.181 33.6124 118.254 33.4677C118.326 33.323 118.446 33.2025 118.567 33.1301C118.712 33.0578 118.856 32.9614 119.025 32.9372C119.194 32.9131 119.363 32.8649 119.556 32.8649C119.7 32.8649 119.869 32.889 119.99 32.9131C120.158 32.9372 120.279 32.9614 120.399 33.0578C120.52 33.1301 120.617 33.2266 120.689 33.3471C120.761 33.4677 120.809 33.6124 120.809 33.8053V35.5414C120.809 35.6619 120.809 35.7825 120.834 35.8307C120.834 35.8789 120.906 35.9271 120.978 35.9271C121.026 35.9271 121.075 35.903 121.147 35.903V36.337C121.051 36.3853 120.93 36.3853 120.761 36.3853ZM120.448 32.2139C120.399 32.2621 120.303 32.3103 120.231 32.3585C120.158 32.4068 120.038 32.4309 119.917 32.4309C119.869 32.4309 119.797 32.4068 119.724 32.3827C119.652 32.3585 119.58 32.3344 119.483 32.3103C119.411 32.2621 119.314 32.238 119.242 32.2139C119.17 32.1898 119.097 32.1657 119.049 32.1657C118.977 32.1657 118.905 32.1898 118.832 32.238C118.76 32.2862 118.712 32.3585 118.736 32.455H118.398C118.422 32.3585 118.446 32.238 118.495 32.1657C118.519 32.0692 118.567 31.9969 118.639 31.9486C118.688 31.8763 118.76 31.8281 118.808 31.804C118.88 31.7799 118.977 31.7316 119.073 31.7316C119.17 31.7316 119.242 31.7557 119.314 31.7799C119.411 31.804 119.483 31.8281 119.556 31.8522C119.628 31.8763 119.7 31.9245 119.773 31.9486C119.845 31.9728 119.917 31.9969 119.99 31.9969C120.062 31.9969 120.134 31.9486 120.182 31.9004C120.231 31.8281 120.255 31.7557 120.279 31.7075H120.616C120.616 31.9004 120.544 32.0692 120.448 32.2139ZM119.99 34.6974C119.869 34.7215 119.773 34.7215 119.628 34.7456C119.507 34.7698 119.387 34.7939 119.266 34.7939C119.146 34.818 119.025 34.8421 118.905 34.8662C118.808 34.9144 118.736 34.9868 118.663 35.0591C118.615 35.1556 118.567 35.252 118.567 35.3967C118.567 35.4931 118.591 35.5655 118.639 35.6137C118.663 35.686 118.712 35.7342 118.784 35.7825C118.832 35.8307 118.905 35.8548 119.001 35.8789C119.073 35.8789 119.146 35.903 119.242 35.903C119.411 35.903 119.58 35.8789 119.7 35.8307C119.845 35.7825 119.941 35.7101 120.014 35.6378C120.11 35.5655 120.158 35.4931 120.207 35.3967C120.231 35.3243 120.255 35.2279 120.255 35.1556V34.5769C120.182 34.6492 120.11 34.6733 119.99 34.6974Z" fill="black"/>
<path d="M121.775 33.9498C121.847 33.7328 121.943 33.564 122.088 33.3952C122.233 33.2505 122.402 33.1059 122.619 33.0094C122.811 32.913 123.053 32.8647 123.318 32.8647C123.583 32.8647 123.824 32.913 124.017 33.0094C124.21 33.1059 124.403 33.2264 124.523 33.3952C124.668 33.564 124.764 33.7328 124.837 33.9498C124.909 34.1668 124.933 34.4079 124.933 34.649C124.933 34.8902 124.909 35.1313 124.837 35.3483C124.764 35.5653 124.668 35.7582 124.523 35.9029C124.379 36.0717 124.21 36.1922 124.017 36.2646C123.824 36.361 123.583 36.4092 123.318 36.4092C123.053 36.4092 122.811 36.3851 122.619 36.2646C122.402 36.1681 122.233 36.0475 122.088 35.9029C121.943 35.7582 121.847 35.5653 121.775 35.3483C121.702 35.1313 121.678 34.9143 121.678 34.649C121.654 34.4079 121.702 34.1668 121.775 33.9498ZM122.329 35.1795C122.377 35.3483 122.45 35.4689 122.546 35.5653C122.667 35.6618 122.763 35.7582 122.884 35.8305C123.004 35.8788 123.149 35.9029 123.294 35.9029C123.438 35.9029 123.583 35.8788 123.704 35.8305C123.824 35.7582 123.945 35.6859 124.041 35.5653C124.138 35.4447 124.234 35.3242 124.282 35.1795C124.33 35.0107 124.355 34.8178 124.355 34.649C124.355 34.432 124.33 34.2633 124.282 34.0945C124.234 33.9498 124.138 33.8051 124.041 33.7087C123.945 33.5881 123.824 33.5158 123.704 33.4675C123.583 33.3952 123.438 33.3952 123.294 33.3952C123.149 33.3952 123.004 33.4193 122.884 33.4675C122.763 33.5158 122.643 33.6122 122.546 33.7087C122.45 33.8292 122.377 33.9498 122.329 34.0945C122.281 34.2633 122.257 34.432 122.257 34.649C122.257 34.8419 122.281 35.0348 122.329 35.1795Z" fill="black"/>
<path d="M130.623 32.3344C130.382 32.1656 130.093 32.0692 129.779 32.0692C129.514 32.0692 129.249 32.1415 129.08 32.2379C128.887 32.3344 128.719 32.4791 128.574 32.6478C128.453 32.8166 128.357 33.0336 128.285 33.2507C128.236 33.4918 128.188 33.7329 128.188 33.974C128.188 34.2393 128.236 34.5045 128.285 34.7456C128.357 34.9626 128.453 35.1796 128.574 35.3484C128.694 35.5413 128.863 35.6619 129.08 35.7824C129.273 35.8789 129.538 35.9271 129.804 35.9271C130.021 35.9271 130.189 35.903 130.358 35.8306C130.503 35.7824 130.672 35.686 130.768 35.5654C130.865 35.4449 130.961 35.3002 131.033 35.1314C131.106 34.9626 131.154 34.7697 131.154 34.6009H131.757C131.708 35.1796 131.491 35.6378 131.154 35.9753C130.816 36.3129 130.334 36.4817 129.755 36.4817C129.394 36.4817 129.08 36.4093 128.815 36.2888C128.55 36.1682 128.309 35.9753 128.14 35.7824C127.971 35.5654 127.826 35.3002 127.73 35.0108C127.633 34.7215 127.609 34.3839 127.609 34.0464C127.609 33.7088 127.658 33.3953 127.73 33.0819C127.826 32.7925 127.971 32.5273 128.164 32.3103C128.357 32.0933 128.574 31.9245 128.863 31.7798C129.128 31.6351 129.466 31.5869 129.804 31.5869C130.045 31.5869 130.286 31.6351 130.503 31.6834C130.72 31.7316 130.913 31.8521 131.082 31.9727C131.25 32.0933 131.395 32.2379 131.491 32.455C131.612 32.6478 131.684 32.8649 131.708 33.106H131.082C131.009 32.7443 130.865 32.5032 130.623 32.3344Z" fill="black"/>
<path d="M134.864 36.3127V35.7822C134.744 35.9751 134.599 36.1439 134.406 36.2404C134.237 36.3368 133.996 36.385 133.755 36.385C133.514 36.385 133.345 36.3609 133.2 36.2886C133.056 36.2404 132.935 36.168 132.839 36.0475C132.742 35.9269 132.67 35.8064 132.646 35.6617C132.622 35.517 132.598 35.3482 132.598 35.1553V32.937H133.152V35.2277C133.152 35.4447 133.2 35.6135 133.321 35.734C133.442 35.8546 133.61 35.9028 133.827 35.9028C133.996 35.9028 134.141 35.8787 134.261 35.8305C134.382 35.7822 134.478 35.7099 134.575 35.6135C134.671 35.517 134.72 35.3964 134.768 35.2759C134.792 35.1553 134.84 35.0107 134.84 34.8419V32.937H135.395V36.3127H134.864Z" fill="black"/>
<path d="M136.965 31.6836H136.41V36.3372H136.965V31.6836Z" fill="black"/>
<path d="M139.422 32.9613V33.4676H138.747V35.5654C138.747 35.6377 138.747 35.6859 138.771 35.7341C138.771 35.7583 138.795 35.8065 138.819 35.8306C138.843 35.8547 138.891 35.8547 138.939 35.8788C139.012 35.8788 139.084 35.8788 139.156 35.8788H139.398V36.3611H138.988C138.843 36.3611 138.722 36.3611 138.602 36.3369C138.505 36.3128 138.409 36.2887 138.361 36.2164C138.313 36.1682 138.24 36.0958 138.216 35.9994C138.168 35.9029 138.168 35.7824 138.168 35.6136V33.4917H137.613V32.9854H138.168V31.9727H138.722V32.9854H139.422V32.9613Z" fill="black"/>
<path d="M142.485 36.3127V35.7822H142.461C142.341 35.9751 142.196 36.1439 142.027 36.2404C141.834 36.3368 141.641 36.385 141.376 36.385C141.159 36.385 140.966 36.3609 140.822 36.2886C140.677 36.2404 140.556 36.168 140.46 36.0475C140.363 35.9269 140.291 35.8064 140.267 35.6617C140.219 35.517 140.219 35.3482 140.219 35.1553V32.937H140.773V35.2277C140.773 35.4447 140.822 35.6135 140.942 35.734C141.063 35.8546 141.231 35.9028 141.448 35.9028C141.617 35.9028 141.762 35.8787 141.882 35.8305C142.027 35.7822 142.099 35.7099 142.196 35.6135C142.268 35.517 142.341 35.3964 142.389 35.2759C142.413 35.1553 142.437 35.0107 142.437 34.8419V32.937H142.992V36.3127H142.485Z" fill="black"/>
<path d="M144.512 32.9612V33.6604C144.656 33.3952 144.801 33.1782 145.018 33.0576C145.211 32.9371 145.452 32.8647 145.765 32.8647V33.4675C145.524 33.4675 145.331 33.4917 145.187 33.5399C145.042 33.6122 144.922 33.6846 144.801 33.8051C144.705 33.9257 144.632 34.0704 144.584 34.2391C144.536 34.4079 144.512 34.6008 144.512 34.8178V36.3128H143.957V32.9371H144.512V32.9612Z" fill="black"/>
<path d="M148.921 36.3851C148.776 36.3851 148.655 36.361 148.583 36.2646C148.511 36.1681 148.463 36.0475 148.463 35.8788C148.318 36.0717 148.125 36.1922 147.932 36.2646C147.739 36.3369 147.522 36.3851 147.281 36.3851C147.136 36.3851 146.992 36.361 146.847 36.3369C146.726 36.3128 146.582 36.2646 146.509 36.1681C146.413 36.0958 146.317 35.9993 146.268 35.8788C146.196 35.7582 146.172 35.6135 146.172 35.4447C146.172 35.2518 146.196 35.1072 146.268 34.9625C146.341 34.8419 146.413 34.7455 146.534 34.6732C146.63 34.6008 146.775 34.5526 146.895 34.5044C147.04 34.4561 147.185 34.432 147.329 34.4079C147.474 34.3838 147.619 34.3597 147.763 34.3356C147.908 34.3356 148.029 34.3115 148.125 34.2874C148.221 34.2632 148.318 34.215 148.366 34.1668C148.414 34.1186 148.463 34.0221 148.463 33.9257C148.463 33.8051 148.438 33.7087 148.39 33.6363C148.342 33.564 148.294 33.4917 148.221 33.4675C148.149 33.4193 148.077 33.3952 147.98 33.3711C147.884 33.3711 147.812 33.3711 147.691 33.3711C147.474 33.3711 147.281 33.3952 147.112 33.4917C146.968 33.5881 146.871 33.7328 146.847 33.998H146.292C146.292 33.781 146.341 33.6122 146.413 33.4675C146.485 33.3229 146.606 33.2023 146.726 33.13C146.871 33.0576 147.016 32.9612 147.185 32.9371C147.353 32.913 147.522 32.8647 147.715 32.8647C147.884 32.8647 148.029 32.8889 148.173 32.913C148.342 32.9371 148.463 32.9612 148.583 33.0576C148.704 33.13 148.8 33.2264 148.872 33.347C148.945 33.4675 148.993 33.6122 148.993 33.8051V35.5412C148.993 35.6618 149.017 35.7823 149.017 35.8305C149.041 35.8788 149.089 35.927 149.162 35.927C149.21 35.927 149.282 35.9029 149.331 35.9029V36.3369C149.234 36.3851 149.089 36.3851 148.921 36.3851ZM148.149 34.6973C148.029 34.7214 147.908 34.7214 147.812 34.7455C147.691 34.7696 147.546 34.7937 147.426 34.7937C147.305 34.8178 147.185 34.8419 147.088 34.8661C146.992 34.9143 146.919 34.9866 146.847 35.059C146.799 35.1554 146.751 35.2518 146.751 35.3965C146.751 35.493 146.751 35.5653 146.799 35.6135C146.847 35.6859 146.871 35.7341 146.943 35.7823C146.992 35.8305 147.064 35.8546 147.16 35.8788C147.257 35.8788 147.329 35.9029 147.402 35.9029C147.57 35.9029 147.739 35.8788 147.884 35.8305C148.004 35.7823 148.125 35.71 148.197 35.6376C148.294 35.5653 148.342 35.493 148.366 35.3965C148.414 35.3242 148.438 35.2277 148.438 35.1554V34.5767C148.342 34.649 148.27 34.6732 148.149 34.6973Z" fill="black"/>
<path d="M150.586 31.6836H150.031V36.3372H150.586V31.6836Z" fill="black"/>
</svg>
