<svg width="9" height="41" viewBox="0 0 9 41" fill="none" xmlns="http://www.w3.org/2000/svg">
<path d="M0.189999 36.809L0.189999 36.16L8 32.915L8 33.729L5.558 34.741L5.558 38.25L8 39.251L8 40.076L0.189999 36.809ZM4.953 34.917L1.092 36.49L4.953 38.085L4.953 34.917ZM8 31.7954L0.189999 31.7954L0.189999 28.5614C0.189999 28.2241 0.263332 27.9161 0.409999 27.6374C0.549332 27.3514 0.736332 27.1057 0.970999 26.9004C1.19833 26.6951 1.45867 26.5337 1.752 26.4164C2.04533 26.2991 2.34233 26.2404 2.643 26.2404C2.96567 26.2404 3.27733 26.2954 3.578 26.4054C3.87133 26.5154 4.13167 26.6694 4.359 26.8674C4.58633 27.0654 4.76967 27.3037 4.909 27.5824C5.04833 27.8537 5.118 28.1581 5.118 28.4954L5.118 31.0254L8 31.0254L8 31.7954ZM4.436 31.0254L4.436 28.5284C4.436 28.3011 4.38833 28.0957 4.293 27.9124C4.19033 27.7217 4.05833 27.5604 3.897 27.4284C3.72833 27.2964 3.53767 27.1937 3.325 27.1204C3.105 27.0471 2.87767 27.0104 2.643 27.0104C2.401 27.0104 2.17367 27.0544 1.961 27.1424C1.741 27.2231 1.55033 27.3367 1.389 27.4834C1.22767 27.6227 1.103 27.7914 1.015 27.9894C0.919666 28.1801 0.871999 28.3817 0.871999 28.5944L0.872 31.0254L4.436 31.0254ZM8.055 21.8066C8.055 22.3493 7.945 22.848 7.725 23.3026C7.49767 23.75 7.20067 24.135 6.834 24.4576C6.46 24.7803 6.03467 25.0296 5.558 25.2056C5.08133 25.3816 4.59367 25.4696 4.095 25.4696C3.57433 25.4696 3.07567 25.378 2.599 25.1946C2.12233 25.004 1.70067 24.7436 1.334 24.4136C0.967332 24.0836 0.677666 23.695 0.464999 23.2476C0.244999 22.8003 0.134999 22.3163 0.134999 21.7956C0.134999 21.253 0.252332 20.758 0.486999 20.3106C0.714332 19.856 1.015 19.471 1.389 19.1556C1.763 18.833 2.18833 18.5836 2.665 18.4076C3.13433 18.2316 3.61467 18.1436 4.106 18.1436C4.62667 18.1436 5.12533 18.239 5.602 18.4296C6.07867 18.613 6.50033 18.8696 6.867 19.1996C7.22633 19.5223 7.516 19.9073 7.736 20.3546C7.94867 20.802 8.055 21.286 8.055 21.8066ZM4.095 24.6996C4.52033 24.6996 4.931 24.63 5.327 24.4906C5.71567 24.3513 6.064 24.1533 6.372 23.8966C6.67267 23.64 6.91467 23.3356 7.098 22.9836C7.274 22.6316 7.362 22.2393 7.362 21.8066C7.362 21.3666 7.26667 20.967 7.076 20.6076C6.88533 20.2483 6.636 19.944 6.328 19.6946C6.02 19.4453 5.67167 19.2546 5.283 19.1226C4.89433 18.9833 4.49833 18.9136 4.095 18.9136C3.66967 18.9136 3.26267 18.987 2.874 19.1336C2.478 19.273 2.12967 19.471 1.829 19.7276C1.52833 19.9843 1.29 20.2886 1.114 20.6406C0.930665 20.9926 0.838999 21.3813 0.838999 21.8066C0.838999 22.2466 0.934332 22.6463 1.125 23.0056C1.30833 23.365 1.554 23.6693 1.862 23.9186C2.17 24.168 2.51833 24.3623 2.907 24.5016C3.29567 24.6336 3.69167 24.6996 4.095 24.6996ZM8 16.6919L0.189999 16.6919L0.189998 15.9219L8 15.9219L8 16.6919ZM8.055 10.8174C8.055 11.36 7.945 11.8587 7.725 12.3134C7.49767 12.7607 7.20067 13.1457 6.834 13.4684C6.46 13.791 6.03467 14.0404 5.558 14.2164C5.08133 14.3924 4.59367 14.4804 4.095 14.4804C3.57433 14.4804 3.07567 14.3887 2.599 14.2054C2.12233 14.0147 1.70067 13.7544 1.334 13.4244C0.967332 13.0944 0.677665 12.7057 0.464998 12.2584C0.244998 11.811 0.134998 11.327 0.134998 10.8064C0.134998 10.2637 0.252332 9.76872 0.486998 9.32138C0.714332 8.86672 1.015 8.48172 1.389 8.16638C1.763 7.84372 2.18833 7.59438 2.665 7.41838C3.13433 7.24238 3.61466 7.15438 4.106 7.15438C4.62667 7.15438 5.12533 7.24972 5.602 7.44038C6.07867 7.62372 6.50033 7.88038 6.867 8.21038C7.22633 8.53305 7.516 8.91805 7.736 9.36538C7.94867 9.81272 8.055 10.2967 8.055 10.8174ZM4.095 13.7104C4.52033 13.7104 4.931 13.6407 5.327 13.5014C5.71567 13.362 6.064 13.164 6.372 12.9074C6.67267 12.6507 6.91467 12.3464 7.098 11.9944C7.274 11.6424 7.362 11.25 7.362 10.8174C7.362 10.3774 7.26667 9.97772 7.076 9.61838C6.88533 9.25905 6.636 8.95472 6.328 8.70538C6.02 8.45605 5.67167 8.26538 5.283 8.13338C4.89433 7.99405 4.49833 7.92438 4.095 7.92438C3.66967 7.92438 3.26267 7.99772 2.874 8.14438C2.478 8.28372 2.12966 8.48172 1.829 8.73838C1.52833 8.99505 1.29 9.29938 1.114 9.65138C0.930665 10.0034 0.838998 10.392 0.838998 10.8174C0.838998 11.2574 0.934332 11.657 1.125 12.0164C1.30833 12.3757 1.554 12.68 1.862 12.9294C2.17 13.1787 2.51833 13.373 2.907 13.5124C3.29567 13.6444 3.69167 13.7104 4.095 13.7104ZM1.653 1.13764C1.40366 1.35764 1.202 1.65097 1.048 2.01764C0.893998 2.38431 0.816998 2.80231 0.816998 3.27164C0.816998 3.96097 0.948998 4.46331 1.213 4.77864C1.46966 5.09397 1.82166 5.25164 2.269 5.25164C2.50366 5.25164 2.698 5.21131 2.852 5.13064C2.99866 5.04264 3.127 4.91064 3.237 4.73464C3.347 4.55864 3.44233 4.33497 3.523 4.06364C3.60366 3.78497 3.68433 3.45864 3.765 3.08464C3.853 2.66664 3.952 2.29264 4.062 1.96264C4.172 1.62531 4.31133 1.33931 4.48 1.10464C4.64133 0.869973 4.83933 0.690307 5.074 0.56564C5.30866 0.440973 5.602 0.37864 5.954 0.37864C6.31333 0.37864 6.625 0.448307 6.889 0.58764C7.153 0.726973 7.373 0.921307 7.549 1.17064C7.725 1.41997 7.857 1.71697 7.945 2.06164C8.02566 2.40631 8.066 2.78397 8.066 3.19464C8.066 4.40464 7.68833 5.44964 6.933 6.32964L6.306 5.94464C6.45267 5.80531 6.592 5.64031 6.724 5.44964C6.856 5.25164 6.97333 5.03531 7.076 4.80064C7.17133 4.55864 7.24833 4.30197 7.307 4.03064C7.35833 3.75931 7.384 3.47331 7.384 3.17264C7.384 2.54931 7.274 2.06531 7.054 1.72064C6.82666 1.36864 6.48566 1.19264 6.031 1.19264C5.789 1.19264 5.58733 1.24397 5.426 1.34664C5.25733 1.44197 5.11433 1.58864 4.997 1.78664C4.87233 1.98464 4.766 2.23031 4.678 2.52364C4.59 2.81697 4.502 3.15797 4.414 3.54664C4.31866 3.95731 4.21966 4.31664 4.117 4.62464C4.01433 4.93264 3.886 5.19297 3.732 5.40564C3.578 5.61831 3.39466 5.77964 3.182 5.88964C2.962 5.99231 2.69433 6.04364 2.379 6.04364C2.01966 6.04364 1.70066 5.97764 1.422 5.84564C1.136 5.70631 0.901331 5.51197 0.717998 5.26264C0.527331 5.01331 0.384331 4.71997 0.288998 4.38264C0.186331 4.04531 0.134998 3.67131 0.134998 3.26064C0.134998 2.73997 0.215665 2.27797 0.376998 1.87464C0.530998 1.46397 0.750998 1.09364 1.037 0.76364L1.653 1.13764Z" fill="black"/>
</svg>
