<svg width="133" height="34" viewBox="0 0 133 34" fill="none" xmlns="http://www.w3.org/2000/svg">
<path fill-rule="evenodd" clip-rule="evenodd" d="M37.3242 1.83252H55.3842V21.8938H37.3242V1.83252Z" fill="#E42215"/>
<path fill-rule="evenodd" clip-rule="evenodd" d="M0 1.83252H12.0561V21.8938H0V1.83252Z" fill="#076B49"/>
<path d="M24.6891 22.1105C30.3487 22.1105 34.9367 17.5225 34.9367 11.8629C34.9367 6.20327 30.3487 1.61523 24.6891 1.61523C19.0294 1.61523 14.4414 6.20327 14.4414 11.8629C14.4414 17.5225 19.0294 22.1105 24.6891 22.1105Z" fill="#FFD207"/>
<path d="M62.2832 9.81363V10.3682H59.0039V9.81363L59.7273 9.69307V2.50766L59.0039 2.3871V1.83252H62.1626C63.9469 1.83252 65.0319 2.72466 65.0319 3.90616C65.0319 4.94298 64.3086 5.64223 63.3923 6.07625V6.10037L66.1411 10.3682H64.3086L61.5598 6.10037C62.5725 5.9557 63.3923 5.32878 63.3923 3.93028C63.3923 2.82112 62.7654 2.45943 61.9215 2.45943H61.8491C61.608 2.45943 61.4633 2.48355 61.2946 2.53178V9.71717L62.2832 9.81363Z" fill="#020203"/>
<path d="M66.6257 9.81363L67.349 9.69307V2.50766L66.6257 2.3871V1.83252H72.5814V4.26784H72.0268L71.6651 2.94167C71.5687 2.55588 71.3516 2.45943 70.6765 2.45943H68.9163V5.73869L71.2793 5.61813V6.46205L68.9163 6.34149V9.69307C69.4709 9.7654 69.712 9.76541 70.0255 9.76541H70.9417C71.424 9.76541 71.5687 9.52429 71.6651 9.28317L72.2679 7.95701H72.8225L72.509 10.3923H66.6016V9.81363H66.6257Z" fill="#020203"/>
<path d="M77.0878 9.81363V10.3682H73.8086V9.81363L74.532 9.69307V2.50766L73.8086 2.3871V1.83252H76.9191C79.0892 1.83252 79.9572 2.84523 79.9572 4.09907C79.9572 5.25645 79.2097 6.60672 76.7744 6.84784L76.0992 6.92017V9.71717L77.0878 9.81363ZM76.6056 6.22093C77.6424 6.05215 78.3176 5.52168 78.3176 4.09907C78.3176 3.06224 77.8112 2.45943 76.8467 2.45943H76.7744C76.5333 2.45943 76.268 2.48355 76.0992 2.53178V6.31737L76.6056 6.22093Z" fill="#020203"/>
<path d="M81.5476 7.93288V2.50765L80.8242 2.38709V1.83252H83.8623V2.38709L83.139 2.50765V7.93288C83.139 9.21082 83.7659 9.5725 84.4169 9.5725C86.1289 9.5725 86.1771 7.30597 86.1771 5.49756V2.50765L85.4537 2.38709V1.83252H88.4919V2.38709L87.7685 2.50765V9.69306L88.4919 9.81362V10.3682H86.2977L86.1771 9.04205H86.153C85.8154 9.88597 85.2126 10.5129 84.0311 10.5129C83.1149 10.4888 81.5476 10.103 81.5476 7.93288ZM83.1149 0.675137L86.153 0V1.10915L83.1149 1.22971V0.675137Z" fill="#020203"/>
<path d="M89.457 9.81363L90.1804 9.69307V2.50766L89.457 2.3871V1.83252H92.8086C94.5447 1.83252 95.4851 2.55589 95.4851 3.85794C95.4851 5.13589 94.7135 5.7628 93.4838 5.97981V6.00391C94.9787 6.12448 95.7985 6.94429 95.7985 8.02934C95.7985 9.91009 94.0866 10.3441 92.8086 10.3441H89.457V9.81363ZM92.3987 5.73869C93.3391 5.73869 93.9178 5.28056 93.9178 3.85794C93.9178 2.79701 93.3391 2.45943 92.5916 2.45943H91.7959V5.73869H92.3987ZM92.5675 9.74131C93.6284 9.74131 94.1589 9.28317 94.1589 8.10167C94.1589 6.92018 93.5802 6.34149 92.5675 6.34149H91.7718V9.69307C92.0129 9.74129 92.3987 9.74131 92.5675 9.74131Z" fill="#020203"/>
<path d="M100.186 9.74131H100.981C101.464 9.74131 101.608 9.50019 101.705 9.25907L102.308 7.93288H102.862L102.549 10.3682H96.7617V9.81363L97.4851 9.69307V2.50766L96.7617 2.3871V1.83252H99.9445V2.3871L99.1006 2.50766V9.69307C99.6311 9.74129 99.8722 9.74131 100.186 9.74131Z" fill="#020203"/>
<path d="M106.651 9.81363V10.3682H103.613V9.81363L104.337 9.69307V2.50766L103.613 2.3871V1.83252H106.651V2.3871L105.928 2.50766V9.69307L106.651 9.81363Z" fill="#020203"/>
<path d="M107.734 6.10032C107.734 3.665 109.157 1.71191 111.568 1.71191C112.243 1.71191 113.087 1.83247 113.714 2.0736V4.26779H113.16L112.798 3.03808C112.677 2.62817 112.364 2.31472 111.52 2.31472C110.049 2.31472 109.374 3.78556 109.374 6.10032C109.374 8.41509 110.097 9.88593 111.448 9.88593C112.123 9.88593 112.557 9.62069 112.726 9.21078L113.28 7.93284H113.835L113.594 10.1271C112.991 10.3682 112.075 10.4887 111.327 10.4887C108.964 10.4887 107.734 8.51154 107.734 6.10032Z" fill="#020203"/>
<path d="M118.779 9.81363L119.502 9.69307L118.924 7.86055H116.344L115.91 9.62075L116.705 9.81363V10.3682H114.391V9.81363L115.186 9.62075L117.188 2.62822L116.898 1.83252H118.538L121.094 9.69307L121.817 9.81363V10.3682H118.779V9.81363ZM118.707 7.18541L117.549 3.54447H117.525L116.537 7.18541H118.707Z" fill="#020203"/>
<path d="M62.2832 21.3634V21.918H59.0039V21.3634L59.7273 21.2429V14.0574L59.0039 13.9369V13.3823H62.1144C64.2845 13.3823 65.1525 14.395 65.1525 15.6489C65.1525 16.8063 64.405 18.1565 61.9697 18.3976L61.2946 18.47V21.267L62.2832 21.3634ZM61.8009 17.7707C62.8377 17.6019 63.5129 17.0715 63.5129 15.6489C63.5129 14.612 63.0065 14.0092 62.042 14.0092H61.9697C61.7286 14.0092 61.4633 14.0334 61.2946 14.0816V17.8672L61.8009 17.7707Z" fill="#020203"/>
<path d="M66.0938 17.6501C66.0938 15.2148 67.444 13.2617 69.4936 13.2617C71.5431 13.2617 72.8934 15.2389 72.8934 17.6501C72.8934 20.0613 71.5431 22.0385 69.4936 22.0385C67.444 22.0385 66.0938 20.0854 66.0938 17.6501ZM69.6382 21.4357C70.7956 21.4357 71.2779 20.0372 71.2779 18.2529C71.2779 16.1793 70.8438 13.8645 69.3971 13.8645C68.2397 13.8645 67.7575 15.263 67.7575 17.0473C67.7334 19.0486 68.1674 21.4357 69.6382 21.4357Z" fill="#020203"/>
<path d="M76.9668 21.3634V21.918H73.6875V21.3634L74.4109 21.2429V14.0574L73.6875 13.9369V13.3823H76.8703C78.6546 13.3823 79.7396 14.2745 79.7396 15.456C79.7396 16.4928 79.0163 17.192 78.1 17.6261V17.6502L80.8488 21.918H79.0163L76.2675 17.6502C77.2802 17.5055 78.1 16.8786 78.1 15.4801C78.1 14.3709 77.4731 14.0092 76.6292 14.0092H76.5568C76.3157 14.0092 76.1711 14.0334 76.0023 14.0816V21.267L76.9668 21.3634Z" fill="#020203"/>
<path d="M82.1249 21.3636L83.2341 21.2431V13.9853H82.776C82.1973 13.9853 81.9079 13.9853 81.7874 14.4676L81.4257 15.7937H80.8711V13.3584H87.2126V15.7937H86.658L86.2963 14.4676C86.1758 13.9853 85.8623 13.9853 85.3077 13.9853H84.8255V21.2431L85.9346 21.3636V21.9182H82.149L82.1249 21.3636Z" fill="#020203"/>
<path d="M88.5866 19.4827V14.0574L87.8633 13.9369V13.3823H90.9014V13.9369L90.1781 14.0574V19.4827C90.1781 20.7606 90.805 21.1223 91.456 21.1223C93.168 21.1223 93.2162 18.8558 93.2162 17.0474V14.0574L92.4928 13.9369V13.3823H95.5309V13.9369L94.8076 14.0574V21.2429L95.5309 21.3634V21.918H93.3367L93.2162 20.5919H93.1921C92.8545 21.4358 92.2517 22.0627 91.0702 22.0627C90.1781 22.0386 88.5866 21.6528 88.5866 19.4827Z" fill="#020203"/>
<path d="M96.4258 17.6501C96.4258 15.2148 97.8484 13.2617 100.38 13.2617C101.055 13.2617 101.899 13.3823 102.526 13.6234V15.8176H101.972L101.61 14.5879C101.489 14.178 101.176 13.8645 100.332 13.8645C98.7405 13.8645 98.0654 15.3353 98.0654 17.6501C98.0654 19.9649 98.7405 21.4357 100.332 21.4357C100.67 21.4357 100.935 21.3875 101.128 21.3152V18.5664L100.284 18.4458V17.8912H103.274V18.4458L102.719 18.5664V21.5563C102.044 21.918 101.079 22.0385 100.211 22.0385C97.4867 22.0385 96.4258 20.0854 96.4258 17.6501Z" fill="#020203"/>
<path d="M104.696 19.4827V14.0574L103.973 13.9369V13.3823H107.011V13.9369L106.287 14.0574V19.4827C106.287 20.7606 106.914 21.1223 107.565 21.1223C109.277 21.1223 109.326 18.8558 109.326 17.0474V14.0574L108.602 13.9369V13.3823H111.64V13.9369L110.917 14.0574V21.2429L111.64 21.3634V21.918H109.446L109.326 20.5919H109.301C108.964 21.4358 108.361 22.0627 107.18 22.0627C106.263 22.0386 104.696 21.6528 104.696 19.4827Z" fill="#020203"/>
<path d="M112.629 21.3634L113.352 21.2429V14.0574L112.629 13.9369V13.3823H118.585V15.8176H118.03L117.668 14.4915C117.572 14.1057 117.355 14.0092 116.68 14.0092H114.944V17.2885L117.307 17.1679V18.0118L114.944 17.8913V21.2429C115.498 21.3152 115.739 21.3152 116.053 21.3152H116.969C117.451 21.3152 117.596 21.0741 117.692 20.833L118.295 19.5068H118.85L118.536 21.9421H112.629V21.3634Z" fill="#020203"/>
<path d="M119.983 21.6767L119.742 19.4824H120.297L120.851 20.7122C121.092 21.2668 121.599 21.4356 122.25 21.4356C123.311 21.4356 123.841 20.8086 123.841 20.037C123.841 17.7705 119.887 18.518 119.887 15.6004C119.887 14.3948 120.875 13.2856 122.684 13.2856C123.407 13.2856 124.155 13.4062 124.758 13.6473V15.8415H124.203L123.841 14.6118C123.721 14.2019 123.407 13.8884 122.684 13.8884C121.768 13.8884 121.285 14.3225 121.285 15.0458C121.285 17.1436 125.24 16.3479 125.24 19.4824C125.24 20.9292 124.131 22.0384 122.129 22.0384C121.382 22.0384 120.61 21.9178 119.983 21.6767Z" fill="#020203"/>
<path d="M129.701 21.3634L130.424 21.2429L129.846 19.4104H127.266L126.832 21.1705L127.627 21.3634V21.918H125.312V21.3634L126.108 21.1705L128.11 14.178L127.82 13.3823H129.46L132.016 21.2429L132.739 21.3634V21.918H129.677L129.701 21.3634ZM129.629 18.7352L128.471 15.0943H128.447L127.458 18.7352H129.629Z" fill="#020203"/>
<path d="M59.1953 29.1999C59.1953 26.7646 60.4974 24.8115 62.9568 24.8115C63.7525 24.8115 64.5482 24.9803 65.0063 25.125V27.1986H64.5482L64.3071 26.0653C64.2106 25.559 63.8007 25.342 62.8845 25.342C61.4136 25.342 60.208 26.4752 60.208 29.1999C60.208 31.9246 61.4377 33.0579 62.8845 33.0579C63.7525 33.0579 64.1142 32.7926 64.2589 32.431L64.6688 31.1771H65.1269L64.8858 33.2508C64.4035 33.3954 63.6078 33.5642 62.8845 33.5642C60.4733 33.5883 59.1953 31.6352 59.1953 29.1999Z" fill="#020203"/>
<path d="M66.8896 31.0323V25.5348L65.9492 25.4142V24.9561H68.8186V25.4142L67.8782 25.5348V31.0323C67.8782 32.3826 68.481 32.9854 69.5178 32.9854C70.9645 32.9854 71.5432 31.5628 71.5432 29.5615V25.5348L70.6029 25.4142V24.9561H73.4722V25.4142L72.5318 25.5348V32.889L73.4722 33.0095V33.4676H71.6156L71.5432 32.1415H71.5191C71.1815 32.9854 70.4823 33.6123 69.3249 33.6123C68.2881 33.5882 66.8896 33.0577 66.8896 31.0323Z" fill="#020203"/>
<path d="M77.5928 32.9372H78.8225C79.3048 32.9372 79.4736 32.7684 79.5459 32.5273L80.0281 31.2011H80.4863L80.1728 33.4676H74.5547V33.0095L75.4951 32.889V25.5348L74.5547 25.4142V24.9561H77.4723V25.4142L76.4837 25.5348V32.889C77.0623 32.9372 77.3035 32.9372 77.5928 32.9372Z" fill="#020203"/>
<path d="M81.5984 33.0097L82.7799 32.8891V25.4626H81.8636C81.2849 25.4626 80.9474 25.4626 80.875 25.9448L80.6339 27.1986H80.1758V24.9321H86.3485V27.1986H85.8904L85.6492 25.9448C85.5528 25.4626 85.2152 25.4626 84.6606 25.4626H83.7444V32.8891L84.9259 33.0097V33.4678H81.5743L81.5984 33.0097Z" fill="#020203"/>
<path d="M87.9872 31.0323V25.5348L87.0469 25.4142V24.9561H89.9162V25.4142L88.9758 25.5348V31.0323C88.9758 32.3826 89.5786 32.9854 90.6155 32.9854C92.0622 32.9854 92.6409 31.5628 92.6409 29.5615V25.5348L91.7005 25.4142V24.9561H94.5699V25.4142L93.6295 25.5348V32.889L94.5699 33.0095V33.4676H92.7132L92.6409 32.1415H92.6168C92.2792 32.9854 91.58 33.6123 90.4226 33.6123C89.3858 33.5882 87.9872 33.0577 87.9872 31.0323Z" fill="#020203"/>
<path d="M98.6448 33.0095V33.4676H95.7031V33.0095L96.6435 32.889V25.5348L95.7031 25.4142V24.9561H98.6207C100.405 24.9561 101.394 25.8482 101.394 27.0297C101.394 28.0665 100.694 28.9345 99.3441 29.3686V29.3927L102.672 33.4918H101.466L97.9697 29.1998C99.3441 29.0551 100.357 28.4282 100.357 27.0297C100.357 25.8482 99.5129 25.4624 98.4278 25.4624H98.3555C98.1143 25.4624 97.7527 25.4865 97.5839 25.5348V32.889L98.6448 33.0095Z" fill="#020203"/>
<path d="M107.06 33.0095L108.048 32.889L107.325 30.8153H104.721L104.166 32.8407L105.034 33.0336V33.4918H102.695V33.0336L103.539 32.8407L105.565 25.8241L105.227 24.9561H106.216L108.989 32.889L109.929 33.0095V33.4676H107.011L107.06 33.0095ZM107.132 30.2607L105.902 26.668H105.878L104.89 30.2607H107.132Z" fill="#020203"/>
</svg>
