<svg width="167" height="38" viewBox="0 0 167 38" fill="none" xmlns="http://www.w3.org/2000/svg">
<path d="M147.568 28.1633H152.173V26.5236H152.101C151.884 27.464 151.402 28.0668 150.509 28.0668H149.159V22.9309H150.003V22.8345H147.592V22.9309H148.436V28.0668H147.592V28.1633H147.568ZM145.036 25.8726H143.372L144.192 23.6784L145.036 25.8726ZM141.757 28.1633H143.372V28.0668H142.528L143.324 25.9932H145.06L145.856 28.0668H145.036V28.1633H147.351V28.0668H146.676L144.626 22.6898H144.457L142.432 28.0668H141.781V28.1633H141.757ZM136.645 22.9068H137.489V26.4754C137.489 27.7051 138.14 28.2838 139.346 28.2838C140.141 28.2838 140.599 28.0427 140.865 27.681C141.154 27.3193 141.202 26.9818 141.202 26.5719V22.9309H142.046V22.8345H140.262V22.9309H141.106V26.4272C141.106 27.1506 140.985 27.3676 140.792 27.6328C140.479 28.0427 140.045 28.1874 139.49 28.1874C138.695 28.1874 138.236 27.7775 138.236 26.5719V22.9309H139.08V22.8345H136.669V22.9068H136.645ZM132.015 28.1633H132.136C132.184 28.0668 132.208 27.9945 132.353 27.9945C132.522 27.9945 132.787 28.0909 132.98 28.1633C133.318 28.2597 133.51 28.2838 133.92 28.2838C135.102 28.2838 135.825 27.4399 135.825 26.4995C135.825 25.4627 134.909 25.2457 134.547 25.1251L133.631 24.8358C133.101 24.667 132.546 24.45 132.546 23.799C132.546 23.0033 133.293 22.7621 133.776 22.7621C134.644 22.7621 135.078 23.4373 135.198 24.1606H135.295V22.8104H135.198C135.126 22.955 135.102 22.9792 134.981 22.9792C134.692 22.9792 134.499 22.6898 133.8 22.6898C132.835 22.6898 132.16 23.3649 132.16 24.2812C132.16 24.9563 132.57 25.3662 133.39 25.6074L134.258 25.8726C134.668 25.9932 135.271 26.2825 135.271 26.9818C135.271 27.464 135.005 28.2115 133.944 28.2115C133.39 28.2115 132.474 28.2115 132.112 26.596H132.015V28.1633ZM128.784 28.1633H131.196V28.0668H130.352V22.9309H131.196V22.8345H128.784V22.9309H129.628V28.0668H128.784V28.1633ZM123.022 22.9068H123.697L125.746 28.2838H125.939L127.965 22.9068H128.64V22.8104H127.024V22.9068H127.844L126.204 27.2711L124.541 22.9068H125.385V22.8104H123.07V22.9068H123.022ZM118.368 25.4868C118.368 24.1124 118.657 22.7863 120.128 22.7863C121.599 22.7863 121.888 24.1124 121.888 25.4868C121.888 27.2952 121.43 28.1874 120.128 28.1874C118.826 28.1633 118.368 27.2952 118.368 25.4868ZM117.5 25.4868C117.5 26.9335 118.609 28.2838 120.128 28.2838C121.599 28.2838 122.756 26.8853 122.756 25.4868C122.756 23.8954 121.454 22.6898 120.128 22.6898C118.874 22.6657 117.5 23.8713 117.5 25.4868ZM114.317 28.1633H116.728V28.0668H115.884V22.9309H116.728V22.8345H114.317V22.9309H115.161V28.0668H114.317V28.1633ZM109.736 22.9068C109.929 22.9068 110.122 22.8827 110.387 22.8827C112.075 22.8827 112.629 23.9195 112.629 25.5109C112.629 26.1861 112.533 26.7406 112.195 27.2711C111.785 27.9704 111.11 28.0909 110.411 28.0909C110.146 28.0909 109.905 28.0668 109.736 28.0668V22.9068ZM108.144 28.1633H109.422C109.567 28.1633 109.736 28.1633 109.905 28.1874C110.073 28.1874 110.242 28.2115 110.411 28.2115C111.11 28.2115 111.424 28.1874 111.93 27.9704C112.798 27.6087 113.473 26.813 113.473 25.4868C113.473 24.3535 112.943 23.3649 111.713 22.955C111.303 22.8104 110.99 22.7863 110.387 22.7863C110.242 22.7863 110.098 22.7863 109.977 22.7863C109.832 22.7863 109.688 22.8104 109.567 22.8104H108.144V22.9068H108.988V28.0427H108.144V28.1633ZM102.382 22.9068H103.226V26.4754C103.226 27.7051 103.877 28.2838 105.082 28.2838C105.878 28.2838 106.336 28.0427 106.601 27.681C106.891 27.3193 106.939 26.9818 106.939 26.5719V22.9309H107.783V22.8345H105.998V22.9309H106.842V26.4272C106.842 27.1506 106.722 27.3676 106.529 27.6328C106.215 28.0427 105.781 28.1874 105.227 28.1874C104.431 28.1874 103.973 27.7775 103.973 26.5719V22.9309H104.817V22.8345H102.406V22.9068H102.382ZM100.139 25.8726H98.4755L99.2953 23.6784L100.139 25.8726ZM96.86 28.1633H98.4755V28.0668H97.6316L98.4273 25.9932H100.163L100.959 28.0668H100.115V28.1633H102.43V28.0668H101.755L99.7052 22.6898H99.5364L97.511 28.0668H96.86V28.1633ZM90.3015 25.4868C90.3015 24.1124 90.5908 22.7863 92.0617 22.7863C93.5325 22.7863 93.8218 24.1124 93.8218 25.4868C93.8218 27.2952 93.3637 28.1874 92.0617 28.1874C90.7596 28.1633 90.3015 27.2952 90.3015 25.4868ZM89.4334 25.4868C89.4334 26.9335 90.5426 28.2838 92.0617 28.2838C93.5325 28.2838 94.6899 26.8853 94.6899 25.4868C94.6899 23.8954 93.3878 22.6898 92.0617 22.6898C90.8319 22.6657 89.4334 23.8713 89.4334 25.4868ZM84.611 22.9068C84.8039 22.9068 84.9968 22.8827 85.262 22.8827C86.9499 22.8827 87.5045 23.9195 87.5045 25.5109C87.5045 26.1861 87.408 26.7406 87.0704 27.2711C86.6605 27.9704 85.9854 28.0909 85.2862 28.0909C85.0209 28.0909 84.7798 28.0668 84.611 28.0668V22.9068ZM83.0196 28.1633H84.2976C84.4422 28.1633 84.611 28.1633 84.7798 28.1874C84.9486 28.1874 85.1174 28.2115 85.2862 28.2115C85.9854 28.2115 86.2989 28.1874 86.8052 27.9704C87.6733 27.6087 88.3484 26.813 88.3484 25.4868C88.3484 24.3535 87.8179 23.3649 86.5882 22.955C86.1783 22.8104 85.8648 22.7863 85.262 22.7863C85.1174 22.7863 84.9727 22.7863 84.8521 22.7863C84.7075 22.7863 84.5628 22.8104 84.4422 22.8104H83.0437V22.9068H83.8876V28.0427H83.0437V28.1633H83.0196ZM75.6413 28.1633H80.2226V26.5236H80.1503C80.102 26.9818 79.7404 28.0668 78.6553 28.0668H77.2327V25.3421H77.8355C78.5589 25.3421 78.6794 25.8967 78.8241 26.4754H78.8964V24.1365H78.8241C78.6071 25.0287 78.3901 25.2457 77.7149 25.2457H77.2327V22.9309H78.4865C79.3063 22.9309 79.6198 23.3408 79.8609 24.1365H79.9333V22.8345H75.6172V22.9309H76.4611V28.0668H75.6172V28.1633H75.6413Z" fill="black"/>
<path d="M147.568 28.1633H152.173V26.5236H152.101C151.884 27.464 151.402 28.0668 150.509 28.0668H149.159V22.9309H150.003V22.8345H147.592V22.9309H148.436V28.0668H147.592V28.1633H147.568ZM145.036 25.8726H143.372L144.192 23.6784L145.036 25.8726ZM141.757 28.1633H143.372V28.0668H142.528L143.324 25.9932H145.06L145.856 28.0668H145.036V28.1633H147.351V28.0668H146.676L144.626 22.6898H144.457L142.432 28.0668H141.781V28.1633H141.757ZM136.645 22.9068H137.489V26.4754C137.489 27.7051 138.14 28.2838 139.346 28.2838C140.141 28.2838 140.599 28.0427 140.865 27.681C141.154 27.3193 141.202 26.9818 141.202 26.5719V22.9309H142.046V22.8345H140.262V22.9309H141.106V26.4272C141.106 27.1506 140.985 27.3676 140.792 27.6328C140.479 28.0427 140.045 28.1874 139.49 28.1874C138.695 28.1874 138.236 27.7775 138.236 26.5719V22.9309H139.08V22.8345H136.669V22.9068H136.645ZM132.015 28.1633H132.136C132.184 28.0668 132.208 27.9945 132.353 27.9945C132.522 27.9945 132.787 28.0909 132.98 28.1633C133.318 28.2597 133.51 28.2838 133.92 28.2838C135.102 28.2838 135.825 27.4399 135.825 26.4995C135.825 25.4627 134.909 25.2457 134.547 25.1251L133.631 24.8358C133.101 24.667 132.546 24.45 132.546 23.799C132.546 23.0033 133.293 22.7621 133.776 22.7621C134.644 22.7621 135.078 23.4373 135.198 24.1606H135.295V22.8104H135.198C135.126 22.955 135.102 22.9792 134.981 22.9792C134.692 22.9792 134.499 22.6898 133.8 22.6898C132.835 22.6898 132.16 23.3649 132.16 24.2812C132.16 24.9563 132.57 25.3662 133.39 25.6074L134.258 25.8726C134.668 25.9932 135.271 26.2825 135.271 26.9818C135.271 27.464 135.005 28.2115 133.944 28.2115C133.39 28.2115 132.474 28.2115 132.112 26.596H132.015V28.1633ZM128.784 28.1633H131.196V28.0668H130.352V22.9309H131.196V22.8345H128.784V22.9309H129.628V28.0668H128.784V28.1633ZM123.022 22.9068H123.697L125.746 28.2838H125.939L127.965 22.9068H128.64V22.8104H127.024V22.9068H127.844L126.204 27.2711L124.541 22.9068H125.385V22.8104H123.07V22.9068H123.022ZM118.368 25.4868C118.368 24.1124 118.657 22.7863 120.128 22.7863C121.599 22.7863 121.888 24.1124 121.888 25.4868C121.888 27.2952 121.43 28.1874 120.128 28.1874C118.826 28.1633 118.368 27.2952 118.368 25.4868ZM117.5 25.4868C117.5 26.9335 118.609 28.2838 120.128 28.2838C121.599 28.2838 122.756 26.8853 122.756 25.4868C122.756 23.8954 121.454 22.6898 120.128 22.6898C118.874 22.6657 117.5 23.8713 117.5 25.4868ZM114.317 28.1633H116.728V28.0668H115.884V22.9309H116.728V22.8345H114.317V22.9309H115.161V28.0668H114.317V28.1633ZM109.736 22.9068C109.929 22.9068 110.122 22.8827 110.387 22.8827C112.075 22.8827 112.629 23.9195 112.629 25.5109C112.629 26.1861 112.533 26.7406 112.195 27.2711C111.785 27.9704 111.11 28.0909 110.411 28.0909C110.146 28.0909 109.905 28.0668 109.736 28.0668V22.9068ZM108.144 28.1633H109.422C109.567 28.1633 109.736 28.1633 109.905 28.1874C110.073 28.1874 110.242 28.2115 110.411 28.2115C111.11 28.2115 111.424 28.1874 111.93 27.9704C112.798 27.6087 113.473 26.813 113.473 25.4868C113.473 24.3535 112.943 23.3649 111.713 22.955C111.303 22.8104 110.99 22.7863 110.387 22.7863C110.242 22.7863 110.098 22.7863 109.977 22.7863C109.832 22.7863 109.688 22.8104 109.567 22.8104H108.144V22.9068H108.988V28.0427H108.144V28.1633ZM102.382 22.9068H103.226V26.4754C103.226 27.7051 103.877 28.2838 105.082 28.2838C105.878 28.2838 106.336 28.0427 106.601 27.681C106.891 27.3193 106.939 26.9818 106.939 26.5719V22.9309H107.783V22.8345H105.998V22.9309H106.842V26.4272C106.842 27.1506 106.722 27.3676 106.529 27.6328C106.215 28.0427 105.781 28.1874 105.227 28.1874C104.431 28.1874 103.973 27.7775 103.973 26.5719V22.9309H104.817V22.8345H102.406V22.9068H102.382ZM100.139 25.8726H98.4755L99.2953 23.6784L100.139 25.8726ZM96.86 28.1633H98.4755V28.0668H97.6316L98.4273 25.9932H100.163L100.959 28.0668H100.115V28.1633H102.43V28.0668H101.755L99.7052 22.6898H99.5364L97.511 28.0668H96.86V28.1633ZM90.3015 25.4868C90.3015 24.1124 90.5908 22.7863 92.0617 22.7863C93.5325 22.7863 93.8218 24.1124 93.8218 25.4868C93.8218 27.2952 93.3637 28.1874 92.0617 28.1874C90.7596 28.1633 90.3015 27.2952 90.3015 25.4868ZM89.4334 25.4868C89.4334 26.9335 90.5426 28.2838 92.0617 28.2838C93.5325 28.2838 94.6899 26.8853 94.6899 25.4868C94.6899 23.8954 93.3878 22.6898 92.0617 22.6898C90.8319 22.6657 89.4334 23.8713 89.4334 25.4868ZM84.611 22.9068C84.8039 22.9068 84.9968 22.8827 85.262 22.8827C86.9499 22.8827 87.5045 23.9195 87.5045 25.5109C87.5045 26.1861 87.408 26.7406 87.0704 27.2711C86.6605 27.9704 85.9854 28.0909 85.2862 28.0909C85.0209 28.0909 84.7798 28.0668 84.611 28.0668V22.9068ZM83.0196 28.1633H84.2976C84.4422 28.1633 84.611 28.1633 84.7798 28.1874C84.9486 28.1874 85.1174 28.2115 85.2862 28.2115C85.9854 28.2115 86.2989 28.1874 86.8052 27.9704C87.6732 27.6087 88.3484 26.813 88.3484 25.4868C88.3484 24.3535 87.8179 23.3649 86.5882 22.955C86.1783 22.8104 85.8648 22.7863 85.262 22.7863C85.1174 22.7863 84.9727 22.7863 84.8521 22.7863C84.7075 22.7863 84.5628 22.8104 84.4422 22.8104H83.0437V22.9068H83.8876V28.0427H83.0437V28.1633H83.0196ZM75.6413 28.1633H80.2226V26.5236H80.1503C80.102 26.9818 79.7404 28.0668 78.6553 28.0668H77.2327V25.3421H77.8355C78.5589 25.3421 78.6794 25.8967 78.8241 26.4754H78.8964V24.1365H78.8241C78.6071 25.0287 78.3901 25.2457 77.7149 25.2457H77.2327V22.9309H78.4865C79.3063 22.9309 79.6198 23.3408 79.8609 24.1365H79.9333V22.8345H75.6172V22.9309H76.4611V28.0668H75.6172V28.1633H75.6413Z" stroke="black" stroke-width="0.0721194" stroke-miterlimit="3.8637"/>
<path d="M164.638 17.771H162.975L163.795 15.5768L164.638 17.771ZM161.359 20.0617H162.975V19.9652H162.131L162.927 17.8916H164.663L165.458 19.9652H164.614V20.0617H166.929V19.9652H166.254L164.204 14.5882H164.012L161.986 19.9652H161.335V20.0617H161.359ZM155.018 20.0617H156.802V19.9652H155.958V14.9258H155.982L157.767 20.0858L159.575 14.8776H159.599V19.9894H158.755V20.0858H161.166V19.9894H160.322V14.8535H161.166V14.757H159.503L158.104 18.8079H158.08L156.681 14.757H154.994V14.8535H155.838V19.9894H154.994V20.0617H155.018ZM149.737 20.0617H154.318V18.4221H154.246C154.198 18.8802 153.836 19.9652 152.751 19.9652H151.329V17.2406H151.931C152.655 17.2406 152.775 17.7951 152.92 18.3738H152.992V16.035H152.92C152.703 16.9271 152.486 17.1441 151.811 17.1441H151.329V14.8294H152.582C153.402 14.8294 153.716 15.2393 153.957 16.035H154.029V14.7329H149.713V14.8294H150.557V19.9652H149.713V20.0617H149.737ZM144.24 20.0617H146.024V19.9652H145.18V15.1187H145.204L148.363 20.1581H148.507V14.8052H149.351V14.7088H147.567V14.8052H148.411V18.8079L145.879 14.7088H144.264V14.8052H145.108V19.9411H144.264V20.0617H144.24ZM141.419 20.0617H143.83V19.9652H142.986V14.8294H143.83V14.7329H141.419V14.8294H142.262V19.9652H141.419V20.0617ZM140.792 18.4462H140.695C140.502 19.2178 140.261 20.0617 138.935 20.0617C137.898 20.0617 137.175 19.5071 137.175 17.3852C137.175 16.252 137.319 14.6606 138.935 14.6606C140.092 14.6606 140.406 15.4322 140.599 16.2037H140.671V14.7088H140.55C140.478 14.7811 140.406 14.8776 140.213 14.8776C139.924 14.8776 139.61 14.5882 138.983 14.5882C137.44 14.5882 136.307 15.9144 136.307 17.4094C136.307 18.3015 136.693 18.9525 137.175 19.4589C137.705 19.9894 138.308 20.2064 138.935 20.2064C139.634 20.2064 140.044 19.9411 140.333 19.9411C140.526 19.9411 140.599 20.0135 140.671 20.1099H140.792V18.4462ZM128.615 17.3852C128.615 16.0109 128.904 14.6847 130.375 14.6847C131.846 14.6847 132.135 16.0109 132.135 17.3852C132.135 19.1937 131.677 20.0858 130.375 20.0858C129.073 20.0617 128.615 19.1695 128.615 17.3852ZM127.747 17.3852C127.747 18.832 128.856 20.1822 130.375 20.1822C131.846 20.1822 133.003 18.7838 133.003 17.3852C133.003 15.7938 131.701 14.5882 130.375 14.5882C129.121 14.5641 127.747 15.7697 127.747 17.3852ZM122.924 14.8052C123.117 14.8052 123.31 14.7811 123.576 14.7811C125.263 14.7811 125.818 15.818 125.818 17.4094C125.818 18.0845 125.722 18.6391 125.384 19.1696C124.974 19.8688 124.299 19.9894 123.6 19.9894C123.334 19.9894 123.093 19.9652 122.924 19.9652V14.8052ZM121.333 20.0617H122.611C122.756 20.0617 122.925 20.0617 123.093 20.0858C123.262 20.0858 123.431 20.1099 123.6 20.1099C124.299 20.1099 124.612 20.0858 125.119 19.8688C125.987 19.5071 126.662 18.7114 126.662 17.3852C126.662 16.252 126.131 15.2634 124.902 14.8535C124.492 14.7088 124.178 14.6847 123.576 14.6847C123.431 14.6847 123.286 14.6847 123.166 14.6847C123.021 14.6847 122.876 14.7088 122.756 14.7088H121.357V14.8052H122.201V19.9411H121.357V20.0617H121.333ZM114.124 17.3852C114.124 16.0109 114.413 14.6847 115.884 14.6847C117.355 14.6847 117.644 16.0109 117.644 17.3852C117.644 19.1937 117.186 20.0858 115.884 20.0858C114.582 20.0858 114.124 19.1695 114.124 17.3852ZM113.256 17.3852C113.256 18.832 114.365 20.1822 115.884 20.1822C117.355 20.1822 118.512 18.7838 118.512 17.3852C118.512 15.7938 117.21 14.5882 115.884 14.5882C114.654 14.5641 113.256 15.7697 113.256 17.3852ZM109.036 20.0617H111.447V19.9652H110.603V14.8294H111.037C111.447 14.8294 112.074 14.8776 112.436 16.1073H112.508V14.7329H107.927V16.1073H107.999C108.337 14.8776 108.988 14.8294 109.398 14.8294H109.832V19.9652H108.988V20.0617H109.036ZM102.116 14.8052H102.96V18.3738C102.96 19.6036 103.611 20.1822 104.816 20.1822C105.612 20.1822 106.07 19.9411 106.335 19.5794C106.625 19.2178 106.673 18.8802 106.673 18.4703V14.8294H107.517V14.7329H105.733V14.8294H106.576V18.3256C106.576 19.049 106.456 19.266 106.263 19.5312C105.95 19.9411 105.516 20.0858 104.961 20.0858C104.165 20.0858 103.731 19.6759 103.731 18.4703V14.8294H104.575V14.7329H102.164V14.8052H102.116ZM98.1855 20.0617H100.597V19.9652H99.7528V14.8294H100.187C100.597 14.8294 101.224 14.8776 101.585 16.1073H101.658V14.7329H97.0763V16.1073H97.1486C97.4862 14.8776 98.1372 14.8294 98.5471 14.8294H98.9812V19.9652H98.1372V20.0617H98.1855ZM94.1587 20.0617H96.5699V19.9652H95.726V14.8294H96.5699V14.7329H94.1587V14.8294H95.0027V19.9652H94.1587V20.0617ZM90.1079 20.0617H92.5191V19.9652H91.6752V14.8294H92.1092C92.5191 14.8294 93.146 14.8776 93.5077 16.1073H93.58V14.7329H88.9987V16.1073H89.0711C89.4086 14.8776 90.0597 14.8294 90.4696 14.8294H90.9036V19.9652H90.0597V20.0617H90.1079ZM84.2969 20.0617H84.4174C84.4657 19.9652 84.4898 19.8929 84.6344 19.8929C84.8032 19.8929 85.0685 19.9894 85.2614 20.0617C85.5989 20.1581 85.7918 20.1822 86.2017 20.1822C87.3832 20.1822 88.1066 19.3383 88.1066 18.398C88.1066 17.3611 87.1903 17.1441 86.8287 17.0236L85.9124 16.7342C85.3819 16.5654 84.8273 16.3484 84.8273 15.6974C84.8273 14.9017 85.5748 14.6606 86.0812 14.6606C86.9492 14.6606 87.3832 15.3357 87.5038 16.0591H87.6002V14.7088H87.5038C87.4314 14.8535 87.4073 14.8776 87.2868 14.8776C86.9974 14.8776 86.8045 14.5882 86.1053 14.5882C85.1408 14.5882 84.4657 15.2634 84.4657 16.1796C84.4657 16.8548 84.8756 17.2647 85.6954 17.5058L86.5634 17.771C86.9733 17.8916 87.5761 18.181 87.5761 18.8802C87.5761 19.3624 87.3109 20.1099 86.25 20.1099C85.6954 20.1099 84.7791 20.1099 84.4174 18.4944H84.3451V20.0617H84.2969ZM78.4617 20.0617H80.246V19.9652H79.4021V15.1187H79.4262L82.5849 20.1581H82.7296V14.8052H83.5735V14.7088H81.7892V14.8052H82.6331V18.8079H82.609L80.0773 14.7088H78.4617V14.8052H79.3057V19.9411H78.4617V20.0617ZM75.6406 20.0617H78.0518V19.9652H77.2079V14.8294H78.0518V14.7329H75.6406V14.8294H76.4845V19.9652H75.6406V20.0617Z" fill="black"/>
<path d="M164.638 17.771H162.975L163.795 15.5768L164.638 17.771ZM161.359 20.0617H162.975V19.9652H162.131L162.927 17.8916H164.663L165.458 19.9652H164.614V20.0617H166.929V19.9652H166.254L164.204 14.5882H164.012L161.986 19.9652H161.335V20.0617H161.359ZM155.018 20.0617H156.802V19.9652H155.958V14.9258H155.982L157.767 20.0858L159.575 14.8776H159.599V19.9894H158.755V20.0858H161.166V19.9894H160.322V14.8535H161.166V14.757H159.503L158.104 18.8079H158.08L156.681 14.757H154.994V14.8535H155.838V19.9894H154.994V20.0617H155.018ZM149.737 20.0617H154.318V18.4221H154.246C154.198 18.8802 153.836 19.9652 152.751 19.9652H151.329V17.2406H151.931C152.655 17.2406 152.775 17.7951 152.92 18.3738H152.992V16.035H152.92C152.703 16.9271 152.486 17.1441 151.811 17.1441H151.329V14.8294H152.582C153.402 14.8294 153.716 15.2393 153.957 16.035H154.029V14.7329H149.713V14.8294H150.557V19.9652H149.713V20.0617H149.737ZM144.24 20.0617H146.024V19.9652H145.18V15.1187H145.204L148.363 20.1581H148.507V14.8052H149.351V14.7088H147.567V14.8052H148.411V18.8079L145.879 14.7088H144.264V14.8052H145.108V19.9411H144.264V20.0617H144.24ZM141.419 20.0617H143.83V19.9652H142.986V14.8294H143.83V14.7329H141.419V14.8294H142.262V19.9652H141.419V20.0617ZM140.792 18.4462H140.695C140.502 19.2178 140.261 20.0617 138.935 20.0617C137.898 20.0617 137.175 19.5071 137.175 17.3852C137.175 16.252 137.319 14.6606 138.935 14.6606C140.092 14.6606 140.406 15.4322 140.599 16.2037H140.671V14.7088H140.55C140.478 14.7811 140.406 14.8776 140.213 14.8776C139.924 14.8776 139.61 14.5882 138.983 14.5882C137.44 14.5882 136.307 15.9144 136.307 17.4094C136.307 18.3015 136.693 18.9525 137.175 19.4589C137.705 19.9894 138.308 20.2064 138.935 20.2064C139.634 20.2064 140.044 19.9411 140.333 19.9411C140.526 19.9411 140.599 20.0135 140.671 20.1099H140.792V18.4462ZM128.615 17.3852C128.615 16.0109 128.904 14.6847 130.375 14.6847C131.846 14.6847 132.135 16.0109 132.135 17.3852C132.135 19.1937 131.677 20.0858 130.375 20.0858C129.073 20.0617 128.615 19.1695 128.615 17.3852ZM127.747 17.3852C127.747 18.832 128.856 20.1822 130.375 20.1822C131.846 20.1822 133.003 18.7838 133.003 17.3852C133.003 15.7938 131.701 14.5882 130.375 14.5882C129.121 14.5641 127.747 15.7697 127.747 17.3852ZM122.924 14.8052C123.117 14.8052 123.31 14.7811 123.576 14.7811C125.263 14.7811 125.818 15.818 125.818 17.4094C125.818 18.0845 125.722 18.6391 125.384 19.1696C124.974 19.8688 124.299 19.9894 123.6 19.9894C123.334 19.9894 123.093 19.9652 122.924 19.9652V14.8052ZM121.333 20.0617H122.611C122.756 20.0617 122.925 20.0617 123.093 20.0858C123.262 20.0858 123.431 20.1099 123.6 20.1099C124.299 20.1099 124.612 20.0858 125.119 19.8688C125.987 19.5071 126.662 18.7114 126.662 17.3852C126.662 16.252 126.131 15.2634 124.902 14.8535C124.492 14.7088 124.178 14.6847 123.576 14.6847C123.431 14.6847 123.286 14.6847 123.166 14.6847C123.021 14.6847 122.876 14.7088 122.756 14.7088H121.357V14.8052H122.201V19.9411H121.357V20.0617H121.333ZM114.124 17.3852C114.124 16.0109 114.413 14.6847 115.884 14.6847C117.355 14.6847 117.644 16.0109 117.644 17.3852C117.644 19.1937 117.186 20.0858 115.884 20.0858C114.582 20.0858 114.124 19.1695 114.124 17.3852ZM113.256 17.3852C113.256 18.832 114.365 20.1822 115.884 20.1822C117.355 20.1822 118.512 18.7838 118.512 17.3852C118.512 15.7938 117.21 14.5882 115.884 14.5882C114.654 14.5641 113.256 15.7697 113.256 17.3852ZM109.036 20.0617H111.447V19.9652H110.603V14.8294H111.037C111.447 14.8294 112.074 14.8776 112.436 16.1073H112.508V14.7329H107.927V16.1073H107.999C108.337 14.8776 108.988 14.8294 109.398 14.8294H109.832V19.9652H108.988V20.0617H109.036ZM102.116 14.8052H102.96V18.3738C102.96 19.6036 103.611 20.1822 104.816 20.1822C105.612 20.1822 106.07 19.9411 106.335 19.5794C106.625 19.2178 106.673 18.8802 106.673 18.4703V14.8294H107.517V14.7329H105.733V14.8294H106.576V18.3256C106.576 19.049 106.456 19.266 106.263 19.5312C105.95 19.9411 105.516 20.0858 104.961 20.0858C104.165 20.0858 103.731 19.6759 103.731 18.4703V14.8294H104.575V14.7329H102.164V14.8052H102.116ZM98.1855 20.0617H100.597V19.9652H99.7528V14.8294H100.187C100.597 14.8294 101.224 14.8776 101.585 16.1073H101.658V14.7329H97.0763V16.1073H97.1486C97.4862 14.8776 98.1372 14.8294 98.5471 14.8294H98.9812V19.9652H98.1372V20.0617H98.1855ZM94.1587 20.0617H96.5699V19.9652H95.726V14.8294H96.5699V14.7329H94.1587V14.8294H95.0027V19.9652H94.1587V20.0617ZM90.1079 20.0617H92.5191V19.9652H91.6752V14.8294H92.1092C92.5191 14.8294 93.146 14.8776 93.5077 16.1073H93.58V14.7329H88.9987V16.1073H89.0711C89.4086 14.8776 90.0597 14.8294 90.4696 14.8294H90.9036V19.9652H90.0597V20.0617H90.1079ZM84.2969 20.0617H84.4174C84.4657 19.9652 84.4898 19.8929 84.6344 19.8929C84.8032 19.8929 85.0685 19.9894 85.2614 20.0617C85.5989 20.1581 85.7918 20.1822 86.2017 20.1822C87.3832 20.1822 88.1066 19.3383 88.1066 18.398C88.1066 17.3611 87.1903 17.1441 86.8287 17.0236L85.9124 16.7342C85.3819 16.5654 84.8273 16.3484 84.8273 15.6974C84.8273 14.9017 85.5748 14.6606 86.0812 14.6606C86.9492 14.6606 87.3832 15.3357 87.5038 16.0591H87.6002V14.7088H87.5038C87.4315 14.8535 87.4073 14.8776 87.2868 14.8776C86.9974 14.8776 86.8045 14.5882 86.1053 14.5882C85.1408 14.5882 84.4657 15.2634 84.4657 16.1796C84.4657 16.8548 84.8756 17.2647 85.6954 17.5058L86.5634 17.771C86.9733 17.8916 87.5761 18.181 87.5761 18.8802C87.5761 19.3624 87.3109 20.1099 86.25 20.1099C85.6954 20.1099 84.7791 20.1099 84.4174 18.4944H84.3451V20.0617H84.2969ZM78.4617 20.0617H80.246V19.9652H79.4021V15.1187H79.4262L82.5849 20.1581H82.7296V14.8052H83.5735V14.7088H81.7892V14.8052H82.6331V18.8079H82.609L80.0773 14.7088H78.4617V14.8052H79.3057V19.9411H78.4617V20.0617ZM75.6406 20.0617H78.0518V19.9652H77.2079V14.8294H78.0518V14.7329H75.6406V14.8294H76.4845V19.9652H75.6406V20.0617Z" stroke="black" stroke-width="0.0721194" stroke-miterlimit="3.8637"/>
<path d="M33.1776 28.3561H31.2969V14.5881H33.1776V28.3561ZM54.1552 27.9462L52.2262 22.8585H47.8378L45.9088 27.9462H45.5954C44.8479 27.9462 43.8352 28.6213 42.0991 28.6213C40.5077 28.6213 38.9886 28.0668 37.6625 26.7647C36.4328 25.535 35.4924 23.8471 35.4924 21.6529C35.4924 17.8673 38.3858 14.564 42.2197 14.564C43.787 14.564 44.5585 15.3114 45.306 15.3114V16.3965C44.6791 15.4802 43.7146 14.8533 42.0509 14.8533C38.0242 14.8533 37.6625 18.8559 37.6625 21.677C37.6625 26.9817 39.4468 28.3802 42.0509 28.3802C43.9557 28.3802 44.9685 27.7051 45.5713 26.7406C45.5713 26.7406 46.6563 25.1251 47.5243 22.7862L50.6107 14.564H51.0688L56.1565 27.9462H57.8202V28.2114H52.0574V27.9462H54.1552ZM52.1056 22.5933L50.032 17.0957L47.9584 22.5933H52.1056Z" fill="black"/>
<path d="M28.5005 31.7316L26.2581 30.6947L26.8127 28.5729L29.0792 29.6097L28.5005 31.7316ZM24.9802 30.0437L22.9306 28.9346L23.437 26.8127L25.5106 27.9218L24.9802 30.0437ZM20.4471 25.0043L22.2796 26.1375L21.7733 28.2353L19.9648 27.0779L20.4471 25.0043ZM19.4344 24.3291L18.9762 26.4028L17.4331 25.2213L17.8671 23.1476L19.4344 24.3291ZM17.0473 22.4725L16.6374 24.522L15.3835 23.3646L15.7934 21.3392L17.0473 22.4725ZM13.768 21.5562L14.1297 19.5549L15.0942 20.6641L14.7084 22.6895L13.768 21.5562ZM12.6106 19.8202L12.9482 17.8671L13.6234 18.928L13.2617 20.9052L12.6106 19.8202ZM11.9355 18.1805L12.2731 16.2757L12.6589 17.2643L12.3213 19.1932L11.9355 18.1805ZM12.3695 14.1056L12.0078 14.829L12.1284 15.7211L11.8149 17.6019L11.6944 16.6856L12.0078 14.8531L12.3213 13.0688L12.683 12.3695L12.3695 14.1056ZM14.3949 12.2007L13.6234 12.7312L13.9368 11.0192L14.7084 10.5129L14.3949 12.2007ZM17.4572 10.9228L16.3962 11.2604L16.7097 9.62073L17.7706 9.30727L17.4572 10.9228ZM20.3747 8.84914L21.6527 8.72858L21.3151 10.2718L20.0372 10.4164L20.3747 8.84914ZM24.6426 8.68037L26.0652 8.7527L25.7035 10.2477L24.2809 10.1994L24.6426 8.68037ZM28.9346 10.537L29.2962 9.06615L30.8153 9.28317L30.4295 10.754L28.9346 10.537ZM34.1428 9.95831L35.6859 10.3441L35.276 11.7908L33.757 11.4291L34.1428 9.95831ZM0.168785 0.0482125L1.49495 0L1.32617 1.44673L0 1.49494L0.168785 0.0482125ZM32.262 33.2506L29.8749 32.3102L30.4777 30.1643L32.9131 31.1046L32.262 33.2506ZM4.38841 0L5.71457 0.0241062L5.54579 1.42261H4.21962L4.38841 0ZM8.60803 0.120561L9.9342 0.192894L9.7413 1.54317L8.43924 1.49494L8.60803 0.120561ZM12.7794 0.409894L14.0815 0.530455L13.8645 1.85662L12.5624 1.73606L12.7794 0.409894ZM16.9267 0.843924L18.2288 1.0127L17.9876 2.29065L16.6856 2.12186L16.9267 0.843924ZM20.7847 2.70055L21.0499 1.42261L22.3278 1.63962L22.0626 2.89346L20.7847 2.70055ZM24.8596 3.3998L25.1489 2.14597L26.4269 2.41121L26.1375 3.66503L24.8596 3.3998ZM28.9104 4.24373L29.1998 3.01402L30.4777 3.30335L30.1643 4.53308L28.9104 4.24373ZM34.1669 5.5699L32.9131 5.23232L33.2265 4.00261L34.4803 4.34018L34.1669 5.5699ZM38.1454 6.7514L36.9157 6.36559L37.2532 5.13588L38.5071 5.52167L38.1454 6.7514ZM42.0515 8.07756L40.8218 7.64353L41.2076 6.41382L42.4373 6.84784L42.0515 8.07756ZM46.3194 8.31868L45.9095 9.5725L44.7039 9.09026L45.1138 7.83644L46.3194 8.31868ZM50.1532 9.93418L49.6951 11.2121L48.5136 10.6817L48.9476 9.42784L50.1532 9.93418ZM53.8424 11.7185L53.3601 13.0205L52.2269 12.4419L52.7091 11.1639L53.8424 11.7185ZM57.411 13.6475L56.8805 14.9736L55.7955 14.3467L56.3018 13.0447L57.411 13.6475ZM60.7626 15.7452L60.1839 17.0955L59.1953 16.4204L59.7498 15.0701L60.7626 15.7452ZM63.8489 17.9876L63.222 19.3861L62.3057 18.6387L62.9085 17.2402L63.8489 17.9876ZM65.1027 21.0499L65.7538 19.6032L66.5495 20.3747L65.8743 21.8456L65.1027 21.0499ZM67.3934 23.5817L68.0926 22.0867L68.7196 22.8824L67.9962 24.4015L67.3934 23.5817ZM69.0812 26.2099L69.8528 24.6426L70.2386 25.4624L69.467 27.0538L69.0812 26.2099ZM69.9493 28.8622L70.7691 27.2226L70.8655 28.0183L70.0216 29.682L69.9493 28.8622ZM70.0216 30.1643L70.8655 28.4764L70.7691 29.248L69.9011 30.96L70.0216 30.1643ZM70.1422 30.8876L69.8528 31.2975L69.7805 31.4181L69.5153 32.0932L70.1422 30.8876ZM69.2741 32.6478L68.7678 33.3712L69.6599 31.5869L69.8769 31.2975L70.6726 29.7061L70.3833 30.4536L69.5153 32.1897L69.5635 32.0932L69.2741 32.6478ZM68.382 33.7811L67.6586 34.4562L68.5749 32.6237L69.2982 31.9727L68.382 33.7811ZM67.1523 34.842L66.1878 35.4448L67.104 33.5882L68.0685 33.0095L67.1523 34.842ZM65.5368 35.7583L64.3311 36.2646L65.2474 34.3598L66.453 33.8775L65.5368 35.7583ZM63.5355 36.5299L62.0887 36.9157L63.005 34.9626L64.4758 34.6009L63.5355 36.5299ZM60.3768 35.3966L62.0887 35.1555L61.1725 37.1086L59.4846 37.3738L60.3768 35.3966ZM57.3627 35.6136L59.2917 35.5172L58.3755 37.5185L56.4465 37.639L57.3627 35.6136ZM53.987 35.5654L56.133 35.6136L55.2409 37.639L53.119 37.6149L53.987 35.5654ZM49.5022 37.3738L50.3461 35.3001L52.6609 35.5172L51.7928 37.5667L49.5022 37.3738ZM45.6684 36.8433L46.4641 34.7456L48.9235 35.1073L48.1037 37.1809L45.6684 36.8433ZM41.714 36.0717L42.4856 33.9499L45.0173 34.4803L44.2216 36.5781L41.714 36.0717ZM40.219 35.7101L37.6873 35.0349L38.4106 32.9131L40.9665 33.5882L40.219 35.7101ZM36.1923 34.6009L33.7088 33.7811L34.3598 31.6351L36.8674 32.4549L36.1923 34.6009Z" fill="#010202"/>
</svg>
