<svg width="370" height="569" viewBox="0 0 370 569" fill="none" xmlns="http://www.w3.org/2000/svg">
<path d="M72.3275 143.161C32.3943 143.161 0 110.903 0 71.5805C0 31.9051 32.3943 0 72.3275 0C111.672 0 143.595 30.8455 144.655 69.579C144.655 69.579 90.3505 69.579 72.3275 69.579C68.558 69.579 68.558 73.5819 72.3275 73.5819H144.655C144.655 112.198 111.79 143.161 72.3275 143.161Z" fill="white"/>
<path d="M80.1037 282.671V231.105C80.1037 227.102 84.1088 227.102 84.1088 231.105V282.671H152.431V216.153C151.96 180.245 120.508 151.637 82.1062 151.637H11.7812V283.025H80.1037V282.671Z" fill="white"/>
<path d="M224.994 282.671V231.105C224.994 227.102 228.999 227.102 228.999 231.105V282.671H297.322V216.153C296.851 180.245 265.399 151.637 226.997 151.637C188.595 151.637 156.672 180.599 156.672 216.153V282.671H224.994Z" fill="white"/>
<path d="M80.1036 373.56C80.1036 369.557 84.1088 369.557 84.1088 373.56V425.126H152.431V358.608C151.96 322.7 120.508 294.092 82.1062 294.092H11.7812V425.48H80.3392L80.1036 373.56Z" fill="white"/>
<path d="M216.514 69.5781H148.191V137.156H216.514V69.5781Z" fill="white"/>
<path d="M148.891 33.9065C148.891 15.1873 164.086 0 183.052 0C202.017 0 217.213 15.4228 217.213 33.9065C217.213 52.6258 202.017 67.8131 183.052 67.8131C164.086 67.8131 148.891 52.6258 148.891 33.9065Z" fill="white"/>
<path d="M224.17 356.606H155.848V424.184H224.17V356.606Z" fill="white"/>
<path d="M156.672 319.757C156.672 301.038 171.868 285.851 190.833 285.851C209.798 285.851 224.994 301.038 224.994 319.757C224.994 338.476 209.798 353.664 190.833 353.664C171.868 353.664 156.672 338.476 156.672 319.757Z" fill="white"/>
<path d="M82.224 437.725H154.434C193.307 437.725 224.759 467.157 224.759 503.301V568.877H156.436V517.311C156.436 513.308 152.431 513.308 152.431 517.311V568.877H84.1087V517.311C84.1087 513.308 80.1037 513.308 80.1037 517.311V568.877H11.7812V437.725H157.379H82.224Z" fill="white"/>
<path d="M297.674 568.759V517.193C297.674 513.19 301.679 513.19 301.679 517.193V568.759H370.002V502.241C369.53 466.333 338.078 437.725 299.677 437.725C261.275 437.725 229.352 466.686 229.352 502.241V568.759H297.674Z" fill="white"/>
</svg>
