<svg width="56" height="56" viewBox="0 0 56 56" fill="none" xmlns="http://www.w3.org/2000/svg">
<path d="M13.0273 37.2875C13.0273 36.5836 13.595 36.0166 14.2997 36.0166C15.0044 36.0166 15.5721 36.5836 15.5721 37.2875C15.5721 37.9915 15.0044 38.5585 14.2997 38.5585C13.595 38.5585 13.0273 37.9915 13.0273 37.2875Z" fill="#010202"/>
<path d="M50.6559 11.4972C45.5369 4.52652 37.2958 0 27.9975 0C12.5331 0 0 12.5237 0 27.9706C0 35.3176 2.83352 41.9999 7.47286 46.9908C7.64414 47.1667 7.76649 47.2694 8.01607 47.4698C9.63103 48.8385 14.197 47.5138 12.6456 42.7967C11.4515 39.1745 10.737 36.8085 11.2313 32.37C11.4662 30.2729 12.6652 26.7534 15.4693 23.3512C18.0484 20.2227 20.1527 20.0321 20.1527 18.634C20.1527 17.3826 20.1527 12.2548 20.1527 12.2548C20.1234 11.5754 19.5997 11.1306 18.9146 11.1306C18.2295 11.1306 17.6569 11.6829 17.6422 12.3722C17.6422 12.3722 17.6422 17.7101 17.6422 17.9692C17.6422 18.0377 15.7728 19.1766 13.7712 21.3763C11.8969 23.4343 9.90998 26.597 9.09271 30.141C7.80074 35.7673 8.95568 40.0299 9.98828 42.9482C10.6196 44.7324 9.72402 45.7296 8.73057 44.3071C4.9917 39.9077 2.73075 34.208 2.73075 27.9804C2.73075 14.0391 14.0453 2.73742 28.0024 2.73742C36.3317 2.73742 43.7214 6.76534 48.3264 12.9783C48.9577 13.6871 49.0605 14.127 48.7913 14.4888C48.3607 14.9483 47.7392 14.875 46.7261 14.9092C44.7197 14.9776 37.7362 14.9189 31.5896 15.0754C26.4902 15.1291 23.9454 15.6326 22.2081 16.1606C21.1511 16.4783 20.7694 17.0649 20.7449 17.6906C20.7351 18.0132 20.603 19.2793 21.6551 18.9615C21.6551 18.9615 24.0188 18.0132 26.1721 17.8079C28.296 17.6075 30.9191 17.5879 33.6352 17.5439C39.5224 17.5439 45.5174 17.5439 48.209 17.4511C51.8695 17.3337 53.0294 14.2346 50.6608 11.5069" fill="#010202"/>
<path d="M52.8603 22.9406C52.6156 21.4839 52.0137 21.3177 50.7021 22.2807C48.495 23.9036 30.1775 37.3463 30.1775 37.3463C29.5805 37.7862 29.2232 38.0013 28.6653 38.016C28.4549 38.0209 26.9525 37.9475 26.6393 37.7129C26.2918 37.4636 26.3848 36.9894 26.884 36.6277C26.884 36.6277 48.2308 20.9706 50.0709 19.6019C52.8652 17.5195 55.0234 19.1962 55.6302 23.2192C55.8602 24.7835 56.0022 26.3722 56.0022 27.9657C56.0022 43.4126 43.5621 55.9999 28.0976 55.9999C23.4632 55.9999 18.9902 54.944 15.1437 52.9545C12.4521 51.8693 10.7588 48.34 14.0719 45.9985C15.8435 44.7471 24.0749 38.7003 24.9754 38.0404C25.0243 38.0062 25.1222 37.9915 25.1613 37.9964C26.6001 38.1675 32.1986 38.7297 32.1986 38.7297C32.8691 38.8372 33.3536 39.502 33.2704 40.1815C33.1872 40.8658 32.4482 41.3742 31.7631 41.3058C31.7631 41.3058 26.9476 40.7827 25.7045 40.6263C25.7045 40.6263 18.1093 46.238 15.8533 47.8756C14.5369 48.8288 15.2073 50.0704 15.9463 50.4566C19.5971 52.3483 23.5366 53.4091 28.0144 53.4091C41.9716 53.4091 53.2861 41.907 53.2861 27.9657C53.2861 26.2402 53.1784 24.5635 52.875 22.9357" fill="#010202"/>
</svg>
