<svg width="144" height="144" viewBox="0 0 144 144" fill="none" xmlns="http://www.w3.org/2000/svg">
<circle opacity="0.2" cx="72" cy="72" r="58.5" fill="#E00919" stroke="white" stroke-width="3"/>
<circle opacity="0.6" cx="72" cy="72" r="50" fill="#E00919"/>
<path d="M61 83.3818V60.3181C61 58.4163 61 57.4643 61.4002 56.9016C61.7495 56.4105 62.2879 56.088 62.8856 56.011C63.5702 55.9227 64.4098 56.3705 66.0867 57.2648L87.709 68.7967L87.7168 68.8001C89.57 69.7885 90.497 70.2829 90.8011 70.9419C91.0663 71.5167 91.0663 72.1803 90.8011 72.7551C90.4965 73.415 89.5674 73.9114 87.709 74.9026L66.0867 86.4344C64.4086 87.3294 63.5704 87.7755 62.8856 87.6872C62.2879 87.6101 61.7495 87.2877 61.4002 86.7966C61 86.2339 61 85.2837 61 83.3818Z" stroke="white" stroke-width="2" stroke-linecap="round" stroke-linejoin="round"/>
<path d="M89 72L63 85.5L63 58L89 72Z" fill="white"/>
</svg>
