<svg width="155" height="17" viewBox="0 0 155 17" fill="none" xmlns="http://www.w3.org/2000/svg">
<path d="M8.47875 16.8907C3.79689 16.8907 0 13.1347 0 8.50246C0 3.87026 3.79689 0.114258 8.47875 0.114258C13.1606 0.114258 16.829 3.74467 16.9546 8.27173C16.9546 8.27173 10.5816 8.27173 8.47875 8.27173C8.02896 8.27173 8.02896 8.73904 8.47875 8.73904H16.9575C16.9575 13.269 13.0788 16.8936 8.47875 16.8936" fill="white"/>
<path d="M33.9275 16.309V10.2515C33.9275 9.79299 34.3977 9.79299 34.3977 10.2515V16.309H42.4062V8.49912C42.339 4.30794 38.6736 0.928711 34.164 0.928711H25.9219V16.3061H33.945H33.9304L33.9275 16.309Z" fill="white"/>
<path d="M50.8806 16.309V10.2515C50.8806 9.79299 51.3508 9.79299 51.3508 10.2515V16.309H59.3593V8.49912C59.2922 4.30794 55.6267 0.928711 51.1172 0.928711C46.6076 0.928711 42.875 4.30794 42.875 8.49912V16.309H50.8981H50.8835H50.8806Z" fill="white"/>
<path d="M67.8376 10.2515C67.8376 9.79299 68.3079 9.79299 68.3079 10.2515V16.309H76.3164V8.49912C76.2492 4.30794 72.5837 0.928711 68.0742 0.928711H59.832V16.3061H67.8552L67.8405 10.2486L67.8376 10.2515Z" fill="white"/>
<path d="M25.3601 8.27734H17.3516V16.2012H25.3601V8.27734Z" fill="white"/>
<path d="M17.4414 3.96045C17.4414 1.77286 19.2347 0 21.4457 0C23.6566 0 25.4499 1.77286 25.4499 3.96045C25.4499 6.14804 23.6566 7.9209 21.4457 7.9209C19.2347 7.9209 17.4414 6.14804 17.4414 3.96045Z" fill="white"/>
<path d="M84.7116 8.27734H76.7031V16.2012H84.7116V8.27734Z" fill="white"/>
<path d="M76.7891 3.96045C76.7891 1.77286 78.5824 0 80.7933 0C83.0043 0 84.7976 1.77286 84.7976 3.96045C84.7976 6.14804 83.0043 7.9209 80.7933 7.9209C78.5824 7.9209 76.7891 6.14804 76.7891 3.96045Z" fill="white"/>
<path d="M93.5107 0.931641H101.989C106.543 0.931641 110.232 4.37513 110.232 8.6218V16.312H102.226V10.2545C102.226 9.79592 101.753 9.79592 101.753 10.2545V16.312H93.7444V10.2545C93.7444 9.79592 93.2741 9.79592 93.2741 10.2545V16.312H85.2656V0.934564H102.325H93.5078L93.5107 0.931641Z" fill="white"/>
<path d="M118.72 16.309V10.2515C118.72 9.79299 119.191 9.79299 119.191 10.2515V16.309H127.199V8.49912C127.132 4.30794 123.467 0.928711 118.957 0.928711C114.447 0.928711 110.715 4.30794 110.715 8.49912V16.309H118.738H118.723H118.72Z" fill="white"/>
<path d="M140.47 1.72604C138.017 -0.40606 134.299 -0.1432 132.164 2.31309C130.067 4.72558 130.42 9.41036 133.411 11.1306C133.411 11.1306 136.235 7.73681 137.196 6.63571C137.401 6.39913 137.649 6.61235 137.442 6.84892C136.484 7.95294 129.629 16.4843 129.629 16.4843H141.951V12.553H139.191L141.139 9.90687C141.437 9.54471 141.683 9.15918 141.878 8.75613L141.948 8.64806H141.931C143.011 6.33196 142.489 3.48721 140.462 1.72604" fill="white"/>
<path d="M154.148 8.1194V0.283203H148.447L142.387 12.5997H147.378V16.4813H154.061V12.5997H154.951L154.998 8.16613L154.148 8.1194Z" fill="white"/>
</svg>
